%TF.GenerationSoftware,KiCad,Pcbnew,(5.1.4)-1*%
%TF.CreationDate,2020-04-23T20:30:20-07:00*%
%TF.ProjectId,tetris,74657472-6973-42e6-9b69-6361645f7063,rev?*%
%TF.SameCoordinates,Original*%
%TF.FileFunction,Plated,1,2,PTH,Drill*%
%TF.FilePolarity,Positive*%
%FSLAX46Y46*%
G04 Gerber Fmt 4.6, Leading zero omitted, Abs format (unit mm)*
G04 Created by KiCad (PCBNEW (5.1.4)-1) date 2020-04-23 20:30:20*
%MOMM*%
%LPD*%
G04 APERTURE LIST*
%TA.AperFunction,ViaDrill*%
%ADD10C,0.400000*%
%TD*%
%TA.AperFunction,ComponentDrill*%
%ADD11C,1.000000*%
%TD*%
G04 APERTURE END LIST*
D10*
X14605000Y-124460000D03*
X19629921Y-132242138D03*
X20320000Y-24130000D03*
X20320000Y-49530000D03*
X20320000Y-74930000D03*
X20320000Y-100330000D03*
X20320000Y-125730000D03*
X20320000Y-151130000D03*
X20320000Y-176530000D03*
X20320000Y-201930000D03*
X20320000Y-227330000D03*
X20390216Y-131592542D03*
X20822952Y-130691008D03*
X22860000Y-228600000D03*
X23876000Y-136652000D03*
X23879023Y-135636000D03*
X24308863Y-134718587D03*
X29464000Y-22352000D03*
X45720000Y-24130000D03*
X45720000Y-49530000D03*
X45720000Y-74930000D03*
X45720000Y-100330000D03*
X45720000Y-125730000D03*
X45720000Y-151130000D03*
X45720000Y-176530000D03*
X45720000Y-201930000D03*
X45720000Y-227330000D03*
X47498000Y-134620000D03*
X47498000Y-135636000D03*
X47498000Y-136652000D03*
X48260000Y-228600000D03*
X51816000Y-23876000D03*
X71120000Y-24130000D03*
X71120000Y-49530000D03*
X71120000Y-74930000D03*
X71120000Y-100330000D03*
X71120000Y-125730000D03*
X71120000Y-151130000D03*
X71120000Y-176530000D03*
X71120000Y-201930000D03*
X71120000Y-227330000D03*
X77216000Y-23876000D03*
X79502000Y-172466000D03*
X81280000Y-172720000D03*
X82042000Y-169926000D03*
X83058000Y-171196000D03*
X83312000Y-172720000D03*
X84836000Y-211328000D03*
X87376000Y-222504000D03*
X96520000Y-24130000D03*
X96520000Y-49530000D03*
X96520000Y-74930000D03*
X96520000Y-100330000D03*
X96520000Y-125730000D03*
X96520000Y-151130000D03*
X96520000Y-176530000D03*
X96520000Y-201930000D03*
X96520000Y-227330000D03*
X97155000Y-232537000D03*
X98298000Y-188214000D03*
X98298000Y-189484000D03*
X99060000Y-228600000D03*
X100076000Y-41656000D03*
X100076000Y-233680000D03*
X104648000Y-214376000D03*
X109213926Y-44189926D03*
X109213926Y-108705926D03*
X110236000Y-44196000D03*
X110236000Y-110236000D03*
X111252000Y-44196000D03*
X111252000Y-111252000D03*
X112268000Y-188214000D03*
X112268000Y-189484000D03*
X113284000Y-232664000D03*
X117348000Y-234149980D03*
X118364000Y-44196000D03*
X119888000Y-108712000D03*
X119888000Y-109728000D03*
X119888000Y-111252000D03*
X120904000Y-232156000D03*
X121412000Y-233422970D03*
X121920000Y-24130000D03*
X121920000Y-49530000D03*
X121920000Y-74930000D03*
X121920000Y-100330000D03*
X121920000Y-125730000D03*
X121920000Y-151130000D03*
X121920000Y-176530000D03*
X121920000Y-201930000D03*
X121920000Y-227330000D03*
X123952000Y-232156000D03*
X123952000Y-234188000D03*
X124460000Y-19812000D03*
X124460000Y-228600000D03*
X125476000Y-20574000D03*
X125476000Y-188468000D03*
X125476000Y-189484000D03*
X125730000Y-108473987D03*
X125730000Y-109474000D03*
X125730000Y-110490000D03*
X126238000Y-21336000D03*
X127034999Y-208822999D03*
X127034999Y-221522999D03*
X127508000Y-232156000D03*
X127762000Y-108473987D03*
X127762000Y-109474000D03*
X127762000Y-110490000D03*
X128016000Y-23876000D03*
X129540000Y-15240000D03*
X129540000Y-224536000D03*
X130264598Y-225260598D03*
X131057926Y-226053926D03*
X131064000Y-227076000D03*
X131064000Y-228600000D03*
X132603987Y-220980000D03*
X133604000Y-220980000D03*
X134620000Y-221488000D03*
X147320000Y-24130000D03*
X147320000Y-49530000D03*
X147320000Y-74930000D03*
X147320000Y-100330000D03*
X147320000Y-125730000D03*
X147320000Y-151130000D03*
X147320000Y-176530000D03*
X147320000Y-201930000D03*
X147320000Y-227330000D03*
X153416000Y-23876000D03*
X172720000Y-24130000D03*
X172720000Y-49530000D03*
X172720000Y-74930000D03*
X172720000Y-100330000D03*
X172720000Y-125730000D03*
X172720000Y-151130000D03*
X172720000Y-176530000D03*
X172720000Y-201930000D03*
X172720000Y-227330000D03*
X175260000Y-228600000D03*
X176276000Y-108458000D03*
X176276000Y-109474000D03*
X176276000Y-110490000D03*
X177800000Y-108458000D03*
X177800000Y-109474000D03*
X177800000Y-110490000D03*
X179832000Y-21844000D03*
X198120000Y-24130000D03*
X198120000Y-49530000D03*
X198120000Y-74930000D03*
X198120000Y-100330000D03*
X198120000Y-125730000D03*
X198120000Y-151130000D03*
X198120000Y-176530000D03*
X198120000Y-201930000D03*
X198120000Y-227330000D03*
X200660000Y-228600000D03*
X204216000Y-23876000D03*
X223520000Y-24130000D03*
X223520000Y-49530000D03*
X223520000Y-74930000D03*
X223520000Y-100330000D03*
X223520000Y-125730000D03*
X223520000Y-151130000D03*
X223520000Y-176530000D03*
X223520000Y-201930000D03*
X223520000Y-227330000D03*
X228346000Y-108458000D03*
X228346000Y-109474000D03*
X228346000Y-110490000D03*
X229616000Y-23876000D03*
X236474000Y-124460000D03*
X274320000Y-24130000D03*
X274320000Y-49530000D03*
X274320000Y-74930000D03*
X274320000Y-100330000D03*
X274320000Y-125730000D03*
X274320000Y-151130000D03*
X274320000Y-176530000D03*
X274320000Y-201930000D03*
X274320000Y-227330000D03*
X276950000Y-33438000D03*
X276950000Y-42582000D03*
X276950000Y-107606000D03*
X276950000Y-117766000D03*
X276950000Y-133514000D03*
X276950000Y-144362000D03*
X276950000Y-231230000D03*
X277252000Y-155056000D03*
X278776000Y-80380000D03*
X279000000Y-33420000D03*
X279000000Y-42564000D03*
X279000000Y-235820000D03*
X279908000Y-100076000D03*
X280554000Y-158358000D03*
X281940000Y-15748000D03*
X281940000Y-174752000D03*
X281940000Y-239268000D03*
X282448000Y-29972000D03*
X282448000Y-157480000D03*
X282448000Y-163068000D03*
X284022990Y-87833010D03*
X284988000Y-129540000D03*
X284988000Y-172720000D03*
X285496000Y-33020000D03*
X285496000Y-125984000D03*
X286512000Y-99568000D03*
X289052000Y-121412000D03*
X289848990Y-124453473D03*
X289992957Y-127994905D03*
X290576000Y-120904000D03*
X290576000Y-127000000D03*
X291475000Y-124968000D03*
D11*
%TO.C,J1*%
X137668000Y-214376000D03*
X137668000Y-216916000D03*
X137668000Y-219456000D03*
X140208000Y-214376000D03*
X140208000Y-216916000D03*
X140208000Y-219456000D03*
M02*
