G04 #@! TF.GenerationSoftware,KiCad,Pcbnew,(5.1.4)-1*
G04 #@! TF.CreationDate,2020-04-23T20:30:29-07:00*
G04 #@! TF.ProjectId,tetris,74657472-6973-42e6-9b69-6361645f7063,rev?*
G04 #@! TF.SameCoordinates,Original*
G04 #@! TF.FileFunction,Copper,L2,Bot*
G04 #@! TF.FilePolarity,Positive*
%FSLAX46Y46*%
G04 Gerber Fmt 4.6, Leading zero omitted, Abs format (unit mm)*
G04 Created by KiCad (PCBNEW (5.1.4)-1) date 2020-04-23 20:30:29*
%MOMM*%
%LPD*%
G04 APERTURE LIST*
%ADD10R,2.000000X0.900000*%
%ADD11R,0.900000X2.000000*%
%ADD12R,5.000000X5.000000*%
%ADD13O,1.700000X1.700000*%
%ADD14R,1.700000X1.700000*%
%ADD15C,0.800000*%
%ADD16C,0.762000*%
%ADD17C,0.508000*%
%ADD18C,0.254000*%
G04 APERTURE END LIST*
D10*
X119244000Y-233807000D03*
X119244000Y-232537000D03*
X119244000Y-231267000D03*
X119244000Y-229997000D03*
X119244000Y-228727000D03*
X119244000Y-227457000D03*
X119244000Y-226187000D03*
X119244000Y-224917000D03*
X119244000Y-223647000D03*
X119244000Y-222377000D03*
X119244000Y-221107000D03*
X119244000Y-219837000D03*
X119244000Y-218567000D03*
X119244000Y-217297000D03*
D11*
X116459000Y-216297000D03*
X115189000Y-216297000D03*
X113919000Y-216297000D03*
X112649000Y-216297000D03*
X111379000Y-216297000D03*
X110109000Y-216297000D03*
X108839000Y-216297000D03*
X107569000Y-216297000D03*
X106299000Y-216297000D03*
X105029000Y-216297000D03*
D10*
X102244000Y-217297000D03*
X102244000Y-218567000D03*
X102244000Y-219837000D03*
X102244000Y-221107000D03*
X102244000Y-222377000D03*
X102244000Y-223647000D03*
X102244000Y-224917000D03*
X102244000Y-226187000D03*
X102244000Y-227457000D03*
X102244000Y-228727000D03*
X102244000Y-229997000D03*
X102244000Y-231267000D03*
X102244000Y-232537000D03*
X102244000Y-233807000D03*
D12*
X109744000Y-226307000D03*
D13*
X137668000Y-214376000D03*
X140208000Y-214376000D03*
X137668000Y-216916000D03*
X140208000Y-216916000D03*
X137668000Y-219456000D03*
D14*
X140208000Y-219456000D03*
D15*
X274320000Y-49530000D03*
X274320000Y-74930000D03*
X274320000Y-100330000D03*
X274320000Y-125730000D03*
X274320000Y-151130000D03*
X274320000Y-176530000D03*
X274320000Y-201930000D03*
X274320000Y-227330000D03*
X121920000Y-227330000D03*
X20320000Y-227330000D03*
X147320000Y-227330000D03*
X172720000Y-227330000D03*
X223520000Y-227330000D03*
X45720000Y-227330000D03*
X71120000Y-227330000D03*
X96520000Y-227330000D03*
X198120000Y-227330000D03*
X121920000Y-201930000D03*
X20320000Y-201930000D03*
X147320000Y-201930000D03*
X172720000Y-201930000D03*
X223520000Y-201930000D03*
X45720000Y-201930000D03*
X71120000Y-201930000D03*
X96520000Y-201930000D03*
X198120000Y-201930000D03*
X121920000Y-176530000D03*
X20320000Y-176530000D03*
X147320000Y-176530000D03*
X172720000Y-176530000D03*
X223520000Y-176530000D03*
X45720000Y-176530000D03*
X71120000Y-176530000D03*
X96520000Y-176530000D03*
X198120000Y-176530000D03*
X121920000Y-151130000D03*
X20320000Y-151130000D03*
X147320000Y-151130000D03*
X172720000Y-151130000D03*
X223520000Y-151130000D03*
X45720000Y-151130000D03*
X71120000Y-151130000D03*
X96520000Y-151130000D03*
X198120000Y-151130000D03*
X121920000Y-125730000D03*
X20320000Y-125730000D03*
X147320000Y-125730000D03*
X172720000Y-125730000D03*
X223520000Y-125730000D03*
X45720000Y-125730000D03*
X71120000Y-125730000D03*
X96520000Y-125730000D03*
X198120000Y-125730000D03*
X121920000Y-100330000D03*
X20320000Y-100330000D03*
X147320000Y-100330000D03*
X172720000Y-100330000D03*
X223520000Y-100330000D03*
X45720000Y-100330000D03*
X71120000Y-100330000D03*
X96520000Y-100330000D03*
X198120000Y-100330000D03*
X121920000Y-74930000D03*
X20320000Y-74930000D03*
X147320000Y-74930000D03*
X172720000Y-74930000D03*
X223520000Y-74930000D03*
X45720000Y-74930000D03*
X71120000Y-74930000D03*
X96520000Y-74930000D03*
X198120000Y-74930000D03*
X121920000Y-49530000D03*
X20320000Y-49530000D03*
X147320000Y-49530000D03*
X172720000Y-49530000D03*
X223520000Y-49530000D03*
X45720000Y-49530000D03*
X71120000Y-49530000D03*
X96520000Y-49530000D03*
X198120000Y-49530000D03*
X223520000Y-24130000D03*
X198120000Y-24130000D03*
X172720000Y-24130000D03*
X147320000Y-24130000D03*
X121920000Y-24130000D03*
X96520000Y-24130000D03*
X71120000Y-24130000D03*
X45720000Y-24130000D03*
X20320000Y-24130000D03*
X84836000Y-211328000D03*
X14605000Y-124460000D03*
X129540000Y-15240000D03*
X236474000Y-124460000D03*
X274320000Y-24130000D03*
X281940000Y-239268000D03*
X281940000Y-15748000D03*
X284988000Y-129540000D03*
X289848990Y-124453473D03*
X100076000Y-233680000D03*
X104648000Y-214376000D03*
X121412000Y-233422970D03*
X289992957Y-127994905D03*
X285496000Y-125984000D03*
X109213926Y-44189926D03*
X100076000Y-41656000D03*
X29464000Y-22352000D03*
X109213926Y-108705926D03*
X125730000Y-108473987D03*
X127762000Y-108473987D03*
X176276000Y-108458000D03*
X177800000Y-108458000D03*
X228346000Y-108458000D03*
X119888000Y-108712000D03*
X22860000Y-228600000D03*
X51816000Y-23876000D03*
X48260000Y-228600000D03*
X77216000Y-23876000D03*
X110236000Y-44196000D03*
X110236000Y-110236000D03*
X125730000Y-109474000D03*
X127762000Y-109474000D03*
X176276000Y-109474000D03*
X177800000Y-109474000D03*
X228346000Y-109474000D03*
X119888000Y-109728000D03*
X286512000Y-99568000D03*
X279908000Y-100076000D03*
X290576000Y-120904000D03*
X291475000Y-124968000D03*
X282448000Y-29972000D03*
X285496000Y-33020000D03*
X99060000Y-228600000D03*
X128016000Y-23876000D03*
X124460000Y-228600000D03*
X153416000Y-23876000D03*
X127034999Y-221522999D03*
X127034999Y-208822999D03*
X111252000Y-44196000D03*
X179832000Y-21844000D03*
X125730000Y-110490000D03*
X127762000Y-110490000D03*
X176276000Y-110490000D03*
X177800000Y-110490000D03*
X228346000Y-110490000D03*
X118364000Y-44196000D03*
X119888000Y-111252000D03*
X111252000Y-111252000D03*
X289052000Y-121412000D03*
X290576000Y-127000000D03*
X284988000Y-172720000D03*
X281940000Y-174752000D03*
X279000000Y-42564000D03*
X279000000Y-33420000D03*
X175260000Y-228600000D03*
X204216000Y-23876000D03*
X200660000Y-228600000D03*
X229616000Y-23876000D03*
X87376000Y-222504000D03*
X113284000Y-232664000D03*
X120904000Y-232156000D03*
X123952000Y-232156000D03*
X127508000Y-232156000D03*
X97155000Y-232537000D03*
X131064000Y-228600000D03*
X131057926Y-226053926D03*
X132603987Y-220980000D03*
X129540000Y-224536000D03*
X133604000Y-220980000D03*
X130264598Y-225260598D03*
X134620000Y-221488000D03*
X117348000Y-234149980D03*
X123952000Y-234188000D03*
X131064000Y-227076000D03*
X47498000Y-134620000D03*
X24308863Y-134718587D03*
X83312000Y-172720000D03*
X126238000Y-21336000D03*
X20822952Y-130691008D03*
X278776000Y-80380000D03*
X284022990Y-87833010D03*
X125476000Y-188468000D03*
X98298000Y-188214000D03*
X47498000Y-135636000D03*
X23879023Y-135636000D03*
X81280000Y-172720000D03*
X83058000Y-171196000D03*
X125476000Y-20574000D03*
X112268000Y-188214000D03*
X20390216Y-131592542D03*
X277252000Y-155056000D03*
X280554000Y-158358000D03*
X125476000Y-189484000D03*
X98298000Y-189484000D03*
X47498000Y-136652000D03*
X23876000Y-136652000D03*
X79502000Y-172466000D03*
X82042000Y-169926000D03*
X124460000Y-19812000D03*
X112268000Y-189484000D03*
X19629921Y-132242138D03*
X282448000Y-157480000D03*
X282448000Y-163068000D03*
X276950000Y-231230000D03*
X279000000Y-235820000D03*
X276950000Y-33438000D03*
X276950000Y-42582000D03*
X276950000Y-107606000D03*
X276950000Y-117766000D03*
X276950000Y-133514000D03*
X276950000Y-144362000D03*
D16*
X102244000Y-233807000D02*
X100203000Y-233807000D01*
X100203000Y-233807000D02*
X100076000Y-233680000D01*
X105029000Y-216297000D02*
X105029000Y-214757000D01*
X105029000Y-214757000D02*
X104648000Y-214376000D01*
X119244000Y-233807000D02*
X121027970Y-233807000D01*
X121027970Y-233807000D02*
X121412000Y-233422970D01*
D17*
X289992957Y-127994905D02*
X287982052Y-125984000D01*
X287982052Y-125984000D02*
X285496000Y-125984000D01*
D18*
X109213926Y-44755611D02*
X109213926Y-44189926D01*
X120571001Y-219763999D02*
X120571001Y-216583001D01*
X120498000Y-219837000D02*
X120571001Y-219763999D01*
X120571001Y-216583001D02*
X109213926Y-205225926D01*
X119244000Y-219837000D02*
X120498000Y-219837000D01*
X100076000Y-41656000D02*
X90424000Y-32004000D01*
X90424000Y-32004000D02*
X90424000Y-16256000D01*
X90424000Y-16256000D02*
X89408000Y-15240000D01*
X89408000Y-15240000D02*
X36576000Y-15240000D01*
X36576000Y-15240000D02*
X29464000Y-22352000D01*
X109213926Y-205225926D02*
X109213926Y-108705926D01*
X109213926Y-108705926D02*
X109213926Y-44755611D01*
X125714013Y-108458000D02*
X125730000Y-108473987D01*
X127762000Y-108473987D02*
X176260013Y-108473987D01*
X176260013Y-108473987D02*
X176276000Y-108458000D01*
X201676000Y-108458000D02*
X228346000Y-108458000D01*
X177800000Y-108458000D02*
X201676000Y-108458000D01*
X201676000Y-108458000D02*
X201930000Y-108458000D01*
X125730000Y-108473987D02*
X120126013Y-108473987D01*
X120126013Y-108473987D02*
X119888000Y-108712000D01*
X32111980Y-33285952D02*
X32111980Y-219348020D01*
X23259999Y-228200001D02*
X22860000Y-228600000D01*
X32111980Y-219348020D02*
X23259999Y-228200001D01*
X32831943Y-32565989D02*
X32111980Y-33285952D01*
X43126011Y-32565989D02*
X32831943Y-32565989D01*
X51816000Y-23876000D02*
X43126011Y-32565989D01*
X77216000Y-23876000D02*
X46770998Y-54321002D01*
X46770998Y-54321002D02*
X46770998Y-227110998D01*
X47860001Y-228200001D02*
X48260000Y-228600000D01*
X46770998Y-227110998D02*
X47860001Y-228200001D01*
X121025011Y-216155079D02*
X110236000Y-205366068D01*
X121025011Y-220579989D02*
X121025011Y-216155079D01*
X120498000Y-221107000D02*
X121025011Y-220579989D01*
X119244000Y-221107000D02*
X120498000Y-221107000D01*
X110236000Y-44761685D02*
X110236000Y-44196000D01*
X110236000Y-205366068D02*
X110236000Y-110236000D01*
X110236000Y-110236000D02*
X110236000Y-44761685D01*
X125676010Y-109527990D02*
X125730000Y-109474000D01*
X120957990Y-109527990D02*
X125676010Y-109527990D01*
X127762000Y-109474000D02*
X176276000Y-109474000D01*
X177800000Y-109474000D02*
X228346000Y-109474000D01*
X120088010Y-109527990D02*
X119888000Y-109728000D01*
X120957990Y-109527990D02*
X120088010Y-109527990D01*
X286512000Y-99568000D02*
X280416000Y-99568000D01*
X280416000Y-99568000D02*
X279908000Y-100076000D01*
X291475000Y-121803000D02*
X291475000Y-124968000D01*
X290576000Y-120904000D02*
X291475000Y-121803000D01*
X282448000Y-29972000D02*
X285496000Y-33020000D01*
X99060000Y-52832000D02*
X99060000Y-228600000D01*
X114427000Y-37465000D02*
X99060000Y-52832000D01*
X128016000Y-23876000D02*
X114427000Y-37465000D01*
X153416000Y-23876000D02*
X127034999Y-50257001D01*
X124859999Y-228200001D02*
X124460000Y-228600000D01*
X127034999Y-226025001D02*
X124859999Y-228200001D01*
X127034999Y-221453001D02*
X127034999Y-221522999D01*
X127034999Y-221522999D02*
X127034999Y-226025001D01*
X127034999Y-208753001D02*
X127034999Y-208822999D01*
X127034999Y-50257001D02*
X127034999Y-208753001D01*
X111252000Y-205232000D02*
X121920000Y-215900000D01*
X120498000Y-223647000D02*
X119244000Y-223647000D01*
X121920000Y-222225000D02*
X120498000Y-223647000D01*
X121920000Y-215900000D02*
X121920000Y-222225000D01*
X111252000Y-44196000D02*
X111252000Y-109347000D01*
X111252000Y-109347000D02*
X111252000Y-111252000D01*
X111252000Y-111252000D02*
X111252000Y-205232000D01*
X127762000Y-110490000D02*
X176276000Y-110490000D01*
X177800000Y-110490000D02*
X228346000Y-110490000D01*
X172212000Y-14224000D02*
X179832000Y-21844000D01*
X118364000Y-44196000D02*
X148336000Y-14224000D01*
X148336000Y-14224000D02*
X172212000Y-14224000D01*
X124968000Y-111252000D02*
X125330001Y-110889999D01*
X125330001Y-110889999D02*
X125730000Y-110490000D01*
X124968000Y-111252000D02*
X119888000Y-111252000D01*
X290576000Y-122936000D02*
X290576000Y-127000000D01*
X289052000Y-121412000D02*
X290576000Y-122936000D01*
X284988000Y-172720000D02*
X283972000Y-172720000D01*
X283972000Y-172720000D02*
X281940000Y-174752000D01*
X279000000Y-33985685D02*
X279000000Y-42564000D01*
X279000000Y-33420000D02*
X279000000Y-33985685D01*
X177003002Y-226856998D02*
X175659999Y-228200001D01*
X175659999Y-228200001D02*
X175260000Y-228600000D01*
X177003002Y-51088998D02*
X177003002Y-226856998D01*
X204216000Y-23876000D02*
X177003002Y-51088998D01*
X229616000Y-23876000D02*
X229616000Y-193921932D01*
X229616000Y-193921932D02*
X200660000Y-222877932D01*
X200660000Y-228034315D02*
X200660000Y-228600000D01*
X200660000Y-222877932D02*
X200660000Y-228034315D01*
D16*
X87376000Y-222504000D02*
X87376000Y-224536000D01*
X87376000Y-224536000D02*
X95377000Y-232537000D01*
D18*
X102244000Y-232537000D02*
X113157000Y-232537000D01*
X113157000Y-232537000D02*
X113284000Y-232664000D01*
X120904000Y-232156000D02*
X123952000Y-232156000D01*
D16*
X95377000Y-232537000D02*
X97155000Y-232537000D01*
X97155000Y-232537000D02*
X102244000Y-232537000D01*
D18*
X127508000Y-232156000D02*
X131064000Y-228600000D01*
X124228850Y-232883002D02*
X124300962Y-232883002D01*
X102244000Y-231267000D02*
X113351036Y-231267000D01*
X124300962Y-232883002D02*
X130336999Y-226846965D01*
X130336999Y-226846965D02*
X130336999Y-226774853D01*
X122234862Y-234876990D02*
X124228850Y-232883002D01*
X116961026Y-234876990D02*
X122234862Y-234876990D01*
X113351036Y-231267000D02*
X116961026Y-234876990D01*
X130336999Y-226774853D02*
X131057926Y-226053926D01*
X132827166Y-220980000D02*
X132603987Y-220980000D01*
X132827166Y-220414315D02*
X132827166Y-220980000D01*
X137289037Y-215553001D02*
X132827166Y-220014872D01*
X139030999Y-215553001D02*
X137289037Y-215553001D01*
X132827166Y-220014872D02*
X132827166Y-220414315D01*
X140208000Y-214376000D02*
X139030999Y-215553001D01*
X119244000Y-228727000D02*
X122047000Y-228727000D01*
X133554167Y-221029833D02*
X136818001Y-217765999D01*
X136818001Y-217765999D02*
X137668000Y-216916000D01*
X123444000Y-230124000D02*
X124325234Y-230124000D01*
X122047000Y-228727000D02*
X123444000Y-230124000D01*
X129472617Y-224603383D02*
X129540000Y-224536000D01*
X129472617Y-224976617D02*
X129472617Y-224603383D01*
X124325234Y-230124000D02*
X129472617Y-224976617D01*
X133554167Y-221029833D02*
X133604000Y-220980000D01*
X119244000Y-229997000D02*
X120498000Y-229997000D01*
X120498000Y-229997000D02*
X121133000Y-230632000D01*
X121133000Y-230632000D02*
X124893196Y-230632000D01*
X124893196Y-230632000D02*
X130264598Y-225260598D01*
X139358001Y-217765999D02*
X140208000Y-216916000D01*
X138845001Y-218278999D02*
X139358001Y-217765999D01*
X137103039Y-218278999D02*
X138845001Y-218278999D01*
X134620000Y-220762038D02*
X137103039Y-218278999D01*
X134620000Y-221488000D02*
X134620000Y-220762038D01*
X117990000Y-217297000D02*
X117348000Y-217939000D01*
X119244000Y-217297000D02*
X117990000Y-217297000D01*
X117348000Y-217939000D02*
X117348000Y-233172000D01*
X117348000Y-233172000D02*
X117348000Y-234149980D01*
X123952000Y-234188000D02*
X131064000Y-227076000D01*
X49784000Y-134620000D02*
X47498000Y-134620000D01*
X57404000Y-142240000D02*
X49784000Y-134620000D01*
X83312000Y-172720000D02*
X57404000Y-146812000D01*
X57404000Y-146812000D02*
X57404000Y-142240000D01*
X83312000Y-172720000D02*
X84836000Y-172720000D01*
X84836000Y-172720000D02*
X90424000Y-167132000D01*
X90424000Y-167132000D02*
X90424000Y-160020000D01*
X90424000Y-160020000D02*
X90424000Y-53848000D01*
X90424000Y-53848000D02*
X97790000Y-46482000D01*
X97790000Y-46482000D02*
X102870000Y-46482000D01*
X102870000Y-46482000D02*
X117602000Y-31750000D01*
X117602000Y-31750000D02*
X118618000Y-30734000D01*
X118618000Y-30734000D02*
X119126000Y-30226000D01*
X119126000Y-30226000D02*
X119126000Y-24892000D01*
X119126000Y-24892000D02*
X122682000Y-21336000D01*
X122682000Y-21336000D02*
X126238000Y-21336000D01*
X22879022Y-132747078D02*
X20822952Y-130691008D01*
X22879022Y-134183718D02*
X22879022Y-132747078D01*
X24308863Y-134718587D02*
X23413891Y-134718587D01*
X23413891Y-134718587D02*
X22879022Y-134183718D01*
X284022990Y-85626990D02*
X278776000Y-80380000D01*
X284022990Y-87833010D02*
X284022990Y-85626990D01*
X125476000Y-188468000D02*
X122428000Y-188468000D01*
X98298000Y-188214000D02*
X96774000Y-188214000D01*
X47498000Y-135636000D02*
X49664068Y-135636000D01*
X49664068Y-135636000D02*
X56648074Y-142620006D01*
X22425011Y-135450872D02*
X23693895Y-135450872D01*
X23693895Y-135450872D02*
X23879023Y-135636000D01*
X58420000Y-149860000D02*
X56648074Y-148088074D01*
X56648074Y-142620006D02*
X56648074Y-148088074D01*
X96774000Y-188214000D02*
X81280000Y-172720000D01*
X81280000Y-172720000D02*
X58420000Y-149860000D01*
X83058000Y-171196000D02*
X83457999Y-170796001D01*
X83457999Y-170796001D02*
X89662000Y-164592000D01*
X89662000Y-164592000D02*
X89662000Y-160020000D01*
X89662000Y-160020000D02*
X89662000Y-53594000D01*
X89662000Y-53594000D02*
X97536000Y-45720000D01*
X97536000Y-45720000D02*
X101600000Y-45720000D01*
X101600000Y-45720000D02*
X102616000Y-45720000D01*
X102616000Y-45720000D02*
X114808000Y-33528000D01*
X114808000Y-33528000D02*
X118364000Y-29972000D01*
X118364000Y-29972000D02*
X118364000Y-25146000D01*
X118364000Y-25146000D02*
X118364000Y-24638000D01*
X118364000Y-24638000D02*
X122428000Y-20574000D01*
X122428000Y-20574000D02*
X125476000Y-20574000D01*
X122174000Y-188214000D02*
X122428000Y-188468000D01*
X112268000Y-188214000D02*
X122174000Y-188214000D01*
X20390216Y-133416077D02*
X22425011Y-135450872D01*
X20390216Y-131592542D02*
X20390216Y-133416077D01*
X277252000Y-155056000D02*
X280554000Y-158358000D01*
X125476000Y-189484000D02*
X122428000Y-189484000D01*
X55626000Y-144526000D02*
X55626000Y-143002000D01*
X55626000Y-143002000D02*
X49276000Y-136652000D01*
X49276000Y-136652000D02*
X47498000Y-136652000D01*
X23876000Y-136652000D02*
X22098000Y-136652000D01*
X58420000Y-151384000D02*
X55626000Y-148590000D01*
X98298000Y-189484000D02*
X96520000Y-189484000D01*
X55626000Y-148590000D02*
X55626000Y-144526000D01*
X96520000Y-189484000D02*
X79502000Y-172466000D01*
X79502000Y-172466000D02*
X58420000Y-151384000D01*
X82042000Y-169926000D02*
X88900000Y-163068000D01*
X88900000Y-163068000D02*
X88900000Y-160020000D01*
X88900000Y-160020000D02*
X88900000Y-53340000D01*
X88900000Y-53340000D02*
X97282000Y-44958000D01*
X97282000Y-44958000D02*
X102108000Y-44958000D01*
X102108000Y-44958000D02*
X117602000Y-29464000D01*
X117602000Y-29464000D02*
X117602000Y-24384000D01*
X117602000Y-24384000D02*
X122174000Y-19812000D01*
X122174000Y-19812000D02*
X124460000Y-19812000D01*
X122428000Y-189484000D02*
X112268000Y-189484000D01*
X19629921Y-134183921D02*
X22098000Y-136652000D01*
X19629921Y-132242138D02*
X19629921Y-134183921D01*
X282448000Y-157480000D02*
X282448000Y-163068000D01*
X276950000Y-233770000D02*
X279000000Y-235820000D01*
X276950000Y-231230000D02*
X276950000Y-233770000D01*
X276950000Y-34003685D02*
X276950000Y-42582000D01*
X276950000Y-33438000D02*
X276950000Y-34003685D01*
X276950000Y-117766000D02*
X276950000Y-107606000D01*
X276950000Y-134079685D02*
X276950000Y-144362000D01*
X276950000Y-133514000D02*
X276950000Y-134079685D01*
G36*
X240640001Y-240640000D02*
G01*
X125095000Y-240640000D01*
X125095000Y-235204000D01*
X125092560Y-235179224D01*
X125085333Y-235155399D01*
X125073597Y-235133443D01*
X125057803Y-235114197D01*
X125038557Y-235098403D01*
X125016601Y-235086667D01*
X124992776Y-235079440D01*
X124968000Y-235077000D01*
X124484468Y-235077000D01*
X124611774Y-234991937D01*
X124755937Y-234847774D01*
X124869205Y-234678256D01*
X124947226Y-234489898D01*
X124987000Y-234289939D01*
X124987000Y-234230630D01*
X126585107Y-232632524D01*
X126590795Y-232646256D01*
X126704063Y-232815774D01*
X126848226Y-232959937D01*
X127017744Y-233073205D01*
X127206102Y-233151226D01*
X127406061Y-233191000D01*
X127609939Y-233191000D01*
X127809898Y-233151226D01*
X127998256Y-233073205D01*
X128167774Y-232959937D01*
X128311937Y-232815774D01*
X128425205Y-232646256D01*
X128503226Y-232457898D01*
X128543000Y-232257939D01*
X128543000Y-232198630D01*
X131106631Y-229635000D01*
X131165939Y-229635000D01*
X131365898Y-229595226D01*
X131554256Y-229517205D01*
X131723774Y-229403937D01*
X131867937Y-229259774D01*
X131981205Y-229090256D01*
X132059226Y-228901898D01*
X132099000Y-228701939D01*
X132099000Y-228498061D01*
X132059226Y-228298102D01*
X131981205Y-228109744D01*
X131867937Y-227940226D01*
X131765711Y-227838000D01*
X131867937Y-227735774D01*
X131981205Y-227566256D01*
X132059226Y-227377898D01*
X132099000Y-227177939D01*
X132099000Y-226974061D01*
X132059226Y-226774102D01*
X131981205Y-226585744D01*
X131964283Y-226560418D01*
X131975131Y-226544182D01*
X132053152Y-226355824D01*
X132092926Y-226155865D01*
X132092926Y-225951987D01*
X132053152Y-225752028D01*
X131975131Y-225563670D01*
X131861863Y-225394152D01*
X131717700Y-225249989D01*
X131548182Y-225136721D01*
X131359824Y-225058700D01*
X131276415Y-225042109D01*
X131259824Y-224958700D01*
X131181803Y-224770342D01*
X131068535Y-224600824D01*
X130924372Y-224456661D01*
X130754854Y-224343393D01*
X130566496Y-224265372D01*
X130540414Y-224260184D01*
X130535226Y-224234102D01*
X130457205Y-224045744D01*
X130343937Y-223876226D01*
X130199774Y-223732063D01*
X130030256Y-223618795D01*
X129841898Y-223540774D01*
X129641939Y-223501000D01*
X129438061Y-223501000D01*
X129238102Y-223540774D01*
X129049744Y-223618795D01*
X128880226Y-223732063D01*
X128736063Y-223876226D01*
X128622795Y-224045744D01*
X128544774Y-224234102D01*
X128505000Y-224434061D01*
X128505000Y-224637939D01*
X128542938Y-224828666D01*
X127796999Y-225574604D01*
X127796999Y-222224710D01*
X127838936Y-222182773D01*
X127952204Y-222013255D01*
X128030225Y-221824897D01*
X128069999Y-221624938D01*
X128069999Y-221421060D01*
X128030225Y-221221101D01*
X127952204Y-221032743D01*
X127848850Y-220878061D01*
X131568987Y-220878061D01*
X131568987Y-221081939D01*
X131608761Y-221281898D01*
X131686782Y-221470256D01*
X131800050Y-221639774D01*
X131944213Y-221783937D01*
X132113731Y-221897205D01*
X132302089Y-221975226D01*
X132502048Y-222015000D01*
X132705926Y-222015000D01*
X132905885Y-221975226D01*
X133094243Y-221897205D01*
X133103994Y-221890690D01*
X133113744Y-221897205D01*
X133302102Y-221975226D01*
X133502061Y-222015000D01*
X133705939Y-222015000D01*
X133724835Y-222011241D01*
X133816063Y-222147774D01*
X133960226Y-222291937D01*
X134129744Y-222405205D01*
X134318102Y-222483226D01*
X134518061Y-222523000D01*
X134721939Y-222523000D01*
X134921898Y-222483226D01*
X135110256Y-222405205D01*
X135279774Y-222291937D01*
X135423937Y-222147774D01*
X135537205Y-221978256D01*
X135615226Y-221789898D01*
X135655000Y-221589939D01*
X135655000Y-221386061D01*
X135615226Y-221186102D01*
X135537205Y-220997744D01*
X135507052Y-220952616D01*
X136339293Y-220120375D01*
X136427294Y-220285014D01*
X136612866Y-220511134D01*
X136838986Y-220696706D01*
X137096966Y-220834599D01*
X137376889Y-220919513D01*
X137595050Y-220941000D01*
X137740950Y-220941000D01*
X137959111Y-220919513D01*
X138239034Y-220834599D01*
X138497014Y-220696706D01*
X138723134Y-220511134D01*
X138747607Y-220481313D01*
X138768498Y-220550180D01*
X138827463Y-220660494D01*
X138906815Y-220757185D01*
X139003506Y-220836537D01*
X139113820Y-220895502D01*
X139233518Y-220931812D01*
X139358000Y-220944072D01*
X141058000Y-220944072D01*
X141182482Y-220931812D01*
X141302180Y-220895502D01*
X141412494Y-220836537D01*
X141509185Y-220757185D01*
X141588537Y-220660494D01*
X141647502Y-220550180D01*
X141683812Y-220430482D01*
X141696072Y-220306000D01*
X141696072Y-218606000D01*
X141683812Y-218481518D01*
X141647502Y-218361820D01*
X141588537Y-218251506D01*
X141509185Y-218154815D01*
X141412494Y-218075463D01*
X141302180Y-218016498D01*
X141233313Y-217995607D01*
X141263134Y-217971134D01*
X141448706Y-217745014D01*
X141586599Y-217487034D01*
X141671513Y-217207111D01*
X141700185Y-216916000D01*
X141671513Y-216624889D01*
X141586599Y-216344966D01*
X141448706Y-216086986D01*
X141263134Y-215860866D01*
X141037014Y-215675294D01*
X140982209Y-215646000D01*
X141037014Y-215616706D01*
X141263134Y-215431134D01*
X141448706Y-215205014D01*
X141586599Y-214947034D01*
X141671513Y-214667111D01*
X141700185Y-214376000D01*
X141671513Y-214084889D01*
X141586599Y-213804966D01*
X141448706Y-213546986D01*
X141263134Y-213320866D01*
X141037014Y-213135294D01*
X140779034Y-212997401D01*
X140499111Y-212912487D01*
X140280950Y-212891000D01*
X140135050Y-212891000D01*
X139916889Y-212912487D01*
X139636966Y-212997401D01*
X139378986Y-213135294D01*
X139152866Y-213320866D01*
X138967294Y-213546986D01*
X138938000Y-213601791D01*
X138908706Y-213546986D01*
X138723134Y-213320866D01*
X138497014Y-213135294D01*
X138239034Y-212997401D01*
X137959111Y-212912487D01*
X137740950Y-212891000D01*
X137595050Y-212891000D01*
X137376889Y-212912487D01*
X137096966Y-212997401D01*
X136838986Y-213135294D01*
X136612866Y-213320866D01*
X136427294Y-213546986D01*
X136289401Y-213804966D01*
X136204487Y-214084889D01*
X136175815Y-214376000D01*
X136204487Y-214667111D01*
X136289401Y-214947034D01*
X136427294Y-215205014D01*
X136486838Y-215277569D01*
X132314820Y-219449588D01*
X132285744Y-219473450D01*
X132230149Y-219541194D01*
X132190521Y-219589480D01*
X132181423Y-219606502D01*
X132119764Y-219721858D01*
X132076192Y-219865495D01*
X132068525Y-219943345D01*
X132061480Y-220014872D01*
X132065166Y-220052295D01*
X132065166Y-220095245D01*
X131944213Y-220176063D01*
X131800050Y-220320226D01*
X131686782Y-220489744D01*
X131608761Y-220678102D01*
X131568987Y-220878061D01*
X127848850Y-220878061D01*
X127838936Y-220863225D01*
X127694773Y-220719062D01*
X127525255Y-220605794D01*
X127336897Y-220527773D01*
X127136938Y-220487999D01*
X126933060Y-220487999D01*
X126733101Y-220527773D01*
X126544743Y-220605794D01*
X126375225Y-220719062D01*
X126231062Y-220863225D01*
X126117794Y-221032743D01*
X126039773Y-221221101D01*
X125999999Y-221421060D01*
X125999999Y-221624938D01*
X126039773Y-221824897D01*
X126117794Y-222013255D01*
X126231062Y-222182773D01*
X126272999Y-222224710D01*
X126273000Y-225709369D01*
X124417370Y-227565000D01*
X124358061Y-227565000D01*
X124158102Y-227604774D01*
X123969744Y-227682795D01*
X123800226Y-227796063D01*
X123656063Y-227940226D01*
X123542795Y-228109744D01*
X123464774Y-228298102D01*
X123425000Y-228498061D01*
X123425000Y-228701939D01*
X123464774Y-228901898D01*
X123542795Y-229090256D01*
X123653361Y-229255730D01*
X122612284Y-228214654D01*
X122588422Y-228185578D01*
X122472392Y-228090355D01*
X122340015Y-228019598D01*
X122196378Y-227976026D01*
X122084426Y-227965000D01*
X122084423Y-227965000D01*
X122047000Y-227961314D01*
X122009577Y-227965000D01*
X120876360Y-227965000D01*
X120882072Y-227907000D01*
X120882072Y-227007000D01*
X120869812Y-226882518D01*
X120851454Y-226822000D01*
X120869812Y-226761482D01*
X120882072Y-226637000D01*
X120882072Y-225737000D01*
X120869812Y-225612518D01*
X120851454Y-225552000D01*
X120869812Y-225491482D01*
X120882072Y-225367000D01*
X120882072Y-224467000D01*
X120869812Y-224342518D01*
X120861920Y-224316502D01*
X120923392Y-224283645D01*
X121039422Y-224188422D01*
X121063284Y-224159346D01*
X122432346Y-222790284D01*
X122461422Y-222766422D01*
X122543456Y-222666463D01*
X122556645Y-222650393D01*
X122598980Y-222571188D01*
X122627402Y-222518015D01*
X122670974Y-222374378D01*
X122682000Y-222262426D01*
X122682000Y-222262423D01*
X122685686Y-222225000D01*
X122682000Y-222187577D01*
X122682000Y-215937422D01*
X122685686Y-215899999D01*
X122681950Y-215862064D01*
X122670974Y-215750622D01*
X122627402Y-215606985D01*
X122556645Y-215474608D01*
X122461422Y-215358578D01*
X122432353Y-215334722D01*
X112014000Y-204916370D01*
X112014000Y-190488753D01*
X112166061Y-190519000D01*
X112369939Y-190519000D01*
X112569898Y-190479226D01*
X112758256Y-190401205D01*
X112927774Y-190287937D01*
X112969711Y-190246000D01*
X124774289Y-190246000D01*
X124816226Y-190287937D01*
X124985744Y-190401205D01*
X125174102Y-190479226D01*
X125374061Y-190519000D01*
X125577939Y-190519000D01*
X125777898Y-190479226D01*
X125966256Y-190401205D01*
X126135774Y-190287937D01*
X126273000Y-190150711D01*
X126273000Y-208121287D01*
X126231062Y-208163225D01*
X126117794Y-208332743D01*
X126039773Y-208521101D01*
X125999999Y-208721060D01*
X125999999Y-208924938D01*
X126039773Y-209124897D01*
X126117794Y-209313255D01*
X126231062Y-209482773D01*
X126375225Y-209626936D01*
X126544743Y-209740204D01*
X126733101Y-209818225D01*
X126933060Y-209857999D01*
X127136938Y-209857999D01*
X127336897Y-209818225D01*
X127525255Y-209740204D01*
X127694773Y-209626936D01*
X127838936Y-209482773D01*
X127952204Y-209313255D01*
X128030225Y-209124897D01*
X128069999Y-208924938D01*
X128069999Y-208721060D01*
X128030225Y-208521101D01*
X127952204Y-208332743D01*
X127838936Y-208163225D01*
X127796999Y-208121288D01*
X127796999Y-111525000D01*
X127863939Y-111525000D01*
X128063898Y-111485226D01*
X128252256Y-111407205D01*
X128421774Y-111293937D01*
X128463711Y-111252000D01*
X175574289Y-111252000D01*
X175616226Y-111293937D01*
X175785744Y-111407205D01*
X175974102Y-111485226D01*
X176174061Y-111525000D01*
X176241002Y-111525000D01*
X176241003Y-226541366D01*
X175217370Y-227565000D01*
X175158061Y-227565000D01*
X174958102Y-227604774D01*
X174769744Y-227682795D01*
X174600226Y-227796063D01*
X174456063Y-227940226D01*
X174342795Y-228109744D01*
X174264774Y-228298102D01*
X174225000Y-228498061D01*
X174225000Y-228701939D01*
X174264774Y-228901898D01*
X174342795Y-229090256D01*
X174456063Y-229259774D01*
X174600226Y-229403937D01*
X174769744Y-229517205D01*
X174958102Y-229595226D01*
X175158061Y-229635000D01*
X175361939Y-229635000D01*
X175561898Y-229595226D01*
X175750256Y-229517205D01*
X175919774Y-229403937D01*
X176063937Y-229259774D01*
X176177205Y-229090256D01*
X176255226Y-228901898D01*
X176295000Y-228701939D01*
X176295000Y-228642630D01*
X177515354Y-227422277D01*
X177544424Y-227398420D01*
X177639647Y-227282390D01*
X177710404Y-227150013D01*
X177753976Y-227006376D01*
X177765002Y-226894424D01*
X177765002Y-226894422D01*
X177768688Y-226856999D01*
X177765002Y-226819576D01*
X177765002Y-111525000D01*
X177901939Y-111525000D01*
X178101898Y-111485226D01*
X178290256Y-111407205D01*
X178459774Y-111293937D01*
X178501711Y-111252000D01*
X227644289Y-111252000D01*
X227686226Y-111293937D01*
X227855744Y-111407205D01*
X228044102Y-111485226D01*
X228244061Y-111525000D01*
X228447939Y-111525000D01*
X228647898Y-111485226D01*
X228836256Y-111407205D01*
X228854001Y-111395349D01*
X228854001Y-193606300D01*
X200147654Y-222312648D01*
X200118578Y-222336510D01*
X200064782Y-222402061D01*
X200023355Y-222452540D01*
X199988358Y-222518015D01*
X199952598Y-222584918D01*
X199909026Y-222728555D01*
X199898000Y-222840506D01*
X199894314Y-222877932D01*
X199898000Y-222915355D01*
X199898001Y-227898288D01*
X199856063Y-227940226D01*
X199742795Y-228109744D01*
X199664774Y-228298102D01*
X199625000Y-228498061D01*
X199625000Y-228701939D01*
X199664774Y-228901898D01*
X199742795Y-229090256D01*
X199856063Y-229259774D01*
X200000226Y-229403937D01*
X200169744Y-229517205D01*
X200358102Y-229595226D01*
X200558061Y-229635000D01*
X200761939Y-229635000D01*
X200961898Y-229595226D01*
X201150256Y-229517205D01*
X201319774Y-229403937D01*
X201463937Y-229259774D01*
X201577205Y-229090256D01*
X201655226Y-228901898D01*
X201695000Y-228701939D01*
X201695000Y-228498061D01*
X201655226Y-228298102D01*
X201577205Y-228109744D01*
X201463937Y-227940226D01*
X201422000Y-227898289D01*
X201422000Y-223193562D01*
X230128352Y-194487211D01*
X230157422Y-194463354D01*
X230184772Y-194430028D01*
X230252645Y-194347325D01*
X230323401Y-194214948D01*
X230323402Y-194214947D01*
X230366974Y-194071310D01*
X230378000Y-193959358D01*
X230378000Y-193959355D01*
X230381686Y-193921932D01*
X230378000Y-193884509D01*
X230378000Y-24577711D01*
X230419937Y-24535774D01*
X230533205Y-24366256D01*
X230611226Y-24177898D01*
X230651000Y-23977939D01*
X230651000Y-23774061D01*
X230611226Y-23574102D01*
X230533205Y-23385744D01*
X230419937Y-23216226D01*
X230275774Y-23072063D01*
X230106256Y-22958795D01*
X229917898Y-22880774D01*
X229717939Y-22841000D01*
X229514061Y-22841000D01*
X229314102Y-22880774D01*
X229125744Y-22958795D01*
X228956226Y-23072063D01*
X228812063Y-23216226D01*
X228698795Y-23385744D01*
X228620774Y-23574102D01*
X228581000Y-23774061D01*
X228581000Y-23977939D01*
X228620774Y-24177898D01*
X228698795Y-24366256D01*
X228812063Y-24535774D01*
X228854000Y-24577711D01*
X228854000Y-107552651D01*
X228836256Y-107540795D01*
X228647898Y-107462774D01*
X228447939Y-107423000D01*
X228244061Y-107423000D01*
X228044102Y-107462774D01*
X227855744Y-107540795D01*
X227686226Y-107654063D01*
X227644289Y-107696000D01*
X178501711Y-107696000D01*
X178459774Y-107654063D01*
X178290256Y-107540795D01*
X178101898Y-107462774D01*
X177901939Y-107423000D01*
X177765002Y-107423000D01*
X177765002Y-51404628D01*
X204258631Y-24911000D01*
X204317939Y-24911000D01*
X204517898Y-24871226D01*
X204706256Y-24793205D01*
X204875774Y-24679937D01*
X205019937Y-24535774D01*
X205133205Y-24366256D01*
X205211226Y-24177898D01*
X205251000Y-23977939D01*
X205251000Y-23774061D01*
X205211226Y-23574102D01*
X205133205Y-23385744D01*
X205019937Y-23216226D01*
X204875774Y-23072063D01*
X204706256Y-22958795D01*
X204517898Y-22880774D01*
X204317939Y-22841000D01*
X204114061Y-22841000D01*
X203914102Y-22880774D01*
X203725744Y-22958795D01*
X203556226Y-23072063D01*
X203412063Y-23216226D01*
X203298795Y-23385744D01*
X203220774Y-23574102D01*
X203181000Y-23774061D01*
X203181000Y-23833369D01*
X176490656Y-50523714D01*
X176461580Y-50547576D01*
X176405985Y-50615320D01*
X176366357Y-50663606D01*
X176328537Y-50734363D01*
X176295600Y-50795984D01*
X176252028Y-50939621D01*
X176245296Y-51007974D01*
X176237316Y-51088998D01*
X176241002Y-51126421D01*
X176241002Y-107423000D01*
X176174061Y-107423000D01*
X175974102Y-107462774D01*
X175785744Y-107540795D01*
X175616226Y-107654063D01*
X175558302Y-107711987D01*
X128463711Y-107711987D01*
X128421774Y-107670050D01*
X128252256Y-107556782D01*
X128063898Y-107478761D01*
X127863939Y-107438987D01*
X127796999Y-107438987D01*
X127796999Y-50572631D01*
X153458631Y-24911000D01*
X153517939Y-24911000D01*
X153717898Y-24871226D01*
X153906256Y-24793205D01*
X154075774Y-24679937D01*
X154219937Y-24535774D01*
X154333205Y-24366256D01*
X154411226Y-24177898D01*
X154451000Y-23977939D01*
X154451000Y-23774061D01*
X154411226Y-23574102D01*
X154333205Y-23385744D01*
X154219937Y-23216226D01*
X154075774Y-23072063D01*
X153906256Y-22958795D01*
X153717898Y-22880774D01*
X153517939Y-22841000D01*
X153314061Y-22841000D01*
X153114102Y-22880774D01*
X152925744Y-22958795D01*
X152756226Y-23072063D01*
X152612063Y-23216226D01*
X152498795Y-23385744D01*
X152420774Y-23574102D01*
X152381000Y-23774061D01*
X152381000Y-23833369D01*
X126522653Y-49691717D01*
X126493577Y-49715579D01*
X126437982Y-49783323D01*
X126398354Y-49831609D01*
X126360534Y-49902366D01*
X126327597Y-49963987D01*
X126284025Y-50107624D01*
X126272999Y-50219575D01*
X126269313Y-50257001D01*
X126272999Y-50294424D01*
X126272999Y-107592024D01*
X126220256Y-107556782D01*
X126031898Y-107478761D01*
X125831939Y-107438987D01*
X125628061Y-107438987D01*
X125428102Y-107478761D01*
X125239744Y-107556782D01*
X125070226Y-107670050D01*
X125028289Y-107711987D01*
X120165832Y-107711987D01*
X119989939Y-107677000D01*
X119786061Y-107677000D01*
X119586102Y-107716774D01*
X119397744Y-107794795D01*
X119228226Y-107908063D01*
X119084063Y-108052226D01*
X118970795Y-108221744D01*
X118892774Y-108410102D01*
X118853000Y-108610061D01*
X118853000Y-108813939D01*
X118892774Y-109013898D01*
X118970795Y-109202256D01*
X118982651Y-109220000D01*
X118970795Y-109237744D01*
X118892774Y-109426102D01*
X118853000Y-109626061D01*
X118853000Y-109829939D01*
X118892774Y-110029898D01*
X118970795Y-110218256D01*
X119084063Y-110387774D01*
X119186289Y-110490000D01*
X119084063Y-110592226D01*
X118970795Y-110761744D01*
X118892774Y-110950102D01*
X118853000Y-111150061D01*
X118853000Y-111353939D01*
X118892774Y-111553898D01*
X118970795Y-111742256D01*
X119084063Y-111911774D01*
X119228226Y-112055937D01*
X119397744Y-112169205D01*
X119586102Y-112247226D01*
X119786061Y-112287000D01*
X119989939Y-112287000D01*
X120189898Y-112247226D01*
X120378256Y-112169205D01*
X120547774Y-112055937D01*
X120589711Y-112014000D01*
X124930577Y-112014000D01*
X124968000Y-112017686D01*
X125005423Y-112014000D01*
X125005426Y-112014000D01*
X125117378Y-112002974D01*
X125261015Y-111959402D01*
X125393392Y-111888645D01*
X125509422Y-111793422D01*
X125533284Y-111764345D01*
X125772629Y-111525000D01*
X125831939Y-111525000D01*
X126031898Y-111485226D01*
X126220256Y-111407205D01*
X126272999Y-111371963D01*
X126273000Y-187801289D01*
X126135774Y-187664063D01*
X125966256Y-187550795D01*
X125777898Y-187472774D01*
X125577939Y-187433000D01*
X125374061Y-187433000D01*
X125174102Y-187472774D01*
X124985744Y-187550795D01*
X124816226Y-187664063D01*
X124774289Y-187706000D01*
X122743630Y-187706000D01*
X122739284Y-187701654D01*
X122715422Y-187672578D01*
X122599392Y-187577355D01*
X122467015Y-187506598D01*
X122323378Y-187463026D01*
X122211426Y-187452000D01*
X122211423Y-187452000D01*
X122174000Y-187448314D01*
X122136577Y-187452000D01*
X112969711Y-187452000D01*
X112927774Y-187410063D01*
X112758256Y-187296795D01*
X112569898Y-187218774D01*
X112369939Y-187179000D01*
X112166061Y-187179000D01*
X112014000Y-187209247D01*
X112014000Y-111953711D01*
X112055937Y-111911774D01*
X112169205Y-111742256D01*
X112247226Y-111553898D01*
X112287000Y-111353939D01*
X112287000Y-111150061D01*
X112247226Y-110950102D01*
X112169205Y-110761744D01*
X112055937Y-110592226D01*
X112014000Y-110550289D01*
X112014000Y-44897711D01*
X112055937Y-44855774D01*
X112169205Y-44686256D01*
X112247226Y-44497898D01*
X112287000Y-44297939D01*
X112287000Y-44094061D01*
X117329000Y-44094061D01*
X117329000Y-44297939D01*
X117368774Y-44497898D01*
X117446795Y-44686256D01*
X117560063Y-44855774D01*
X117704226Y-44999937D01*
X117873744Y-45113205D01*
X118062102Y-45191226D01*
X118262061Y-45231000D01*
X118465939Y-45231000D01*
X118665898Y-45191226D01*
X118854256Y-45113205D01*
X119023774Y-44999937D01*
X119167937Y-44855774D01*
X119281205Y-44686256D01*
X119359226Y-44497898D01*
X119399000Y-44297939D01*
X119399000Y-44238630D01*
X148651631Y-14986000D01*
X171896370Y-14986000D01*
X178797000Y-21886631D01*
X178797000Y-21945939D01*
X178836774Y-22145898D01*
X178914795Y-22334256D01*
X179028063Y-22503774D01*
X179172226Y-22647937D01*
X179341744Y-22761205D01*
X179530102Y-22839226D01*
X179730061Y-22879000D01*
X179933939Y-22879000D01*
X180133898Y-22839226D01*
X180322256Y-22761205D01*
X180491774Y-22647937D01*
X180635937Y-22503774D01*
X180749205Y-22334256D01*
X180827226Y-22145898D01*
X180867000Y-21945939D01*
X180867000Y-21742061D01*
X180827226Y-21542102D01*
X180749205Y-21353744D01*
X180635937Y-21184226D01*
X180491774Y-21040063D01*
X180322256Y-20926795D01*
X180133898Y-20848774D01*
X179933939Y-20809000D01*
X179874631Y-20809000D01*
X172777284Y-13711654D01*
X172753422Y-13682578D01*
X172637392Y-13587355D01*
X172505015Y-13516598D01*
X172361378Y-13473026D01*
X172249426Y-13462000D01*
X172249423Y-13462000D01*
X172212000Y-13458314D01*
X172174577Y-13462000D01*
X148373423Y-13462000D01*
X148336000Y-13458314D01*
X148298577Y-13462000D01*
X148298574Y-13462000D01*
X148186622Y-13473026D01*
X148042985Y-13516598D01*
X147981364Y-13549535D01*
X147910607Y-13587355D01*
X147827904Y-13655228D01*
X147794578Y-13682578D01*
X147770721Y-13711648D01*
X118321370Y-43161000D01*
X118262061Y-43161000D01*
X118062102Y-43200774D01*
X117873744Y-43278795D01*
X117704226Y-43392063D01*
X117560063Y-43536226D01*
X117446795Y-43705744D01*
X117368774Y-43894102D01*
X117329000Y-44094061D01*
X112287000Y-44094061D01*
X112247226Y-43894102D01*
X112169205Y-43705744D01*
X112055937Y-43536226D01*
X111911774Y-43392063D01*
X111742256Y-43278795D01*
X111553898Y-43200774D01*
X111353939Y-43161000D01*
X111150061Y-43161000D01*
X110950102Y-43200774D01*
X110761744Y-43278795D01*
X110744000Y-43290651D01*
X110726256Y-43278795D01*
X110537898Y-43200774D01*
X110337939Y-43161000D01*
X110134061Y-43161000D01*
X109934102Y-43200774D01*
X109745744Y-43278795D01*
X109729508Y-43289643D01*
X109704182Y-43272721D01*
X109699040Y-43270591D01*
X114992279Y-37977352D01*
X114992284Y-37977346D01*
X128058631Y-24911000D01*
X128117939Y-24911000D01*
X128317898Y-24871226D01*
X128506256Y-24793205D01*
X128675774Y-24679937D01*
X128819937Y-24535774D01*
X128933205Y-24366256D01*
X129011226Y-24177898D01*
X129051000Y-23977939D01*
X129051000Y-23774061D01*
X129011226Y-23574102D01*
X128933205Y-23385744D01*
X128819937Y-23216226D01*
X128675774Y-23072063D01*
X128506256Y-22958795D01*
X128317898Y-22880774D01*
X128117939Y-22841000D01*
X127914061Y-22841000D01*
X127714102Y-22880774D01*
X127525744Y-22958795D01*
X127356226Y-23072063D01*
X127212063Y-23216226D01*
X127098795Y-23385744D01*
X127020774Y-23574102D01*
X126981000Y-23774061D01*
X126981000Y-23833369D01*
X113914654Y-36899716D01*
X113914648Y-36899721D01*
X98547654Y-52266716D01*
X98518578Y-52290578D01*
X98462983Y-52358322D01*
X98423355Y-52406608D01*
X98385535Y-52477365D01*
X98352598Y-52538986D01*
X98309026Y-52682623D01*
X98298000Y-52794574D01*
X98294314Y-52832000D01*
X98298000Y-52869423D01*
X98298001Y-187179000D01*
X98196061Y-187179000D01*
X97996102Y-187218774D01*
X97807744Y-187296795D01*
X97638226Y-187410063D01*
X97596289Y-187452000D01*
X97089631Y-187452000D01*
X83392630Y-173755000D01*
X83413939Y-173755000D01*
X83613898Y-173715226D01*
X83802256Y-173637205D01*
X83971774Y-173523937D01*
X84013711Y-173482000D01*
X84798577Y-173482000D01*
X84836000Y-173485686D01*
X84873423Y-173482000D01*
X84873426Y-173482000D01*
X84985378Y-173470974D01*
X85129015Y-173427402D01*
X85261392Y-173356645D01*
X85377422Y-173261422D01*
X85401284Y-173232346D01*
X90936353Y-167697278D01*
X90965422Y-167673422D01*
X91060645Y-167557392D01*
X91131402Y-167425015D01*
X91174974Y-167281378D01*
X91186000Y-167169426D01*
X91186000Y-167169424D01*
X91189686Y-167132001D01*
X91186000Y-167094578D01*
X91186000Y-54163630D01*
X98105631Y-47244000D01*
X102832577Y-47244000D01*
X102870000Y-47247686D01*
X102907423Y-47244000D01*
X102907426Y-47244000D01*
X103019378Y-47232974D01*
X103163015Y-47189402D01*
X103295392Y-47118645D01*
X103411422Y-47023422D01*
X103435284Y-46994346D01*
X118167279Y-32262352D01*
X118167283Y-32262347D01*
X119183279Y-31246352D01*
X119183284Y-31246346D01*
X119638347Y-30791283D01*
X119667422Y-30767422D01*
X119762645Y-30651392D01*
X119833402Y-30519015D01*
X119876974Y-30375378D01*
X119888000Y-30263426D01*
X119888000Y-30263417D01*
X119891685Y-30226001D01*
X119888000Y-30188585D01*
X119888000Y-25207630D01*
X122997631Y-22098000D01*
X125536289Y-22098000D01*
X125578226Y-22139937D01*
X125747744Y-22253205D01*
X125936102Y-22331226D01*
X126136061Y-22371000D01*
X126339939Y-22371000D01*
X126539898Y-22331226D01*
X126728256Y-22253205D01*
X126897774Y-22139937D01*
X127041937Y-21995774D01*
X127155205Y-21826256D01*
X127233226Y-21637898D01*
X127273000Y-21437939D01*
X127273000Y-21234061D01*
X127233226Y-21034102D01*
X127155205Y-20845744D01*
X127041937Y-20676226D01*
X126897774Y-20532063D01*
X126728256Y-20418795D01*
X126539898Y-20340774D01*
X126482619Y-20329381D01*
X126471226Y-20272102D01*
X126393205Y-20083744D01*
X126279937Y-19914226D01*
X126135774Y-19770063D01*
X125966256Y-19656795D01*
X125777898Y-19578774D01*
X125577939Y-19539000D01*
X125460974Y-19539000D01*
X125455226Y-19510102D01*
X125377205Y-19321744D01*
X125263937Y-19152226D01*
X125119774Y-19008063D01*
X124950256Y-18894795D01*
X124761898Y-18816774D01*
X124561939Y-18777000D01*
X124358061Y-18777000D01*
X124158102Y-18816774D01*
X123969744Y-18894795D01*
X123800226Y-19008063D01*
X123758289Y-19050000D01*
X122211422Y-19050000D01*
X122173999Y-19046314D01*
X122136576Y-19050000D01*
X122136574Y-19050000D01*
X122024622Y-19061026D01*
X121880985Y-19104598D01*
X121748608Y-19175355D01*
X121632578Y-19270578D01*
X121608721Y-19299648D01*
X117089649Y-23818721D01*
X117060579Y-23842578D01*
X117036722Y-23871648D01*
X117036721Y-23871649D01*
X116965355Y-23958608D01*
X116894599Y-24090985D01*
X116851027Y-24234622D01*
X116836314Y-24384000D01*
X116840001Y-24421433D01*
X116840000Y-29148369D01*
X101792370Y-44196000D01*
X97319422Y-44196000D01*
X97281999Y-44192314D01*
X97244576Y-44196000D01*
X97244574Y-44196000D01*
X97132622Y-44207026D01*
X96988985Y-44250598D01*
X96856608Y-44321355D01*
X96740578Y-44416578D01*
X96716721Y-44445648D01*
X88387649Y-52774721D01*
X88358579Y-52798578D01*
X88334722Y-52827648D01*
X88334721Y-52827649D01*
X88263355Y-52914608D01*
X88192599Y-53046985D01*
X88149027Y-53190622D01*
X88134314Y-53340000D01*
X88138001Y-53377433D01*
X88138000Y-160057425D01*
X88138001Y-160057435D01*
X88138000Y-162752370D01*
X81999370Y-168891000D01*
X81940061Y-168891000D01*
X81740102Y-168930774D01*
X81551744Y-169008795D01*
X81382226Y-169122063D01*
X81238063Y-169266226D01*
X81124795Y-169435744D01*
X81119107Y-169449476D01*
X58166000Y-146496370D01*
X58166000Y-142277422D01*
X58169686Y-142239999D01*
X58156651Y-142107654D01*
X58154974Y-142090622D01*
X58111402Y-141946985D01*
X58040645Y-141814608D01*
X57945422Y-141698578D01*
X57916352Y-141674721D01*
X50349284Y-134107654D01*
X50325422Y-134078578D01*
X50209392Y-133983355D01*
X50077015Y-133912598D01*
X49933378Y-133869026D01*
X49821426Y-133858000D01*
X49821423Y-133858000D01*
X49784000Y-133854314D01*
X49746577Y-133858000D01*
X48199711Y-133858000D01*
X48157774Y-133816063D01*
X47988256Y-133702795D01*
X47799898Y-133624774D01*
X47599939Y-133585000D01*
X47532998Y-133585000D01*
X47532998Y-54636632D01*
X77258631Y-24911000D01*
X77317939Y-24911000D01*
X77517898Y-24871226D01*
X77706256Y-24793205D01*
X77875774Y-24679937D01*
X78019937Y-24535774D01*
X78133205Y-24366256D01*
X78211226Y-24177898D01*
X78251000Y-23977939D01*
X78251000Y-23774061D01*
X78211226Y-23574102D01*
X78133205Y-23385744D01*
X78019937Y-23216226D01*
X77875774Y-23072063D01*
X77706256Y-22958795D01*
X77517898Y-22880774D01*
X77317939Y-22841000D01*
X77114061Y-22841000D01*
X76914102Y-22880774D01*
X76725744Y-22958795D01*
X76556226Y-23072063D01*
X76412063Y-23216226D01*
X76298795Y-23385744D01*
X76220774Y-23574102D01*
X76181000Y-23774061D01*
X76181000Y-23833369D01*
X46258652Y-53755718D01*
X46229576Y-53779580D01*
X46173981Y-53847324D01*
X46134353Y-53895610D01*
X46129185Y-53905279D01*
X46063596Y-54027988D01*
X46020024Y-54171625D01*
X46010001Y-54273392D01*
X46005312Y-54321002D01*
X46008998Y-54358425D01*
X46008999Y-227073565D01*
X46005312Y-227110998D01*
X46020025Y-227260376D01*
X46063597Y-227404013D01*
X46134353Y-227536390D01*
X46205173Y-227622684D01*
X46229577Y-227652420D01*
X46258647Y-227676277D01*
X47225000Y-228642631D01*
X47225000Y-228701939D01*
X47264774Y-228901898D01*
X47342795Y-229090256D01*
X47456063Y-229259774D01*
X47600226Y-229403937D01*
X47769744Y-229517205D01*
X47958102Y-229595226D01*
X48158061Y-229635000D01*
X48361939Y-229635000D01*
X48561898Y-229595226D01*
X48750256Y-229517205D01*
X48919774Y-229403937D01*
X49063937Y-229259774D01*
X49177205Y-229090256D01*
X49255226Y-228901898D01*
X49295000Y-228701939D01*
X49295000Y-228498061D01*
X49255226Y-228298102D01*
X49177205Y-228109744D01*
X49063937Y-227940226D01*
X48919774Y-227796063D01*
X48750256Y-227682795D01*
X48561898Y-227604774D01*
X48361939Y-227565000D01*
X48302631Y-227565000D01*
X47532998Y-226795368D01*
X47532998Y-137687000D01*
X47599939Y-137687000D01*
X47799898Y-137647226D01*
X47988256Y-137569205D01*
X48157774Y-137455937D01*
X48199711Y-137414000D01*
X48960370Y-137414000D01*
X54864001Y-143317632D01*
X54864000Y-144563425D01*
X54864001Y-144563435D01*
X54864000Y-148552577D01*
X54860314Y-148590000D01*
X54864000Y-148627423D01*
X54864000Y-148627425D01*
X54875026Y-148739377D01*
X54918598Y-148883014D01*
X54918599Y-148883015D01*
X54989355Y-149015392D01*
X55028983Y-149063678D01*
X55084578Y-149131422D01*
X55113654Y-149155284D01*
X57854721Y-151896351D01*
X78467000Y-172508631D01*
X78467000Y-172567939D01*
X78506774Y-172767898D01*
X78584795Y-172956256D01*
X78698063Y-173125774D01*
X78842226Y-173269937D01*
X79011744Y-173383205D01*
X79200102Y-173461226D01*
X79400061Y-173501000D01*
X79459370Y-173501000D01*
X95954721Y-189996352D01*
X95978578Y-190025422D01*
X96094608Y-190120645D01*
X96226985Y-190191402D01*
X96370622Y-190234974D01*
X96482574Y-190246000D01*
X96482576Y-190246000D01*
X96519999Y-190249686D01*
X96557422Y-190246000D01*
X97596289Y-190246000D01*
X97638226Y-190287937D01*
X97807744Y-190401205D01*
X97996102Y-190479226D01*
X98196061Y-190519000D01*
X98298001Y-190519000D01*
X98298001Y-227898288D01*
X98256063Y-227940226D01*
X98142795Y-228109744D01*
X98064774Y-228298102D01*
X98025000Y-228498061D01*
X98025000Y-228701939D01*
X98064774Y-228901898D01*
X98142795Y-229090256D01*
X98256063Y-229259774D01*
X98400226Y-229403937D01*
X98569744Y-229517205D01*
X98758102Y-229595226D01*
X98958061Y-229635000D01*
X99161939Y-229635000D01*
X99361898Y-229595226D01*
X99550256Y-229517205D01*
X99719774Y-229403937D01*
X99863937Y-229259774D01*
X99977205Y-229090256D01*
X100055226Y-228901898D01*
X100095000Y-228701939D01*
X100095000Y-228498061D01*
X100055226Y-228298102D01*
X99977205Y-228109744D01*
X99863937Y-227940226D01*
X99822000Y-227898289D01*
X99822000Y-53147630D01*
X108294591Y-44675040D01*
X108296721Y-44680182D01*
X108409989Y-44849700D01*
X108451927Y-44891638D01*
X108451926Y-108004215D01*
X108409989Y-108046152D01*
X108296721Y-108215670D01*
X108218700Y-108404028D01*
X108178926Y-108603987D01*
X108178926Y-108807865D01*
X108218700Y-109007824D01*
X108296721Y-109196182D01*
X108409989Y-109365700D01*
X108451927Y-109407638D01*
X108451926Y-205188503D01*
X108448240Y-205225926D01*
X108451926Y-205263349D01*
X108451926Y-205263351D01*
X108462952Y-205375303D01*
X108506524Y-205518940D01*
X108539461Y-205580561D01*
X108577281Y-205651318D01*
X108583653Y-205659082D01*
X108672504Y-205767348D01*
X108701580Y-205791210D01*
X119119297Y-216208928D01*
X118244000Y-216208928D01*
X118119518Y-216221188D01*
X117999820Y-216257498D01*
X117889506Y-216316463D01*
X117792815Y-216395815D01*
X117713463Y-216492506D01*
X117654498Y-216602820D01*
X117651063Y-216614144D01*
X117564608Y-216660355D01*
X117547072Y-216674746D01*
X117547072Y-215297000D01*
X117534812Y-215172518D01*
X117498502Y-215052820D01*
X117439537Y-214942506D01*
X117360185Y-214845815D01*
X117263494Y-214766463D01*
X117153180Y-214707498D01*
X117033482Y-214671188D01*
X116909000Y-214658928D01*
X116009000Y-214658928D01*
X115884518Y-214671188D01*
X115824000Y-214689546D01*
X115763482Y-214671188D01*
X115639000Y-214658928D01*
X114739000Y-214658928D01*
X114614518Y-214671188D01*
X114554000Y-214689546D01*
X114493482Y-214671188D01*
X114369000Y-214658928D01*
X113469000Y-214658928D01*
X113344518Y-214671188D01*
X113284000Y-214689546D01*
X113223482Y-214671188D01*
X113099000Y-214658928D01*
X112199000Y-214658928D01*
X112074518Y-214671188D01*
X112014000Y-214689546D01*
X111953482Y-214671188D01*
X111829000Y-214658928D01*
X110929000Y-214658928D01*
X110804518Y-214671188D01*
X110744000Y-214689546D01*
X110683482Y-214671188D01*
X110559000Y-214658928D01*
X109659000Y-214658928D01*
X109534518Y-214671188D01*
X109474000Y-214689546D01*
X109413482Y-214671188D01*
X109289000Y-214658928D01*
X108389000Y-214658928D01*
X108264518Y-214671188D01*
X108204000Y-214689546D01*
X108143482Y-214671188D01*
X108019000Y-214658928D01*
X107119000Y-214658928D01*
X106994518Y-214671188D01*
X106934000Y-214689546D01*
X106873482Y-214671188D01*
X106749000Y-214658928D01*
X106040256Y-214658928D01*
X106030298Y-214557829D01*
X105972202Y-214366313D01*
X105877860Y-214189810D01*
X105750896Y-214035104D01*
X105712127Y-214003287D01*
X105506046Y-213797206D01*
X105451937Y-213716226D01*
X105307774Y-213572063D01*
X105138256Y-213458795D01*
X104949898Y-213380774D01*
X104749939Y-213341000D01*
X104546061Y-213341000D01*
X104346102Y-213380774D01*
X104157744Y-213458795D01*
X103988226Y-213572063D01*
X103844063Y-213716226D01*
X103730795Y-213885744D01*
X103652774Y-214074102D01*
X103613000Y-214274061D01*
X103613000Y-214477939D01*
X103652774Y-214677898D01*
X103730795Y-214866256D01*
X103844063Y-215035774D01*
X103959616Y-215151327D01*
X103953188Y-215172518D01*
X103940928Y-215297000D01*
X103940928Y-217297000D01*
X103953188Y-217421482D01*
X103989498Y-217541180D01*
X104048463Y-217651494D01*
X104127815Y-217748185D01*
X104224506Y-217827537D01*
X104334820Y-217886502D01*
X104454518Y-217922812D01*
X104579000Y-217935072D01*
X105479000Y-217935072D01*
X105603482Y-217922812D01*
X105664000Y-217904454D01*
X105724518Y-217922812D01*
X105849000Y-217935072D01*
X106749000Y-217935072D01*
X106873482Y-217922812D01*
X106934000Y-217904454D01*
X106994518Y-217922812D01*
X107119000Y-217935072D01*
X108019000Y-217935072D01*
X108143482Y-217922812D01*
X108204000Y-217904454D01*
X108264518Y-217922812D01*
X108389000Y-217935072D01*
X109289000Y-217935072D01*
X109413482Y-217922812D01*
X109474000Y-217904454D01*
X109534518Y-217922812D01*
X109659000Y-217935072D01*
X110559000Y-217935072D01*
X110683482Y-217922812D01*
X110744000Y-217904454D01*
X110804518Y-217922812D01*
X110929000Y-217935072D01*
X111829000Y-217935072D01*
X111953482Y-217922812D01*
X112014000Y-217904454D01*
X112074518Y-217922812D01*
X112199000Y-217935072D01*
X113099000Y-217935072D01*
X113223482Y-217922812D01*
X113284000Y-217904454D01*
X113344518Y-217922812D01*
X113469000Y-217935072D01*
X114369000Y-217935072D01*
X114493482Y-217922812D01*
X114554000Y-217904454D01*
X114614518Y-217922812D01*
X114739000Y-217935072D01*
X115639000Y-217935072D01*
X115763482Y-217922812D01*
X115824000Y-217904454D01*
X115884518Y-217922812D01*
X116009000Y-217935072D01*
X116582701Y-217935072D01*
X116582314Y-217939000D01*
X116586000Y-217976423D01*
X116586001Y-233134565D01*
X116586000Y-233134575D01*
X116586000Y-233424334D01*
X113916320Y-230754654D01*
X113892458Y-230725578D01*
X113776428Y-230630355D01*
X113644051Y-230559598D01*
X113500414Y-230516026D01*
X113388462Y-230505000D01*
X113388459Y-230505000D01*
X113351036Y-230501314D01*
X113313613Y-230505000D01*
X103876360Y-230505000D01*
X103882072Y-230447000D01*
X103882072Y-229547000D01*
X103869812Y-229422518D01*
X103851454Y-229362000D01*
X103869812Y-229301482D01*
X103882072Y-229177000D01*
X103882072Y-228277000D01*
X103869812Y-228152518D01*
X103851454Y-228092000D01*
X103869812Y-228031482D01*
X103882072Y-227907000D01*
X103882072Y-227007000D01*
X103869812Y-226882518D01*
X103851454Y-226822000D01*
X103869812Y-226761482D01*
X103882072Y-226637000D01*
X103882072Y-225737000D01*
X103869812Y-225612518D01*
X103851454Y-225552000D01*
X103869812Y-225491482D01*
X103882072Y-225367000D01*
X103882072Y-224467000D01*
X103869812Y-224342518D01*
X103851454Y-224282000D01*
X103869812Y-224221482D01*
X103882072Y-224097000D01*
X103882072Y-223807000D01*
X106605928Y-223807000D01*
X106605928Y-228807000D01*
X106618188Y-228931482D01*
X106654498Y-229051180D01*
X106713463Y-229161494D01*
X106792815Y-229258185D01*
X106889506Y-229337537D01*
X106999820Y-229396502D01*
X107119518Y-229432812D01*
X107244000Y-229445072D01*
X112244000Y-229445072D01*
X112368482Y-229432812D01*
X112488180Y-229396502D01*
X112598494Y-229337537D01*
X112695185Y-229258185D01*
X112774537Y-229161494D01*
X112833502Y-229051180D01*
X112869812Y-228931482D01*
X112882072Y-228807000D01*
X112882072Y-223807000D01*
X112869812Y-223682518D01*
X112833502Y-223562820D01*
X112774537Y-223452506D01*
X112695185Y-223355815D01*
X112598494Y-223276463D01*
X112488180Y-223217498D01*
X112368482Y-223181188D01*
X112244000Y-223168928D01*
X107244000Y-223168928D01*
X107119518Y-223181188D01*
X106999820Y-223217498D01*
X106889506Y-223276463D01*
X106792815Y-223355815D01*
X106713463Y-223452506D01*
X106654498Y-223562820D01*
X106618188Y-223682518D01*
X106605928Y-223807000D01*
X103882072Y-223807000D01*
X103882072Y-223197000D01*
X103869812Y-223072518D01*
X103851454Y-223012000D01*
X103869812Y-222951482D01*
X103882072Y-222827000D01*
X103882072Y-221927000D01*
X103869812Y-221802518D01*
X103851454Y-221742000D01*
X103869812Y-221681482D01*
X103882072Y-221557000D01*
X103882072Y-220657000D01*
X103869812Y-220532518D01*
X103851454Y-220472000D01*
X103869812Y-220411482D01*
X103882072Y-220287000D01*
X103882072Y-219387000D01*
X103869812Y-219262518D01*
X103851454Y-219202000D01*
X103869812Y-219141482D01*
X103882072Y-219017000D01*
X103882072Y-218117000D01*
X103869812Y-217992518D01*
X103851454Y-217932000D01*
X103869812Y-217871482D01*
X103882072Y-217747000D01*
X103882072Y-216847000D01*
X103869812Y-216722518D01*
X103833502Y-216602820D01*
X103774537Y-216492506D01*
X103695185Y-216395815D01*
X103598494Y-216316463D01*
X103488180Y-216257498D01*
X103368482Y-216221188D01*
X103244000Y-216208928D01*
X101244000Y-216208928D01*
X101119518Y-216221188D01*
X100999820Y-216257498D01*
X100889506Y-216316463D01*
X100792815Y-216395815D01*
X100713463Y-216492506D01*
X100654498Y-216602820D01*
X100618188Y-216722518D01*
X100605928Y-216847000D01*
X100605928Y-217747000D01*
X100618188Y-217871482D01*
X100636546Y-217932000D01*
X100618188Y-217992518D01*
X100605928Y-218117000D01*
X100605928Y-219017000D01*
X100618188Y-219141482D01*
X100636546Y-219202000D01*
X100618188Y-219262518D01*
X100605928Y-219387000D01*
X100605928Y-220287000D01*
X100618188Y-220411482D01*
X100636546Y-220472000D01*
X100618188Y-220532518D01*
X100605928Y-220657000D01*
X100605928Y-221557000D01*
X100618188Y-221681482D01*
X100636546Y-221742000D01*
X100618188Y-221802518D01*
X100605928Y-221927000D01*
X100605928Y-222827000D01*
X100618188Y-222951482D01*
X100636546Y-223012000D01*
X100618188Y-223072518D01*
X100605928Y-223197000D01*
X100605928Y-224097000D01*
X100618188Y-224221482D01*
X100636546Y-224282000D01*
X100618188Y-224342518D01*
X100605928Y-224467000D01*
X100605928Y-225367000D01*
X100618188Y-225491482D01*
X100636546Y-225552000D01*
X100618188Y-225612518D01*
X100605928Y-225737000D01*
X100605928Y-226637000D01*
X100618188Y-226761482D01*
X100636546Y-226822000D01*
X100618188Y-226882518D01*
X100605928Y-227007000D01*
X100605928Y-227907000D01*
X100618188Y-228031482D01*
X100636546Y-228092000D01*
X100618188Y-228152518D01*
X100605928Y-228277000D01*
X100605928Y-229177000D01*
X100618188Y-229301482D01*
X100636546Y-229362000D01*
X100618188Y-229422518D01*
X100605928Y-229547000D01*
X100605928Y-230447000D01*
X100618188Y-230571482D01*
X100636546Y-230632000D01*
X100618188Y-230692518D01*
X100605928Y-230817000D01*
X100605928Y-231521000D01*
X97352459Y-231521000D01*
X97256939Y-231502000D01*
X97053061Y-231502000D01*
X96957541Y-231521000D01*
X95797841Y-231521000D01*
X88392000Y-224115160D01*
X88392000Y-222701459D01*
X88411000Y-222605939D01*
X88411000Y-222402061D01*
X88371226Y-222202102D01*
X88293205Y-222013744D01*
X88179937Y-221844226D01*
X88035774Y-221700063D01*
X87866256Y-221586795D01*
X87677898Y-221508774D01*
X87477939Y-221469000D01*
X87274061Y-221469000D01*
X87074102Y-221508774D01*
X86885744Y-221586795D01*
X86716226Y-221700063D01*
X86572063Y-221844226D01*
X86458795Y-222013744D01*
X86380774Y-222202102D01*
X86341000Y-222402061D01*
X86341000Y-222605939D01*
X86360000Y-222701460D01*
X86360001Y-224486089D01*
X86355085Y-224536000D01*
X86374702Y-224735170D01*
X86403170Y-224829015D01*
X86432799Y-224926687D01*
X86527141Y-225103190D01*
X86654105Y-225257896D01*
X86692868Y-225289708D01*
X94623292Y-233220133D01*
X94655104Y-233258896D01*
X94809810Y-233385860D01*
X94937676Y-233454205D01*
X94986313Y-233480202D01*
X95177829Y-233538298D01*
X95377000Y-233557915D01*
X95426902Y-233553000D01*
X96957541Y-233553000D01*
X97053061Y-233572000D01*
X97256939Y-233572000D01*
X97352459Y-233553000D01*
X99045985Y-233553000D01*
X99041000Y-233578061D01*
X99041000Y-233781939D01*
X99080774Y-233981898D01*
X99158795Y-234170256D01*
X99272063Y-234339774D01*
X99416226Y-234483937D01*
X99478180Y-234525333D01*
X99481104Y-234528896D01*
X99635810Y-234655860D01*
X99812313Y-234750202D01*
X100003829Y-234808298D01*
X100153098Y-234823000D01*
X100202999Y-234827915D01*
X100252901Y-234823000D01*
X100955852Y-234823000D01*
X100999820Y-234846502D01*
X101119518Y-234882812D01*
X101244000Y-234895072D01*
X103244000Y-234895072D01*
X103368482Y-234882812D01*
X103488180Y-234846502D01*
X103598494Y-234787537D01*
X103695185Y-234708185D01*
X103774537Y-234611494D01*
X103833502Y-234501180D01*
X103869812Y-234381482D01*
X103882072Y-234257000D01*
X103882072Y-233357000D01*
X103876360Y-233299000D01*
X112463510Y-233299000D01*
X112480063Y-233323774D01*
X112624226Y-233467937D01*
X112793744Y-233581205D01*
X112982102Y-233659226D01*
X113182061Y-233699000D01*
X113385939Y-233699000D01*
X113585898Y-233659226D01*
X113774256Y-233581205D01*
X113943774Y-233467937D01*
X114087937Y-233323774D01*
X114184966Y-233178560D01*
X116083405Y-235077000D01*
X96520000Y-235077000D01*
X96495224Y-235079440D01*
X96471399Y-235086667D01*
X96449443Y-235098403D01*
X96430197Y-235114197D01*
X96414403Y-235133443D01*
X96402667Y-235155399D01*
X96395440Y-235179224D01*
X96393000Y-235204000D01*
X96393000Y-240640000D01*
X13360000Y-240640000D01*
X13360000Y-228498061D01*
X21825000Y-228498061D01*
X21825000Y-228701939D01*
X21864774Y-228901898D01*
X21942795Y-229090256D01*
X22056063Y-229259774D01*
X22200226Y-229403937D01*
X22369744Y-229517205D01*
X22558102Y-229595226D01*
X22758061Y-229635000D01*
X22961939Y-229635000D01*
X23161898Y-229595226D01*
X23350256Y-229517205D01*
X23519774Y-229403937D01*
X23663937Y-229259774D01*
X23777205Y-229090256D01*
X23855226Y-228901898D01*
X23895000Y-228701939D01*
X23895000Y-228642630D01*
X32624326Y-219913304D01*
X32653402Y-219889442D01*
X32715067Y-219814303D01*
X32748625Y-219773413D01*
X32819381Y-219641036D01*
X32819382Y-219641035D01*
X32862954Y-219497398D01*
X32873980Y-219385446D01*
X32873980Y-219385443D01*
X32877666Y-219348020D01*
X32873980Y-219310597D01*
X32873980Y-33601582D01*
X33147574Y-33327989D01*
X43088588Y-33327989D01*
X43126011Y-33331675D01*
X43163434Y-33327989D01*
X43163437Y-33327989D01*
X43275389Y-33316963D01*
X43419026Y-33273391D01*
X43551403Y-33202634D01*
X43667433Y-33107411D01*
X43691295Y-33078335D01*
X51858631Y-24911000D01*
X51917939Y-24911000D01*
X52117898Y-24871226D01*
X52306256Y-24793205D01*
X52475774Y-24679937D01*
X52619937Y-24535774D01*
X52733205Y-24366256D01*
X52811226Y-24177898D01*
X52851000Y-23977939D01*
X52851000Y-23774061D01*
X52811226Y-23574102D01*
X52733205Y-23385744D01*
X52619937Y-23216226D01*
X52475774Y-23072063D01*
X52306256Y-22958795D01*
X52117898Y-22880774D01*
X51917939Y-22841000D01*
X51714061Y-22841000D01*
X51514102Y-22880774D01*
X51325744Y-22958795D01*
X51156226Y-23072063D01*
X51012063Y-23216226D01*
X50898795Y-23385744D01*
X50820774Y-23574102D01*
X50781000Y-23774061D01*
X50781000Y-23833369D01*
X42810381Y-31803989D01*
X32869365Y-31803989D01*
X32831942Y-31800303D01*
X32794519Y-31803989D01*
X32794517Y-31803989D01*
X32682565Y-31815015D01*
X32538928Y-31858587D01*
X32406551Y-31929344D01*
X32290521Y-32024567D01*
X32266663Y-32053638D01*
X31599633Y-32720669D01*
X31570558Y-32744530D01*
X31543889Y-32777027D01*
X31475335Y-32860560D01*
X31458875Y-32891355D01*
X31404578Y-32992938D01*
X31361006Y-33136575D01*
X31354500Y-33202634D01*
X31346294Y-33285952D01*
X31349980Y-33323375D01*
X31349981Y-219032389D01*
X22817370Y-227565000D01*
X22758061Y-227565000D01*
X22558102Y-227604774D01*
X22369744Y-227682795D01*
X22200226Y-227796063D01*
X22056063Y-227940226D01*
X21942795Y-228109744D01*
X21864774Y-228298102D01*
X21825000Y-228498061D01*
X13360000Y-228498061D01*
X13360000Y-132140199D01*
X18594921Y-132140199D01*
X18594921Y-132344077D01*
X18634695Y-132544036D01*
X18712716Y-132732394D01*
X18825984Y-132901912D01*
X18867921Y-132943849D01*
X18867922Y-134146488D01*
X18864235Y-134183921D01*
X18878948Y-134333299D01*
X18922520Y-134476936D01*
X18993276Y-134609313D01*
X19064642Y-134696272D01*
X19088500Y-134725343D01*
X19117570Y-134749200D01*
X21532720Y-137164351D01*
X21556578Y-137193422D01*
X21585648Y-137217279D01*
X21672607Y-137288645D01*
X21715879Y-137311774D01*
X21804985Y-137359402D01*
X21948622Y-137402974D01*
X22060574Y-137414000D01*
X22060577Y-137414000D01*
X22098000Y-137417686D01*
X22135423Y-137414000D01*
X23174289Y-137414000D01*
X23216226Y-137455937D01*
X23385744Y-137569205D01*
X23574102Y-137647226D01*
X23774061Y-137687000D01*
X23977939Y-137687000D01*
X24177898Y-137647226D01*
X24366256Y-137569205D01*
X24535774Y-137455937D01*
X24679937Y-137311774D01*
X24793205Y-137142256D01*
X24871226Y-136953898D01*
X24911000Y-136753939D01*
X24911000Y-136550061D01*
X24871226Y-136350102D01*
X24793205Y-136161744D01*
X24782860Y-136146262D01*
X24796228Y-136126256D01*
X24874249Y-135937898D01*
X24914023Y-135737939D01*
X24914023Y-135559016D01*
X24968637Y-135522524D01*
X25112800Y-135378361D01*
X25226068Y-135208843D01*
X25304089Y-135020485D01*
X25343863Y-134820526D01*
X25343863Y-134616648D01*
X25304089Y-134416689D01*
X25226068Y-134228331D01*
X25112800Y-134058813D01*
X24968637Y-133914650D01*
X24799119Y-133801382D01*
X24610761Y-133723361D01*
X24410802Y-133683587D01*
X24206924Y-133683587D01*
X24006965Y-133723361D01*
X23818607Y-133801382D01*
X23672165Y-133899231D01*
X23641022Y-133868088D01*
X23641022Y-132784500D01*
X23644708Y-132747077D01*
X23640926Y-132708676D01*
X23629996Y-132597700D01*
X23586424Y-132454063D01*
X23515667Y-132321686D01*
X23420444Y-132205656D01*
X23391374Y-132181799D01*
X21857952Y-130648378D01*
X21857952Y-130589069D01*
X21818178Y-130389110D01*
X21740157Y-130200752D01*
X21626889Y-130031234D01*
X21482726Y-129887071D01*
X21313208Y-129773803D01*
X21124850Y-129695782D01*
X20924891Y-129656008D01*
X20721013Y-129656008D01*
X20521054Y-129695782D01*
X20332696Y-129773803D01*
X20163178Y-129887071D01*
X20019015Y-130031234D01*
X19905747Y-130200752D01*
X19827726Y-130389110D01*
X19787952Y-130589069D01*
X19787952Y-130750178D01*
X19730442Y-130788605D01*
X19586279Y-130932768D01*
X19473011Y-131102286D01*
X19420744Y-131228469D01*
X19328023Y-131246912D01*
X19139665Y-131324933D01*
X18970147Y-131438201D01*
X18825984Y-131582364D01*
X18712716Y-131751882D01*
X18634695Y-131940240D01*
X18594921Y-132140199D01*
X13360000Y-132140199D01*
X13360000Y-22250061D01*
X28429000Y-22250061D01*
X28429000Y-22453939D01*
X28468774Y-22653898D01*
X28546795Y-22842256D01*
X28660063Y-23011774D01*
X28804226Y-23155937D01*
X28973744Y-23269205D01*
X29162102Y-23347226D01*
X29362061Y-23387000D01*
X29565939Y-23387000D01*
X29765898Y-23347226D01*
X29954256Y-23269205D01*
X30123774Y-23155937D01*
X30267937Y-23011774D01*
X30381205Y-22842256D01*
X30459226Y-22653898D01*
X30499000Y-22453939D01*
X30499000Y-22394630D01*
X36891631Y-16002000D01*
X89092370Y-16002000D01*
X89662001Y-16571632D01*
X89662000Y-31966577D01*
X89658314Y-32004000D01*
X89662000Y-32041423D01*
X89662000Y-32041425D01*
X89673026Y-32153377D01*
X89716598Y-32297014D01*
X89716599Y-32297015D01*
X89787355Y-32429392D01*
X89810342Y-32457401D01*
X89882578Y-32545422D01*
X89911654Y-32569284D01*
X99041000Y-41698631D01*
X99041000Y-41757939D01*
X99080774Y-41957898D01*
X99158795Y-42146256D01*
X99272063Y-42315774D01*
X99416226Y-42459937D01*
X99585744Y-42573205D01*
X99774102Y-42651226D01*
X99974061Y-42691000D01*
X100177939Y-42691000D01*
X100377898Y-42651226D01*
X100566256Y-42573205D01*
X100735774Y-42459937D01*
X100879937Y-42315774D01*
X100993205Y-42146256D01*
X101071226Y-41957898D01*
X101111000Y-41757939D01*
X101111000Y-41554061D01*
X101071226Y-41354102D01*
X100993205Y-41165744D01*
X100879937Y-40996226D01*
X100735774Y-40852063D01*
X100566256Y-40738795D01*
X100377898Y-40660774D01*
X100177939Y-40621000D01*
X100118631Y-40621000D01*
X91186000Y-31688370D01*
X91186000Y-16293423D01*
X91189686Y-16256000D01*
X91186000Y-16218574D01*
X91174974Y-16106622D01*
X91131402Y-15962985D01*
X91085252Y-15876645D01*
X91060645Y-15830607D01*
X90989279Y-15743648D01*
X90965422Y-15714578D01*
X90936351Y-15690721D01*
X89973284Y-14727654D01*
X89949422Y-14698578D01*
X89833392Y-14603355D01*
X89701015Y-14532598D01*
X89557378Y-14489026D01*
X89445426Y-14478000D01*
X89445423Y-14478000D01*
X89408000Y-14474314D01*
X89370577Y-14478000D01*
X36613423Y-14478000D01*
X36576000Y-14474314D01*
X36538577Y-14478000D01*
X36538574Y-14478000D01*
X36426622Y-14489026D01*
X36282985Y-14532598D01*
X36221364Y-14565535D01*
X36150607Y-14603355D01*
X36094510Y-14649393D01*
X36034578Y-14698578D01*
X36010721Y-14727648D01*
X29421370Y-21317000D01*
X29362061Y-21317000D01*
X29162102Y-21356774D01*
X28973744Y-21434795D01*
X28804226Y-21548063D01*
X28660063Y-21692226D01*
X28546795Y-21861744D01*
X28468774Y-22050102D01*
X28429000Y-22250061D01*
X13360000Y-22250061D01*
X13360000Y-13360000D01*
X240640000Y-13360000D01*
X240640001Y-240640000D01*
X240640001Y-240640000D01*
G37*
X240640001Y-240640000D02*
X125095000Y-240640000D01*
X125095000Y-235204000D01*
X125092560Y-235179224D01*
X125085333Y-235155399D01*
X125073597Y-235133443D01*
X125057803Y-235114197D01*
X125038557Y-235098403D01*
X125016601Y-235086667D01*
X124992776Y-235079440D01*
X124968000Y-235077000D01*
X124484468Y-235077000D01*
X124611774Y-234991937D01*
X124755937Y-234847774D01*
X124869205Y-234678256D01*
X124947226Y-234489898D01*
X124987000Y-234289939D01*
X124987000Y-234230630D01*
X126585107Y-232632524D01*
X126590795Y-232646256D01*
X126704063Y-232815774D01*
X126848226Y-232959937D01*
X127017744Y-233073205D01*
X127206102Y-233151226D01*
X127406061Y-233191000D01*
X127609939Y-233191000D01*
X127809898Y-233151226D01*
X127998256Y-233073205D01*
X128167774Y-232959937D01*
X128311937Y-232815774D01*
X128425205Y-232646256D01*
X128503226Y-232457898D01*
X128543000Y-232257939D01*
X128543000Y-232198630D01*
X131106631Y-229635000D01*
X131165939Y-229635000D01*
X131365898Y-229595226D01*
X131554256Y-229517205D01*
X131723774Y-229403937D01*
X131867937Y-229259774D01*
X131981205Y-229090256D01*
X132059226Y-228901898D01*
X132099000Y-228701939D01*
X132099000Y-228498061D01*
X132059226Y-228298102D01*
X131981205Y-228109744D01*
X131867937Y-227940226D01*
X131765711Y-227838000D01*
X131867937Y-227735774D01*
X131981205Y-227566256D01*
X132059226Y-227377898D01*
X132099000Y-227177939D01*
X132099000Y-226974061D01*
X132059226Y-226774102D01*
X131981205Y-226585744D01*
X131964283Y-226560418D01*
X131975131Y-226544182D01*
X132053152Y-226355824D01*
X132092926Y-226155865D01*
X132092926Y-225951987D01*
X132053152Y-225752028D01*
X131975131Y-225563670D01*
X131861863Y-225394152D01*
X131717700Y-225249989D01*
X131548182Y-225136721D01*
X131359824Y-225058700D01*
X131276415Y-225042109D01*
X131259824Y-224958700D01*
X131181803Y-224770342D01*
X131068535Y-224600824D01*
X130924372Y-224456661D01*
X130754854Y-224343393D01*
X130566496Y-224265372D01*
X130540414Y-224260184D01*
X130535226Y-224234102D01*
X130457205Y-224045744D01*
X130343937Y-223876226D01*
X130199774Y-223732063D01*
X130030256Y-223618795D01*
X129841898Y-223540774D01*
X129641939Y-223501000D01*
X129438061Y-223501000D01*
X129238102Y-223540774D01*
X129049744Y-223618795D01*
X128880226Y-223732063D01*
X128736063Y-223876226D01*
X128622795Y-224045744D01*
X128544774Y-224234102D01*
X128505000Y-224434061D01*
X128505000Y-224637939D01*
X128542938Y-224828666D01*
X127796999Y-225574604D01*
X127796999Y-222224710D01*
X127838936Y-222182773D01*
X127952204Y-222013255D01*
X128030225Y-221824897D01*
X128069999Y-221624938D01*
X128069999Y-221421060D01*
X128030225Y-221221101D01*
X127952204Y-221032743D01*
X127848850Y-220878061D01*
X131568987Y-220878061D01*
X131568987Y-221081939D01*
X131608761Y-221281898D01*
X131686782Y-221470256D01*
X131800050Y-221639774D01*
X131944213Y-221783937D01*
X132113731Y-221897205D01*
X132302089Y-221975226D01*
X132502048Y-222015000D01*
X132705926Y-222015000D01*
X132905885Y-221975226D01*
X133094243Y-221897205D01*
X133103994Y-221890690D01*
X133113744Y-221897205D01*
X133302102Y-221975226D01*
X133502061Y-222015000D01*
X133705939Y-222015000D01*
X133724835Y-222011241D01*
X133816063Y-222147774D01*
X133960226Y-222291937D01*
X134129744Y-222405205D01*
X134318102Y-222483226D01*
X134518061Y-222523000D01*
X134721939Y-222523000D01*
X134921898Y-222483226D01*
X135110256Y-222405205D01*
X135279774Y-222291937D01*
X135423937Y-222147774D01*
X135537205Y-221978256D01*
X135615226Y-221789898D01*
X135655000Y-221589939D01*
X135655000Y-221386061D01*
X135615226Y-221186102D01*
X135537205Y-220997744D01*
X135507052Y-220952616D01*
X136339293Y-220120375D01*
X136427294Y-220285014D01*
X136612866Y-220511134D01*
X136838986Y-220696706D01*
X137096966Y-220834599D01*
X137376889Y-220919513D01*
X137595050Y-220941000D01*
X137740950Y-220941000D01*
X137959111Y-220919513D01*
X138239034Y-220834599D01*
X138497014Y-220696706D01*
X138723134Y-220511134D01*
X138747607Y-220481313D01*
X138768498Y-220550180D01*
X138827463Y-220660494D01*
X138906815Y-220757185D01*
X139003506Y-220836537D01*
X139113820Y-220895502D01*
X139233518Y-220931812D01*
X139358000Y-220944072D01*
X141058000Y-220944072D01*
X141182482Y-220931812D01*
X141302180Y-220895502D01*
X141412494Y-220836537D01*
X141509185Y-220757185D01*
X141588537Y-220660494D01*
X141647502Y-220550180D01*
X141683812Y-220430482D01*
X141696072Y-220306000D01*
X141696072Y-218606000D01*
X141683812Y-218481518D01*
X141647502Y-218361820D01*
X141588537Y-218251506D01*
X141509185Y-218154815D01*
X141412494Y-218075463D01*
X141302180Y-218016498D01*
X141233313Y-217995607D01*
X141263134Y-217971134D01*
X141448706Y-217745014D01*
X141586599Y-217487034D01*
X141671513Y-217207111D01*
X141700185Y-216916000D01*
X141671513Y-216624889D01*
X141586599Y-216344966D01*
X141448706Y-216086986D01*
X141263134Y-215860866D01*
X141037014Y-215675294D01*
X140982209Y-215646000D01*
X141037014Y-215616706D01*
X141263134Y-215431134D01*
X141448706Y-215205014D01*
X141586599Y-214947034D01*
X141671513Y-214667111D01*
X141700185Y-214376000D01*
X141671513Y-214084889D01*
X141586599Y-213804966D01*
X141448706Y-213546986D01*
X141263134Y-213320866D01*
X141037014Y-213135294D01*
X140779034Y-212997401D01*
X140499111Y-212912487D01*
X140280950Y-212891000D01*
X140135050Y-212891000D01*
X139916889Y-212912487D01*
X139636966Y-212997401D01*
X139378986Y-213135294D01*
X139152866Y-213320866D01*
X138967294Y-213546986D01*
X138938000Y-213601791D01*
X138908706Y-213546986D01*
X138723134Y-213320866D01*
X138497014Y-213135294D01*
X138239034Y-212997401D01*
X137959111Y-212912487D01*
X137740950Y-212891000D01*
X137595050Y-212891000D01*
X137376889Y-212912487D01*
X137096966Y-212997401D01*
X136838986Y-213135294D01*
X136612866Y-213320866D01*
X136427294Y-213546986D01*
X136289401Y-213804966D01*
X136204487Y-214084889D01*
X136175815Y-214376000D01*
X136204487Y-214667111D01*
X136289401Y-214947034D01*
X136427294Y-215205014D01*
X136486838Y-215277569D01*
X132314820Y-219449588D01*
X132285744Y-219473450D01*
X132230149Y-219541194D01*
X132190521Y-219589480D01*
X132181423Y-219606502D01*
X132119764Y-219721858D01*
X132076192Y-219865495D01*
X132068525Y-219943345D01*
X132061480Y-220014872D01*
X132065166Y-220052295D01*
X132065166Y-220095245D01*
X131944213Y-220176063D01*
X131800050Y-220320226D01*
X131686782Y-220489744D01*
X131608761Y-220678102D01*
X131568987Y-220878061D01*
X127848850Y-220878061D01*
X127838936Y-220863225D01*
X127694773Y-220719062D01*
X127525255Y-220605794D01*
X127336897Y-220527773D01*
X127136938Y-220487999D01*
X126933060Y-220487999D01*
X126733101Y-220527773D01*
X126544743Y-220605794D01*
X126375225Y-220719062D01*
X126231062Y-220863225D01*
X126117794Y-221032743D01*
X126039773Y-221221101D01*
X125999999Y-221421060D01*
X125999999Y-221624938D01*
X126039773Y-221824897D01*
X126117794Y-222013255D01*
X126231062Y-222182773D01*
X126272999Y-222224710D01*
X126273000Y-225709369D01*
X124417370Y-227565000D01*
X124358061Y-227565000D01*
X124158102Y-227604774D01*
X123969744Y-227682795D01*
X123800226Y-227796063D01*
X123656063Y-227940226D01*
X123542795Y-228109744D01*
X123464774Y-228298102D01*
X123425000Y-228498061D01*
X123425000Y-228701939D01*
X123464774Y-228901898D01*
X123542795Y-229090256D01*
X123653361Y-229255730D01*
X122612284Y-228214654D01*
X122588422Y-228185578D01*
X122472392Y-228090355D01*
X122340015Y-228019598D01*
X122196378Y-227976026D01*
X122084426Y-227965000D01*
X122084423Y-227965000D01*
X122047000Y-227961314D01*
X122009577Y-227965000D01*
X120876360Y-227965000D01*
X120882072Y-227907000D01*
X120882072Y-227007000D01*
X120869812Y-226882518D01*
X120851454Y-226822000D01*
X120869812Y-226761482D01*
X120882072Y-226637000D01*
X120882072Y-225737000D01*
X120869812Y-225612518D01*
X120851454Y-225552000D01*
X120869812Y-225491482D01*
X120882072Y-225367000D01*
X120882072Y-224467000D01*
X120869812Y-224342518D01*
X120861920Y-224316502D01*
X120923392Y-224283645D01*
X121039422Y-224188422D01*
X121063284Y-224159346D01*
X122432346Y-222790284D01*
X122461422Y-222766422D01*
X122543456Y-222666463D01*
X122556645Y-222650393D01*
X122598980Y-222571188D01*
X122627402Y-222518015D01*
X122670974Y-222374378D01*
X122682000Y-222262426D01*
X122682000Y-222262423D01*
X122685686Y-222225000D01*
X122682000Y-222187577D01*
X122682000Y-215937422D01*
X122685686Y-215899999D01*
X122681950Y-215862064D01*
X122670974Y-215750622D01*
X122627402Y-215606985D01*
X122556645Y-215474608D01*
X122461422Y-215358578D01*
X122432353Y-215334722D01*
X112014000Y-204916370D01*
X112014000Y-190488753D01*
X112166061Y-190519000D01*
X112369939Y-190519000D01*
X112569898Y-190479226D01*
X112758256Y-190401205D01*
X112927774Y-190287937D01*
X112969711Y-190246000D01*
X124774289Y-190246000D01*
X124816226Y-190287937D01*
X124985744Y-190401205D01*
X125174102Y-190479226D01*
X125374061Y-190519000D01*
X125577939Y-190519000D01*
X125777898Y-190479226D01*
X125966256Y-190401205D01*
X126135774Y-190287937D01*
X126273000Y-190150711D01*
X126273000Y-208121287D01*
X126231062Y-208163225D01*
X126117794Y-208332743D01*
X126039773Y-208521101D01*
X125999999Y-208721060D01*
X125999999Y-208924938D01*
X126039773Y-209124897D01*
X126117794Y-209313255D01*
X126231062Y-209482773D01*
X126375225Y-209626936D01*
X126544743Y-209740204D01*
X126733101Y-209818225D01*
X126933060Y-209857999D01*
X127136938Y-209857999D01*
X127336897Y-209818225D01*
X127525255Y-209740204D01*
X127694773Y-209626936D01*
X127838936Y-209482773D01*
X127952204Y-209313255D01*
X128030225Y-209124897D01*
X128069999Y-208924938D01*
X128069999Y-208721060D01*
X128030225Y-208521101D01*
X127952204Y-208332743D01*
X127838936Y-208163225D01*
X127796999Y-208121288D01*
X127796999Y-111525000D01*
X127863939Y-111525000D01*
X128063898Y-111485226D01*
X128252256Y-111407205D01*
X128421774Y-111293937D01*
X128463711Y-111252000D01*
X175574289Y-111252000D01*
X175616226Y-111293937D01*
X175785744Y-111407205D01*
X175974102Y-111485226D01*
X176174061Y-111525000D01*
X176241002Y-111525000D01*
X176241003Y-226541366D01*
X175217370Y-227565000D01*
X175158061Y-227565000D01*
X174958102Y-227604774D01*
X174769744Y-227682795D01*
X174600226Y-227796063D01*
X174456063Y-227940226D01*
X174342795Y-228109744D01*
X174264774Y-228298102D01*
X174225000Y-228498061D01*
X174225000Y-228701939D01*
X174264774Y-228901898D01*
X174342795Y-229090256D01*
X174456063Y-229259774D01*
X174600226Y-229403937D01*
X174769744Y-229517205D01*
X174958102Y-229595226D01*
X175158061Y-229635000D01*
X175361939Y-229635000D01*
X175561898Y-229595226D01*
X175750256Y-229517205D01*
X175919774Y-229403937D01*
X176063937Y-229259774D01*
X176177205Y-229090256D01*
X176255226Y-228901898D01*
X176295000Y-228701939D01*
X176295000Y-228642630D01*
X177515354Y-227422277D01*
X177544424Y-227398420D01*
X177639647Y-227282390D01*
X177710404Y-227150013D01*
X177753976Y-227006376D01*
X177765002Y-226894424D01*
X177765002Y-226894422D01*
X177768688Y-226856999D01*
X177765002Y-226819576D01*
X177765002Y-111525000D01*
X177901939Y-111525000D01*
X178101898Y-111485226D01*
X178290256Y-111407205D01*
X178459774Y-111293937D01*
X178501711Y-111252000D01*
X227644289Y-111252000D01*
X227686226Y-111293937D01*
X227855744Y-111407205D01*
X228044102Y-111485226D01*
X228244061Y-111525000D01*
X228447939Y-111525000D01*
X228647898Y-111485226D01*
X228836256Y-111407205D01*
X228854001Y-111395349D01*
X228854001Y-193606300D01*
X200147654Y-222312648D01*
X200118578Y-222336510D01*
X200064782Y-222402061D01*
X200023355Y-222452540D01*
X199988358Y-222518015D01*
X199952598Y-222584918D01*
X199909026Y-222728555D01*
X199898000Y-222840506D01*
X199894314Y-222877932D01*
X199898000Y-222915355D01*
X199898001Y-227898288D01*
X199856063Y-227940226D01*
X199742795Y-228109744D01*
X199664774Y-228298102D01*
X199625000Y-228498061D01*
X199625000Y-228701939D01*
X199664774Y-228901898D01*
X199742795Y-229090256D01*
X199856063Y-229259774D01*
X200000226Y-229403937D01*
X200169744Y-229517205D01*
X200358102Y-229595226D01*
X200558061Y-229635000D01*
X200761939Y-229635000D01*
X200961898Y-229595226D01*
X201150256Y-229517205D01*
X201319774Y-229403937D01*
X201463937Y-229259774D01*
X201577205Y-229090256D01*
X201655226Y-228901898D01*
X201695000Y-228701939D01*
X201695000Y-228498061D01*
X201655226Y-228298102D01*
X201577205Y-228109744D01*
X201463937Y-227940226D01*
X201422000Y-227898289D01*
X201422000Y-223193562D01*
X230128352Y-194487211D01*
X230157422Y-194463354D01*
X230184772Y-194430028D01*
X230252645Y-194347325D01*
X230323401Y-194214948D01*
X230323402Y-194214947D01*
X230366974Y-194071310D01*
X230378000Y-193959358D01*
X230378000Y-193959355D01*
X230381686Y-193921932D01*
X230378000Y-193884509D01*
X230378000Y-24577711D01*
X230419937Y-24535774D01*
X230533205Y-24366256D01*
X230611226Y-24177898D01*
X230651000Y-23977939D01*
X230651000Y-23774061D01*
X230611226Y-23574102D01*
X230533205Y-23385744D01*
X230419937Y-23216226D01*
X230275774Y-23072063D01*
X230106256Y-22958795D01*
X229917898Y-22880774D01*
X229717939Y-22841000D01*
X229514061Y-22841000D01*
X229314102Y-22880774D01*
X229125744Y-22958795D01*
X228956226Y-23072063D01*
X228812063Y-23216226D01*
X228698795Y-23385744D01*
X228620774Y-23574102D01*
X228581000Y-23774061D01*
X228581000Y-23977939D01*
X228620774Y-24177898D01*
X228698795Y-24366256D01*
X228812063Y-24535774D01*
X228854000Y-24577711D01*
X228854000Y-107552651D01*
X228836256Y-107540795D01*
X228647898Y-107462774D01*
X228447939Y-107423000D01*
X228244061Y-107423000D01*
X228044102Y-107462774D01*
X227855744Y-107540795D01*
X227686226Y-107654063D01*
X227644289Y-107696000D01*
X178501711Y-107696000D01*
X178459774Y-107654063D01*
X178290256Y-107540795D01*
X178101898Y-107462774D01*
X177901939Y-107423000D01*
X177765002Y-107423000D01*
X177765002Y-51404628D01*
X204258631Y-24911000D01*
X204317939Y-24911000D01*
X204517898Y-24871226D01*
X204706256Y-24793205D01*
X204875774Y-24679937D01*
X205019937Y-24535774D01*
X205133205Y-24366256D01*
X205211226Y-24177898D01*
X205251000Y-23977939D01*
X205251000Y-23774061D01*
X205211226Y-23574102D01*
X205133205Y-23385744D01*
X205019937Y-23216226D01*
X204875774Y-23072063D01*
X204706256Y-22958795D01*
X204517898Y-22880774D01*
X204317939Y-22841000D01*
X204114061Y-22841000D01*
X203914102Y-22880774D01*
X203725744Y-22958795D01*
X203556226Y-23072063D01*
X203412063Y-23216226D01*
X203298795Y-23385744D01*
X203220774Y-23574102D01*
X203181000Y-23774061D01*
X203181000Y-23833369D01*
X176490656Y-50523714D01*
X176461580Y-50547576D01*
X176405985Y-50615320D01*
X176366357Y-50663606D01*
X176328537Y-50734363D01*
X176295600Y-50795984D01*
X176252028Y-50939621D01*
X176245296Y-51007974D01*
X176237316Y-51088998D01*
X176241002Y-51126421D01*
X176241002Y-107423000D01*
X176174061Y-107423000D01*
X175974102Y-107462774D01*
X175785744Y-107540795D01*
X175616226Y-107654063D01*
X175558302Y-107711987D01*
X128463711Y-107711987D01*
X128421774Y-107670050D01*
X128252256Y-107556782D01*
X128063898Y-107478761D01*
X127863939Y-107438987D01*
X127796999Y-107438987D01*
X127796999Y-50572631D01*
X153458631Y-24911000D01*
X153517939Y-24911000D01*
X153717898Y-24871226D01*
X153906256Y-24793205D01*
X154075774Y-24679937D01*
X154219937Y-24535774D01*
X154333205Y-24366256D01*
X154411226Y-24177898D01*
X154451000Y-23977939D01*
X154451000Y-23774061D01*
X154411226Y-23574102D01*
X154333205Y-23385744D01*
X154219937Y-23216226D01*
X154075774Y-23072063D01*
X153906256Y-22958795D01*
X153717898Y-22880774D01*
X153517939Y-22841000D01*
X153314061Y-22841000D01*
X153114102Y-22880774D01*
X152925744Y-22958795D01*
X152756226Y-23072063D01*
X152612063Y-23216226D01*
X152498795Y-23385744D01*
X152420774Y-23574102D01*
X152381000Y-23774061D01*
X152381000Y-23833369D01*
X126522653Y-49691717D01*
X126493577Y-49715579D01*
X126437982Y-49783323D01*
X126398354Y-49831609D01*
X126360534Y-49902366D01*
X126327597Y-49963987D01*
X126284025Y-50107624D01*
X126272999Y-50219575D01*
X126269313Y-50257001D01*
X126272999Y-50294424D01*
X126272999Y-107592024D01*
X126220256Y-107556782D01*
X126031898Y-107478761D01*
X125831939Y-107438987D01*
X125628061Y-107438987D01*
X125428102Y-107478761D01*
X125239744Y-107556782D01*
X125070226Y-107670050D01*
X125028289Y-107711987D01*
X120165832Y-107711987D01*
X119989939Y-107677000D01*
X119786061Y-107677000D01*
X119586102Y-107716774D01*
X119397744Y-107794795D01*
X119228226Y-107908063D01*
X119084063Y-108052226D01*
X118970795Y-108221744D01*
X118892774Y-108410102D01*
X118853000Y-108610061D01*
X118853000Y-108813939D01*
X118892774Y-109013898D01*
X118970795Y-109202256D01*
X118982651Y-109220000D01*
X118970795Y-109237744D01*
X118892774Y-109426102D01*
X118853000Y-109626061D01*
X118853000Y-109829939D01*
X118892774Y-110029898D01*
X118970795Y-110218256D01*
X119084063Y-110387774D01*
X119186289Y-110490000D01*
X119084063Y-110592226D01*
X118970795Y-110761744D01*
X118892774Y-110950102D01*
X118853000Y-111150061D01*
X118853000Y-111353939D01*
X118892774Y-111553898D01*
X118970795Y-111742256D01*
X119084063Y-111911774D01*
X119228226Y-112055937D01*
X119397744Y-112169205D01*
X119586102Y-112247226D01*
X119786061Y-112287000D01*
X119989939Y-112287000D01*
X120189898Y-112247226D01*
X120378256Y-112169205D01*
X120547774Y-112055937D01*
X120589711Y-112014000D01*
X124930577Y-112014000D01*
X124968000Y-112017686D01*
X125005423Y-112014000D01*
X125005426Y-112014000D01*
X125117378Y-112002974D01*
X125261015Y-111959402D01*
X125393392Y-111888645D01*
X125509422Y-111793422D01*
X125533284Y-111764345D01*
X125772629Y-111525000D01*
X125831939Y-111525000D01*
X126031898Y-111485226D01*
X126220256Y-111407205D01*
X126272999Y-111371963D01*
X126273000Y-187801289D01*
X126135774Y-187664063D01*
X125966256Y-187550795D01*
X125777898Y-187472774D01*
X125577939Y-187433000D01*
X125374061Y-187433000D01*
X125174102Y-187472774D01*
X124985744Y-187550795D01*
X124816226Y-187664063D01*
X124774289Y-187706000D01*
X122743630Y-187706000D01*
X122739284Y-187701654D01*
X122715422Y-187672578D01*
X122599392Y-187577355D01*
X122467015Y-187506598D01*
X122323378Y-187463026D01*
X122211426Y-187452000D01*
X122211423Y-187452000D01*
X122174000Y-187448314D01*
X122136577Y-187452000D01*
X112969711Y-187452000D01*
X112927774Y-187410063D01*
X112758256Y-187296795D01*
X112569898Y-187218774D01*
X112369939Y-187179000D01*
X112166061Y-187179000D01*
X112014000Y-187209247D01*
X112014000Y-111953711D01*
X112055937Y-111911774D01*
X112169205Y-111742256D01*
X112247226Y-111553898D01*
X112287000Y-111353939D01*
X112287000Y-111150061D01*
X112247226Y-110950102D01*
X112169205Y-110761744D01*
X112055937Y-110592226D01*
X112014000Y-110550289D01*
X112014000Y-44897711D01*
X112055937Y-44855774D01*
X112169205Y-44686256D01*
X112247226Y-44497898D01*
X112287000Y-44297939D01*
X112287000Y-44094061D01*
X117329000Y-44094061D01*
X117329000Y-44297939D01*
X117368774Y-44497898D01*
X117446795Y-44686256D01*
X117560063Y-44855774D01*
X117704226Y-44999937D01*
X117873744Y-45113205D01*
X118062102Y-45191226D01*
X118262061Y-45231000D01*
X118465939Y-45231000D01*
X118665898Y-45191226D01*
X118854256Y-45113205D01*
X119023774Y-44999937D01*
X119167937Y-44855774D01*
X119281205Y-44686256D01*
X119359226Y-44497898D01*
X119399000Y-44297939D01*
X119399000Y-44238630D01*
X148651631Y-14986000D01*
X171896370Y-14986000D01*
X178797000Y-21886631D01*
X178797000Y-21945939D01*
X178836774Y-22145898D01*
X178914795Y-22334256D01*
X179028063Y-22503774D01*
X179172226Y-22647937D01*
X179341744Y-22761205D01*
X179530102Y-22839226D01*
X179730061Y-22879000D01*
X179933939Y-22879000D01*
X180133898Y-22839226D01*
X180322256Y-22761205D01*
X180491774Y-22647937D01*
X180635937Y-22503774D01*
X180749205Y-22334256D01*
X180827226Y-22145898D01*
X180867000Y-21945939D01*
X180867000Y-21742061D01*
X180827226Y-21542102D01*
X180749205Y-21353744D01*
X180635937Y-21184226D01*
X180491774Y-21040063D01*
X180322256Y-20926795D01*
X180133898Y-20848774D01*
X179933939Y-20809000D01*
X179874631Y-20809000D01*
X172777284Y-13711654D01*
X172753422Y-13682578D01*
X172637392Y-13587355D01*
X172505015Y-13516598D01*
X172361378Y-13473026D01*
X172249426Y-13462000D01*
X172249423Y-13462000D01*
X172212000Y-13458314D01*
X172174577Y-13462000D01*
X148373423Y-13462000D01*
X148336000Y-13458314D01*
X148298577Y-13462000D01*
X148298574Y-13462000D01*
X148186622Y-13473026D01*
X148042985Y-13516598D01*
X147981364Y-13549535D01*
X147910607Y-13587355D01*
X147827904Y-13655228D01*
X147794578Y-13682578D01*
X147770721Y-13711648D01*
X118321370Y-43161000D01*
X118262061Y-43161000D01*
X118062102Y-43200774D01*
X117873744Y-43278795D01*
X117704226Y-43392063D01*
X117560063Y-43536226D01*
X117446795Y-43705744D01*
X117368774Y-43894102D01*
X117329000Y-44094061D01*
X112287000Y-44094061D01*
X112247226Y-43894102D01*
X112169205Y-43705744D01*
X112055937Y-43536226D01*
X111911774Y-43392063D01*
X111742256Y-43278795D01*
X111553898Y-43200774D01*
X111353939Y-43161000D01*
X111150061Y-43161000D01*
X110950102Y-43200774D01*
X110761744Y-43278795D01*
X110744000Y-43290651D01*
X110726256Y-43278795D01*
X110537898Y-43200774D01*
X110337939Y-43161000D01*
X110134061Y-43161000D01*
X109934102Y-43200774D01*
X109745744Y-43278795D01*
X109729508Y-43289643D01*
X109704182Y-43272721D01*
X109699040Y-43270591D01*
X114992279Y-37977352D01*
X114992284Y-37977346D01*
X128058631Y-24911000D01*
X128117939Y-24911000D01*
X128317898Y-24871226D01*
X128506256Y-24793205D01*
X128675774Y-24679937D01*
X128819937Y-24535774D01*
X128933205Y-24366256D01*
X129011226Y-24177898D01*
X129051000Y-23977939D01*
X129051000Y-23774061D01*
X129011226Y-23574102D01*
X128933205Y-23385744D01*
X128819937Y-23216226D01*
X128675774Y-23072063D01*
X128506256Y-22958795D01*
X128317898Y-22880774D01*
X128117939Y-22841000D01*
X127914061Y-22841000D01*
X127714102Y-22880774D01*
X127525744Y-22958795D01*
X127356226Y-23072063D01*
X127212063Y-23216226D01*
X127098795Y-23385744D01*
X127020774Y-23574102D01*
X126981000Y-23774061D01*
X126981000Y-23833369D01*
X113914654Y-36899716D01*
X113914648Y-36899721D01*
X98547654Y-52266716D01*
X98518578Y-52290578D01*
X98462983Y-52358322D01*
X98423355Y-52406608D01*
X98385535Y-52477365D01*
X98352598Y-52538986D01*
X98309026Y-52682623D01*
X98298000Y-52794574D01*
X98294314Y-52832000D01*
X98298000Y-52869423D01*
X98298001Y-187179000D01*
X98196061Y-187179000D01*
X97996102Y-187218774D01*
X97807744Y-187296795D01*
X97638226Y-187410063D01*
X97596289Y-187452000D01*
X97089631Y-187452000D01*
X83392630Y-173755000D01*
X83413939Y-173755000D01*
X83613898Y-173715226D01*
X83802256Y-173637205D01*
X83971774Y-173523937D01*
X84013711Y-173482000D01*
X84798577Y-173482000D01*
X84836000Y-173485686D01*
X84873423Y-173482000D01*
X84873426Y-173482000D01*
X84985378Y-173470974D01*
X85129015Y-173427402D01*
X85261392Y-173356645D01*
X85377422Y-173261422D01*
X85401284Y-173232346D01*
X90936353Y-167697278D01*
X90965422Y-167673422D01*
X91060645Y-167557392D01*
X91131402Y-167425015D01*
X91174974Y-167281378D01*
X91186000Y-167169426D01*
X91186000Y-167169424D01*
X91189686Y-167132001D01*
X91186000Y-167094578D01*
X91186000Y-54163630D01*
X98105631Y-47244000D01*
X102832577Y-47244000D01*
X102870000Y-47247686D01*
X102907423Y-47244000D01*
X102907426Y-47244000D01*
X103019378Y-47232974D01*
X103163015Y-47189402D01*
X103295392Y-47118645D01*
X103411422Y-47023422D01*
X103435284Y-46994346D01*
X118167279Y-32262352D01*
X118167283Y-32262347D01*
X119183279Y-31246352D01*
X119183284Y-31246346D01*
X119638347Y-30791283D01*
X119667422Y-30767422D01*
X119762645Y-30651392D01*
X119833402Y-30519015D01*
X119876974Y-30375378D01*
X119888000Y-30263426D01*
X119888000Y-30263417D01*
X119891685Y-30226001D01*
X119888000Y-30188585D01*
X119888000Y-25207630D01*
X122997631Y-22098000D01*
X125536289Y-22098000D01*
X125578226Y-22139937D01*
X125747744Y-22253205D01*
X125936102Y-22331226D01*
X126136061Y-22371000D01*
X126339939Y-22371000D01*
X126539898Y-22331226D01*
X126728256Y-22253205D01*
X126897774Y-22139937D01*
X127041937Y-21995774D01*
X127155205Y-21826256D01*
X127233226Y-21637898D01*
X127273000Y-21437939D01*
X127273000Y-21234061D01*
X127233226Y-21034102D01*
X127155205Y-20845744D01*
X127041937Y-20676226D01*
X126897774Y-20532063D01*
X126728256Y-20418795D01*
X126539898Y-20340774D01*
X126482619Y-20329381D01*
X126471226Y-20272102D01*
X126393205Y-20083744D01*
X126279937Y-19914226D01*
X126135774Y-19770063D01*
X125966256Y-19656795D01*
X125777898Y-19578774D01*
X125577939Y-19539000D01*
X125460974Y-19539000D01*
X125455226Y-19510102D01*
X125377205Y-19321744D01*
X125263937Y-19152226D01*
X125119774Y-19008063D01*
X124950256Y-18894795D01*
X124761898Y-18816774D01*
X124561939Y-18777000D01*
X124358061Y-18777000D01*
X124158102Y-18816774D01*
X123969744Y-18894795D01*
X123800226Y-19008063D01*
X123758289Y-19050000D01*
X122211422Y-19050000D01*
X122173999Y-19046314D01*
X122136576Y-19050000D01*
X122136574Y-19050000D01*
X122024622Y-19061026D01*
X121880985Y-19104598D01*
X121748608Y-19175355D01*
X121632578Y-19270578D01*
X121608721Y-19299648D01*
X117089649Y-23818721D01*
X117060579Y-23842578D01*
X117036722Y-23871648D01*
X117036721Y-23871649D01*
X116965355Y-23958608D01*
X116894599Y-24090985D01*
X116851027Y-24234622D01*
X116836314Y-24384000D01*
X116840001Y-24421433D01*
X116840000Y-29148369D01*
X101792370Y-44196000D01*
X97319422Y-44196000D01*
X97281999Y-44192314D01*
X97244576Y-44196000D01*
X97244574Y-44196000D01*
X97132622Y-44207026D01*
X96988985Y-44250598D01*
X96856608Y-44321355D01*
X96740578Y-44416578D01*
X96716721Y-44445648D01*
X88387649Y-52774721D01*
X88358579Y-52798578D01*
X88334722Y-52827648D01*
X88334721Y-52827649D01*
X88263355Y-52914608D01*
X88192599Y-53046985D01*
X88149027Y-53190622D01*
X88134314Y-53340000D01*
X88138001Y-53377433D01*
X88138000Y-160057425D01*
X88138001Y-160057435D01*
X88138000Y-162752370D01*
X81999370Y-168891000D01*
X81940061Y-168891000D01*
X81740102Y-168930774D01*
X81551744Y-169008795D01*
X81382226Y-169122063D01*
X81238063Y-169266226D01*
X81124795Y-169435744D01*
X81119107Y-169449476D01*
X58166000Y-146496370D01*
X58166000Y-142277422D01*
X58169686Y-142239999D01*
X58156651Y-142107654D01*
X58154974Y-142090622D01*
X58111402Y-141946985D01*
X58040645Y-141814608D01*
X57945422Y-141698578D01*
X57916352Y-141674721D01*
X50349284Y-134107654D01*
X50325422Y-134078578D01*
X50209392Y-133983355D01*
X50077015Y-133912598D01*
X49933378Y-133869026D01*
X49821426Y-133858000D01*
X49821423Y-133858000D01*
X49784000Y-133854314D01*
X49746577Y-133858000D01*
X48199711Y-133858000D01*
X48157774Y-133816063D01*
X47988256Y-133702795D01*
X47799898Y-133624774D01*
X47599939Y-133585000D01*
X47532998Y-133585000D01*
X47532998Y-54636632D01*
X77258631Y-24911000D01*
X77317939Y-24911000D01*
X77517898Y-24871226D01*
X77706256Y-24793205D01*
X77875774Y-24679937D01*
X78019937Y-24535774D01*
X78133205Y-24366256D01*
X78211226Y-24177898D01*
X78251000Y-23977939D01*
X78251000Y-23774061D01*
X78211226Y-23574102D01*
X78133205Y-23385744D01*
X78019937Y-23216226D01*
X77875774Y-23072063D01*
X77706256Y-22958795D01*
X77517898Y-22880774D01*
X77317939Y-22841000D01*
X77114061Y-22841000D01*
X76914102Y-22880774D01*
X76725744Y-22958795D01*
X76556226Y-23072063D01*
X76412063Y-23216226D01*
X76298795Y-23385744D01*
X76220774Y-23574102D01*
X76181000Y-23774061D01*
X76181000Y-23833369D01*
X46258652Y-53755718D01*
X46229576Y-53779580D01*
X46173981Y-53847324D01*
X46134353Y-53895610D01*
X46129185Y-53905279D01*
X46063596Y-54027988D01*
X46020024Y-54171625D01*
X46010001Y-54273392D01*
X46005312Y-54321002D01*
X46008998Y-54358425D01*
X46008999Y-227073565D01*
X46005312Y-227110998D01*
X46020025Y-227260376D01*
X46063597Y-227404013D01*
X46134353Y-227536390D01*
X46205173Y-227622684D01*
X46229577Y-227652420D01*
X46258647Y-227676277D01*
X47225000Y-228642631D01*
X47225000Y-228701939D01*
X47264774Y-228901898D01*
X47342795Y-229090256D01*
X47456063Y-229259774D01*
X47600226Y-229403937D01*
X47769744Y-229517205D01*
X47958102Y-229595226D01*
X48158061Y-229635000D01*
X48361939Y-229635000D01*
X48561898Y-229595226D01*
X48750256Y-229517205D01*
X48919774Y-229403937D01*
X49063937Y-229259774D01*
X49177205Y-229090256D01*
X49255226Y-228901898D01*
X49295000Y-228701939D01*
X49295000Y-228498061D01*
X49255226Y-228298102D01*
X49177205Y-228109744D01*
X49063937Y-227940226D01*
X48919774Y-227796063D01*
X48750256Y-227682795D01*
X48561898Y-227604774D01*
X48361939Y-227565000D01*
X48302631Y-227565000D01*
X47532998Y-226795368D01*
X47532998Y-137687000D01*
X47599939Y-137687000D01*
X47799898Y-137647226D01*
X47988256Y-137569205D01*
X48157774Y-137455937D01*
X48199711Y-137414000D01*
X48960370Y-137414000D01*
X54864001Y-143317632D01*
X54864000Y-144563425D01*
X54864001Y-144563435D01*
X54864000Y-148552577D01*
X54860314Y-148590000D01*
X54864000Y-148627423D01*
X54864000Y-148627425D01*
X54875026Y-148739377D01*
X54918598Y-148883014D01*
X54918599Y-148883015D01*
X54989355Y-149015392D01*
X55028983Y-149063678D01*
X55084578Y-149131422D01*
X55113654Y-149155284D01*
X57854721Y-151896351D01*
X78467000Y-172508631D01*
X78467000Y-172567939D01*
X78506774Y-172767898D01*
X78584795Y-172956256D01*
X78698063Y-173125774D01*
X78842226Y-173269937D01*
X79011744Y-173383205D01*
X79200102Y-173461226D01*
X79400061Y-173501000D01*
X79459370Y-173501000D01*
X95954721Y-189996352D01*
X95978578Y-190025422D01*
X96094608Y-190120645D01*
X96226985Y-190191402D01*
X96370622Y-190234974D01*
X96482574Y-190246000D01*
X96482576Y-190246000D01*
X96519999Y-190249686D01*
X96557422Y-190246000D01*
X97596289Y-190246000D01*
X97638226Y-190287937D01*
X97807744Y-190401205D01*
X97996102Y-190479226D01*
X98196061Y-190519000D01*
X98298001Y-190519000D01*
X98298001Y-227898288D01*
X98256063Y-227940226D01*
X98142795Y-228109744D01*
X98064774Y-228298102D01*
X98025000Y-228498061D01*
X98025000Y-228701939D01*
X98064774Y-228901898D01*
X98142795Y-229090256D01*
X98256063Y-229259774D01*
X98400226Y-229403937D01*
X98569744Y-229517205D01*
X98758102Y-229595226D01*
X98958061Y-229635000D01*
X99161939Y-229635000D01*
X99361898Y-229595226D01*
X99550256Y-229517205D01*
X99719774Y-229403937D01*
X99863937Y-229259774D01*
X99977205Y-229090256D01*
X100055226Y-228901898D01*
X100095000Y-228701939D01*
X100095000Y-228498061D01*
X100055226Y-228298102D01*
X99977205Y-228109744D01*
X99863937Y-227940226D01*
X99822000Y-227898289D01*
X99822000Y-53147630D01*
X108294591Y-44675040D01*
X108296721Y-44680182D01*
X108409989Y-44849700D01*
X108451927Y-44891638D01*
X108451926Y-108004215D01*
X108409989Y-108046152D01*
X108296721Y-108215670D01*
X108218700Y-108404028D01*
X108178926Y-108603987D01*
X108178926Y-108807865D01*
X108218700Y-109007824D01*
X108296721Y-109196182D01*
X108409989Y-109365700D01*
X108451927Y-109407638D01*
X108451926Y-205188503D01*
X108448240Y-205225926D01*
X108451926Y-205263349D01*
X108451926Y-205263351D01*
X108462952Y-205375303D01*
X108506524Y-205518940D01*
X108539461Y-205580561D01*
X108577281Y-205651318D01*
X108583653Y-205659082D01*
X108672504Y-205767348D01*
X108701580Y-205791210D01*
X119119297Y-216208928D01*
X118244000Y-216208928D01*
X118119518Y-216221188D01*
X117999820Y-216257498D01*
X117889506Y-216316463D01*
X117792815Y-216395815D01*
X117713463Y-216492506D01*
X117654498Y-216602820D01*
X117651063Y-216614144D01*
X117564608Y-216660355D01*
X117547072Y-216674746D01*
X117547072Y-215297000D01*
X117534812Y-215172518D01*
X117498502Y-215052820D01*
X117439537Y-214942506D01*
X117360185Y-214845815D01*
X117263494Y-214766463D01*
X117153180Y-214707498D01*
X117033482Y-214671188D01*
X116909000Y-214658928D01*
X116009000Y-214658928D01*
X115884518Y-214671188D01*
X115824000Y-214689546D01*
X115763482Y-214671188D01*
X115639000Y-214658928D01*
X114739000Y-214658928D01*
X114614518Y-214671188D01*
X114554000Y-214689546D01*
X114493482Y-214671188D01*
X114369000Y-214658928D01*
X113469000Y-214658928D01*
X113344518Y-214671188D01*
X113284000Y-214689546D01*
X113223482Y-214671188D01*
X113099000Y-214658928D01*
X112199000Y-214658928D01*
X112074518Y-214671188D01*
X112014000Y-214689546D01*
X111953482Y-214671188D01*
X111829000Y-214658928D01*
X110929000Y-214658928D01*
X110804518Y-214671188D01*
X110744000Y-214689546D01*
X110683482Y-214671188D01*
X110559000Y-214658928D01*
X109659000Y-214658928D01*
X109534518Y-214671188D01*
X109474000Y-214689546D01*
X109413482Y-214671188D01*
X109289000Y-214658928D01*
X108389000Y-214658928D01*
X108264518Y-214671188D01*
X108204000Y-214689546D01*
X108143482Y-214671188D01*
X108019000Y-214658928D01*
X107119000Y-214658928D01*
X106994518Y-214671188D01*
X106934000Y-214689546D01*
X106873482Y-214671188D01*
X106749000Y-214658928D01*
X106040256Y-214658928D01*
X106030298Y-214557829D01*
X105972202Y-214366313D01*
X105877860Y-214189810D01*
X105750896Y-214035104D01*
X105712127Y-214003287D01*
X105506046Y-213797206D01*
X105451937Y-213716226D01*
X105307774Y-213572063D01*
X105138256Y-213458795D01*
X104949898Y-213380774D01*
X104749939Y-213341000D01*
X104546061Y-213341000D01*
X104346102Y-213380774D01*
X104157744Y-213458795D01*
X103988226Y-213572063D01*
X103844063Y-213716226D01*
X103730795Y-213885744D01*
X103652774Y-214074102D01*
X103613000Y-214274061D01*
X103613000Y-214477939D01*
X103652774Y-214677898D01*
X103730795Y-214866256D01*
X103844063Y-215035774D01*
X103959616Y-215151327D01*
X103953188Y-215172518D01*
X103940928Y-215297000D01*
X103940928Y-217297000D01*
X103953188Y-217421482D01*
X103989498Y-217541180D01*
X104048463Y-217651494D01*
X104127815Y-217748185D01*
X104224506Y-217827537D01*
X104334820Y-217886502D01*
X104454518Y-217922812D01*
X104579000Y-217935072D01*
X105479000Y-217935072D01*
X105603482Y-217922812D01*
X105664000Y-217904454D01*
X105724518Y-217922812D01*
X105849000Y-217935072D01*
X106749000Y-217935072D01*
X106873482Y-217922812D01*
X106934000Y-217904454D01*
X106994518Y-217922812D01*
X107119000Y-217935072D01*
X108019000Y-217935072D01*
X108143482Y-217922812D01*
X108204000Y-217904454D01*
X108264518Y-217922812D01*
X108389000Y-217935072D01*
X109289000Y-217935072D01*
X109413482Y-217922812D01*
X109474000Y-217904454D01*
X109534518Y-217922812D01*
X109659000Y-217935072D01*
X110559000Y-217935072D01*
X110683482Y-217922812D01*
X110744000Y-217904454D01*
X110804518Y-217922812D01*
X110929000Y-217935072D01*
X111829000Y-217935072D01*
X111953482Y-217922812D01*
X112014000Y-217904454D01*
X112074518Y-217922812D01*
X112199000Y-217935072D01*
X113099000Y-217935072D01*
X113223482Y-217922812D01*
X113284000Y-217904454D01*
X113344518Y-217922812D01*
X113469000Y-217935072D01*
X114369000Y-217935072D01*
X114493482Y-217922812D01*
X114554000Y-217904454D01*
X114614518Y-217922812D01*
X114739000Y-217935072D01*
X115639000Y-217935072D01*
X115763482Y-217922812D01*
X115824000Y-217904454D01*
X115884518Y-217922812D01*
X116009000Y-217935072D01*
X116582701Y-217935072D01*
X116582314Y-217939000D01*
X116586000Y-217976423D01*
X116586001Y-233134565D01*
X116586000Y-233134575D01*
X116586000Y-233424334D01*
X113916320Y-230754654D01*
X113892458Y-230725578D01*
X113776428Y-230630355D01*
X113644051Y-230559598D01*
X113500414Y-230516026D01*
X113388462Y-230505000D01*
X113388459Y-230505000D01*
X113351036Y-230501314D01*
X113313613Y-230505000D01*
X103876360Y-230505000D01*
X103882072Y-230447000D01*
X103882072Y-229547000D01*
X103869812Y-229422518D01*
X103851454Y-229362000D01*
X103869812Y-229301482D01*
X103882072Y-229177000D01*
X103882072Y-228277000D01*
X103869812Y-228152518D01*
X103851454Y-228092000D01*
X103869812Y-228031482D01*
X103882072Y-227907000D01*
X103882072Y-227007000D01*
X103869812Y-226882518D01*
X103851454Y-226822000D01*
X103869812Y-226761482D01*
X103882072Y-226637000D01*
X103882072Y-225737000D01*
X103869812Y-225612518D01*
X103851454Y-225552000D01*
X103869812Y-225491482D01*
X103882072Y-225367000D01*
X103882072Y-224467000D01*
X103869812Y-224342518D01*
X103851454Y-224282000D01*
X103869812Y-224221482D01*
X103882072Y-224097000D01*
X103882072Y-223807000D01*
X106605928Y-223807000D01*
X106605928Y-228807000D01*
X106618188Y-228931482D01*
X106654498Y-229051180D01*
X106713463Y-229161494D01*
X106792815Y-229258185D01*
X106889506Y-229337537D01*
X106999820Y-229396502D01*
X107119518Y-229432812D01*
X107244000Y-229445072D01*
X112244000Y-229445072D01*
X112368482Y-229432812D01*
X112488180Y-229396502D01*
X112598494Y-229337537D01*
X112695185Y-229258185D01*
X112774537Y-229161494D01*
X112833502Y-229051180D01*
X112869812Y-228931482D01*
X112882072Y-228807000D01*
X112882072Y-223807000D01*
X112869812Y-223682518D01*
X112833502Y-223562820D01*
X112774537Y-223452506D01*
X112695185Y-223355815D01*
X112598494Y-223276463D01*
X112488180Y-223217498D01*
X112368482Y-223181188D01*
X112244000Y-223168928D01*
X107244000Y-223168928D01*
X107119518Y-223181188D01*
X106999820Y-223217498D01*
X106889506Y-223276463D01*
X106792815Y-223355815D01*
X106713463Y-223452506D01*
X106654498Y-223562820D01*
X106618188Y-223682518D01*
X106605928Y-223807000D01*
X103882072Y-223807000D01*
X103882072Y-223197000D01*
X103869812Y-223072518D01*
X103851454Y-223012000D01*
X103869812Y-222951482D01*
X103882072Y-222827000D01*
X103882072Y-221927000D01*
X103869812Y-221802518D01*
X103851454Y-221742000D01*
X103869812Y-221681482D01*
X103882072Y-221557000D01*
X103882072Y-220657000D01*
X103869812Y-220532518D01*
X103851454Y-220472000D01*
X103869812Y-220411482D01*
X103882072Y-220287000D01*
X103882072Y-219387000D01*
X103869812Y-219262518D01*
X103851454Y-219202000D01*
X103869812Y-219141482D01*
X103882072Y-219017000D01*
X103882072Y-218117000D01*
X103869812Y-217992518D01*
X103851454Y-217932000D01*
X103869812Y-217871482D01*
X103882072Y-217747000D01*
X103882072Y-216847000D01*
X103869812Y-216722518D01*
X103833502Y-216602820D01*
X103774537Y-216492506D01*
X103695185Y-216395815D01*
X103598494Y-216316463D01*
X103488180Y-216257498D01*
X103368482Y-216221188D01*
X103244000Y-216208928D01*
X101244000Y-216208928D01*
X101119518Y-216221188D01*
X100999820Y-216257498D01*
X100889506Y-216316463D01*
X100792815Y-216395815D01*
X100713463Y-216492506D01*
X100654498Y-216602820D01*
X100618188Y-216722518D01*
X100605928Y-216847000D01*
X100605928Y-217747000D01*
X100618188Y-217871482D01*
X100636546Y-217932000D01*
X100618188Y-217992518D01*
X100605928Y-218117000D01*
X100605928Y-219017000D01*
X100618188Y-219141482D01*
X100636546Y-219202000D01*
X100618188Y-219262518D01*
X100605928Y-219387000D01*
X100605928Y-220287000D01*
X100618188Y-220411482D01*
X100636546Y-220472000D01*
X100618188Y-220532518D01*
X100605928Y-220657000D01*
X100605928Y-221557000D01*
X100618188Y-221681482D01*
X100636546Y-221742000D01*
X100618188Y-221802518D01*
X100605928Y-221927000D01*
X100605928Y-222827000D01*
X100618188Y-222951482D01*
X100636546Y-223012000D01*
X100618188Y-223072518D01*
X100605928Y-223197000D01*
X100605928Y-224097000D01*
X100618188Y-224221482D01*
X100636546Y-224282000D01*
X100618188Y-224342518D01*
X100605928Y-224467000D01*
X100605928Y-225367000D01*
X100618188Y-225491482D01*
X100636546Y-225552000D01*
X100618188Y-225612518D01*
X100605928Y-225737000D01*
X100605928Y-226637000D01*
X100618188Y-226761482D01*
X100636546Y-226822000D01*
X100618188Y-226882518D01*
X100605928Y-227007000D01*
X100605928Y-227907000D01*
X100618188Y-228031482D01*
X100636546Y-228092000D01*
X100618188Y-228152518D01*
X100605928Y-228277000D01*
X100605928Y-229177000D01*
X100618188Y-229301482D01*
X100636546Y-229362000D01*
X100618188Y-229422518D01*
X100605928Y-229547000D01*
X100605928Y-230447000D01*
X100618188Y-230571482D01*
X100636546Y-230632000D01*
X100618188Y-230692518D01*
X100605928Y-230817000D01*
X100605928Y-231521000D01*
X97352459Y-231521000D01*
X97256939Y-231502000D01*
X97053061Y-231502000D01*
X96957541Y-231521000D01*
X95797841Y-231521000D01*
X88392000Y-224115160D01*
X88392000Y-222701459D01*
X88411000Y-222605939D01*
X88411000Y-222402061D01*
X88371226Y-222202102D01*
X88293205Y-222013744D01*
X88179937Y-221844226D01*
X88035774Y-221700063D01*
X87866256Y-221586795D01*
X87677898Y-221508774D01*
X87477939Y-221469000D01*
X87274061Y-221469000D01*
X87074102Y-221508774D01*
X86885744Y-221586795D01*
X86716226Y-221700063D01*
X86572063Y-221844226D01*
X86458795Y-222013744D01*
X86380774Y-222202102D01*
X86341000Y-222402061D01*
X86341000Y-222605939D01*
X86360000Y-222701460D01*
X86360001Y-224486089D01*
X86355085Y-224536000D01*
X86374702Y-224735170D01*
X86403170Y-224829015D01*
X86432799Y-224926687D01*
X86527141Y-225103190D01*
X86654105Y-225257896D01*
X86692868Y-225289708D01*
X94623292Y-233220133D01*
X94655104Y-233258896D01*
X94809810Y-233385860D01*
X94937676Y-233454205D01*
X94986313Y-233480202D01*
X95177829Y-233538298D01*
X95377000Y-233557915D01*
X95426902Y-233553000D01*
X96957541Y-233553000D01*
X97053061Y-233572000D01*
X97256939Y-233572000D01*
X97352459Y-233553000D01*
X99045985Y-233553000D01*
X99041000Y-233578061D01*
X99041000Y-233781939D01*
X99080774Y-233981898D01*
X99158795Y-234170256D01*
X99272063Y-234339774D01*
X99416226Y-234483937D01*
X99478180Y-234525333D01*
X99481104Y-234528896D01*
X99635810Y-234655860D01*
X99812313Y-234750202D01*
X100003829Y-234808298D01*
X100153098Y-234823000D01*
X100202999Y-234827915D01*
X100252901Y-234823000D01*
X100955852Y-234823000D01*
X100999820Y-234846502D01*
X101119518Y-234882812D01*
X101244000Y-234895072D01*
X103244000Y-234895072D01*
X103368482Y-234882812D01*
X103488180Y-234846502D01*
X103598494Y-234787537D01*
X103695185Y-234708185D01*
X103774537Y-234611494D01*
X103833502Y-234501180D01*
X103869812Y-234381482D01*
X103882072Y-234257000D01*
X103882072Y-233357000D01*
X103876360Y-233299000D01*
X112463510Y-233299000D01*
X112480063Y-233323774D01*
X112624226Y-233467937D01*
X112793744Y-233581205D01*
X112982102Y-233659226D01*
X113182061Y-233699000D01*
X113385939Y-233699000D01*
X113585898Y-233659226D01*
X113774256Y-233581205D01*
X113943774Y-233467937D01*
X114087937Y-233323774D01*
X114184966Y-233178560D01*
X116083405Y-235077000D01*
X96520000Y-235077000D01*
X96495224Y-235079440D01*
X96471399Y-235086667D01*
X96449443Y-235098403D01*
X96430197Y-235114197D01*
X96414403Y-235133443D01*
X96402667Y-235155399D01*
X96395440Y-235179224D01*
X96393000Y-235204000D01*
X96393000Y-240640000D01*
X13360000Y-240640000D01*
X13360000Y-228498061D01*
X21825000Y-228498061D01*
X21825000Y-228701939D01*
X21864774Y-228901898D01*
X21942795Y-229090256D01*
X22056063Y-229259774D01*
X22200226Y-229403937D01*
X22369744Y-229517205D01*
X22558102Y-229595226D01*
X22758061Y-229635000D01*
X22961939Y-229635000D01*
X23161898Y-229595226D01*
X23350256Y-229517205D01*
X23519774Y-229403937D01*
X23663937Y-229259774D01*
X23777205Y-229090256D01*
X23855226Y-228901898D01*
X23895000Y-228701939D01*
X23895000Y-228642630D01*
X32624326Y-219913304D01*
X32653402Y-219889442D01*
X32715067Y-219814303D01*
X32748625Y-219773413D01*
X32819381Y-219641036D01*
X32819382Y-219641035D01*
X32862954Y-219497398D01*
X32873980Y-219385446D01*
X32873980Y-219385443D01*
X32877666Y-219348020D01*
X32873980Y-219310597D01*
X32873980Y-33601582D01*
X33147574Y-33327989D01*
X43088588Y-33327989D01*
X43126011Y-33331675D01*
X43163434Y-33327989D01*
X43163437Y-33327989D01*
X43275389Y-33316963D01*
X43419026Y-33273391D01*
X43551403Y-33202634D01*
X43667433Y-33107411D01*
X43691295Y-33078335D01*
X51858631Y-24911000D01*
X51917939Y-24911000D01*
X52117898Y-24871226D01*
X52306256Y-24793205D01*
X52475774Y-24679937D01*
X52619937Y-24535774D01*
X52733205Y-24366256D01*
X52811226Y-24177898D01*
X52851000Y-23977939D01*
X52851000Y-23774061D01*
X52811226Y-23574102D01*
X52733205Y-23385744D01*
X52619937Y-23216226D01*
X52475774Y-23072063D01*
X52306256Y-22958795D01*
X52117898Y-22880774D01*
X51917939Y-22841000D01*
X51714061Y-22841000D01*
X51514102Y-22880774D01*
X51325744Y-22958795D01*
X51156226Y-23072063D01*
X51012063Y-23216226D01*
X50898795Y-23385744D01*
X50820774Y-23574102D01*
X50781000Y-23774061D01*
X50781000Y-23833369D01*
X42810381Y-31803989D01*
X32869365Y-31803989D01*
X32831942Y-31800303D01*
X32794519Y-31803989D01*
X32794517Y-31803989D01*
X32682565Y-31815015D01*
X32538928Y-31858587D01*
X32406551Y-31929344D01*
X32290521Y-32024567D01*
X32266663Y-32053638D01*
X31599633Y-32720669D01*
X31570558Y-32744530D01*
X31543889Y-32777027D01*
X31475335Y-32860560D01*
X31458875Y-32891355D01*
X31404578Y-32992938D01*
X31361006Y-33136575D01*
X31354500Y-33202634D01*
X31346294Y-33285952D01*
X31349980Y-33323375D01*
X31349981Y-219032389D01*
X22817370Y-227565000D01*
X22758061Y-227565000D01*
X22558102Y-227604774D01*
X22369744Y-227682795D01*
X22200226Y-227796063D01*
X22056063Y-227940226D01*
X21942795Y-228109744D01*
X21864774Y-228298102D01*
X21825000Y-228498061D01*
X13360000Y-228498061D01*
X13360000Y-132140199D01*
X18594921Y-132140199D01*
X18594921Y-132344077D01*
X18634695Y-132544036D01*
X18712716Y-132732394D01*
X18825984Y-132901912D01*
X18867921Y-132943849D01*
X18867922Y-134146488D01*
X18864235Y-134183921D01*
X18878948Y-134333299D01*
X18922520Y-134476936D01*
X18993276Y-134609313D01*
X19064642Y-134696272D01*
X19088500Y-134725343D01*
X19117570Y-134749200D01*
X21532720Y-137164351D01*
X21556578Y-137193422D01*
X21585648Y-137217279D01*
X21672607Y-137288645D01*
X21715879Y-137311774D01*
X21804985Y-137359402D01*
X21948622Y-137402974D01*
X22060574Y-137414000D01*
X22060577Y-137414000D01*
X22098000Y-137417686D01*
X22135423Y-137414000D01*
X23174289Y-137414000D01*
X23216226Y-137455937D01*
X23385744Y-137569205D01*
X23574102Y-137647226D01*
X23774061Y-137687000D01*
X23977939Y-137687000D01*
X24177898Y-137647226D01*
X24366256Y-137569205D01*
X24535774Y-137455937D01*
X24679937Y-137311774D01*
X24793205Y-137142256D01*
X24871226Y-136953898D01*
X24911000Y-136753939D01*
X24911000Y-136550061D01*
X24871226Y-136350102D01*
X24793205Y-136161744D01*
X24782860Y-136146262D01*
X24796228Y-136126256D01*
X24874249Y-135937898D01*
X24914023Y-135737939D01*
X24914023Y-135559016D01*
X24968637Y-135522524D01*
X25112800Y-135378361D01*
X25226068Y-135208843D01*
X25304089Y-135020485D01*
X25343863Y-134820526D01*
X25343863Y-134616648D01*
X25304089Y-134416689D01*
X25226068Y-134228331D01*
X25112800Y-134058813D01*
X24968637Y-133914650D01*
X24799119Y-133801382D01*
X24610761Y-133723361D01*
X24410802Y-133683587D01*
X24206924Y-133683587D01*
X24006965Y-133723361D01*
X23818607Y-133801382D01*
X23672165Y-133899231D01*
X23641022Y-133868088D01*
X23641022Y-132784500D01*
X23644708Y-132747077D01*
X23640926Y-132708676D01*
X23629996Y-132597700D01*
X23586424Y-132454063D01*
X23515667Y-132321686D01*
X23420444Y-132205656D01*
X23391374Y-132181799D01*
X21857952Y-130648378D01*
X21857952Y-130589069D01*
X21818178Y-130389110D01*
X21740157Y-130200752D01*
X21626889Y-130031234D01*
X21482726Y-129887071D01*
X21313208Y-129773803D01*
X21124850Y-129695782D01*
X20924891Y-129656008D01*
X20721013Y-129656008D01*
X20521054Y-129695782D01*
X20332696Y-129773803D01*
X20163178Y-129887071D01*
X20019015Y-130031234D01*
X19905747Y-130200752D01*
X19827726Y-130389110D01*
X19787952Y-130589069D01*
X19787952Y-130750178D01*
X19730442Y-130788605D01*
X19586279Y-130932768D01*
X19473011Y-131102286D01*
X19420744Y-131228469D01*
X19328023Y-131246912D01*
X19139665Y-131324933D01*
X18970147Y-131438201D01*
X18825984Y-131582364D01*
X18712716Y-131751882D01*
X18634695Y-131940240D01*
X18594921Y-132140199D01*
X13360000Y-132140199D01*
X13360000Y-22250061D01*
X28429000Y-22250061D01*
X28429000Y-22453939D01*
X28468774Y-22653898D01*
X28546795Y-22842256D01*
X28660063Y-23011774D01*
X28804226Y-23155937D01*
X28973744Y-23269205D01*
X29162102Y-23347226D01*
X29362061Y-23387000D01*
X29565939Y-23387000D01*
X29765898Y-23347226D01*
X29954256Y-23269205D01*
X30123774Y-23155937D01*
X30267937Y-23011774D01*
X30381205Y-22842256D01*
X30459226Y-22653898D01*
X30499000Y-22453939D01*
X30499000Y-22394630D01*
X36891631Y-16002000D01*
X89092370Y-16002000D01*
X89662001Y-16571632D01*
X89662000Y-31966577D01*
X89658314Y-32004000D01*
X89662000Y-32041423D01*
X89662000Y-32041425D01*
X89673026Y-32153377D01*
X89716598Y-32297014D01*
X89716599Y-32297015D01*
X89787355Y-32429392D01*
X89810342Y-32457401D01*
X89882578Y-32545422D01*
X89911654Y-32569284D01*
X99041000Y-41698631D01*
X99041000Y-41757939D01*
X99080774Y-41957898D01*
X99158795Y-42146256D01*
X99272063Y-42315774D01*
X99416226Y-42459937D01*
X99585744Y-42573205D01*
X99774102Y-42651226D01*
X99974061Y-42691000D01*
X100177939Y-42691000D01*
X100377898Y-42651226D01*
X100566256Y-42573205D01*
X100735774Y-42459937D01*
X100879937Y-42315774D01*
X100993205Y-42146256D01*
X101071226Y-41957898D01*
X101111000Y-41757939D01*
X101111000Y-41554061D01*
X101071226Y-41354102D01*
X100993205Y-41165744D01*
X100879937Y-40996226D01*
X100735774Y-40852063D01*
X100566256Y-40738795D01*
X100377898Y-40660774D01*
X100177939Y-40621000D01*
X100118631Y-40621000D01*
X91186000Y-31688370D01*
X91186000Y-16293423D01*
X91189686Y-16256000D01*
X91186000Y-16218574D01*
X91174974Y-16106622D01*
X91131402Y-15962985D01*
X91085252Y-15876645D01*
X91060645Y-15830607D01*
X90989279Y-15743648D01*
X90965422Y-15714578D01*
X90936351Y-15690721D01*
X89973284Y-14727654D01*
X89949422Y-14698578D01*
X89833392Y-14603355D01*
X89701015Y-14532598D01*
X89557378Y-14489026D01*
X89445426Y-14478000D01*
X89445423Y-14478000D01*
X89408000Y-14474314D01*
X89370577Y-14478000D01*
X36613423Y-14478000D01*
X36576000Y-14474314D01*
X36538577Y-14478000D01*
X36538574Y-14478000D01*
X36426622Y-14489026D01*
X36282985Y-14532598D01*
X36221364Y-14565535D01*
X36150607Y-14603355D01*
X36094510Y-14649393D01*
X36034578Y-14698578D01*
X36010721Y-14727648D01*
X29421370Y-21317000D01*
X29362061Y-21317000D01*
X29162102Y-21356774D01*
X28973744Y-21434795D01*
X28804226Y-21548063D01*
X28660063Y-21692226D01*
X28546795Y-21861744D01*
X28468774Y-22050102D01*
X28429000Y-22250061D01*
X13360000Y-22250061D01*
X13360000Y-13360000D01*
X240640000Y-13360000D01*
X240640001Y-240640000D01*
G36*
X291440000Y-120334118D02*
G01*
X291379937Y-120244226D01*
X291235774Y-120100063D01*
X291066256Y-119986795D01*
X290877898Y-119908774D01*
X290677939Y-119869000D01*
X290474061Y-119869000D01*
X290274102Y-119908774D01*
X290085744Y-119986795D01*
X289916226Y-120100063D01*
X289772063Y-120244226D01*
X289658795Y-120413744D01*
X289607237Y-120538214D01*
X289542256Y-120494795D01*
X289353898Y-120416774D01*
X289153939Y-120377000D01*
X288950061Y-120377000D01*
X288750102Y-120416774D01*
X288561744Y-120494795D01*
X288392226Y-120608063D01*
X288248063Y-120752226D01*
X288134795Y-120921744D01*
X288056774Y-121110102D01*
X288017000Y-121310061D01*
X288017000Y-121513939D01*
X288056774Y-121713898D01*
X288134795Y-121902256D01*
X288248063Y-122071774D01*
X288392226Y-122215937D01*
X288561744Y-122329205D01*
X288750102Y-122407226D01*
X288950061Y-122447000D01*
X289009370Y-122447000D01*
X289814000Y-123251631D01*
X289814001Y-126298288D01*
X289772063Y-126340226D01*
X289701347Y-126446060D01*
X288641551Y-125386264D01*
X288613711Y-125352341D01*
X288478343Y-125241247D01*
X288323903Y-125158697D01*
X288156326Y-125107864D01*
X288025719Y-125095000D01*
X288025712Y-125095000D01*
X287982052Y-125090700D01*
X287938392Y-125095000D01*
X286028468Y-125095000D01*
X285986256Y-125066795D01*
X285797898Y-124988774D01*
X285597939Y-124949000D01*
X285394061Y-124949000D01*
X285194102Y-124988774D01*
X285005744Y-125066795D01*
X284836226Y-125180063D01*
X284692063Y-125324226D01*
X284578795Y-125493744D01*
X284500774Y-125682102D01*
X284461000Y-125882061D01*
X284461000Y-126085939D01*
X284500774Y-126285898D01*
X284578795Y-126474256D01*
X284692063Y-126643774D01*
X284836226Y-126787937D01*
X285005744Y-126901205D01*
X285194102Y-126979226D01*
X285394061Y-127019000D01*
X285597939Y-127019000D01*
X285797898Y-126979226D01*
X285986256Y-126901205D01*
X286028468Y-126873000D01*
X287613817Y-126873000D01*
X288987827Y-128247011D01*
X288997731Y-128296803D01*
X289075752Y-128485161D01*
X289189020Y-128654679D01*
X289333183Y-128798842D01*
X289502701Y-128912110D01*
X289691059Y-128990131D01*
X289891018Y-129029905D01*
X290094896Y-129029905D01*
X290294855Y-128990131D01*
X290483213Y-128912110D01*
X290652731Y-128798842D01*
X290796894Y-128654679D01*
X290910162Y-128485161D01*
X290988183Y-128296803D01*
X291027957Y-128096844D01*
X291027957Y-127933069D01*
X291066256Y-127917205D01*
X291235774Y-127803937D01*
X291379937Y-127659774D01*
X291440001Y-127569882D01*
X291440001Y-240640000D01*
X267360000Y-240640000D01*
X267360000Y-231128061D01*
X275915000Y-231128061D01*
X275915000Y-231331939D01*
X275954774Y-231531898D01*
X276032795Y-231720256D01*
X276146063Y-231889774D01*
X276188000Y-231931711D01*
X276188001Y-233732567D01*
X276184314Y-233770000D01*
X276199027Y-233919378D01*
X276242599Y-234063015D01*
X276313355Y-234195392D01*
X276384721Y-234282351D01*
X276408579Y-234311422D01*
X276437649Y-234335279D01*
X277965000Y-235862631D01*
X277965000Y-235921939D01*
X278004774Y-236121898D01*
X278082795Y-236310256D01*
X278196063Y-236479774D01*
X278340226Y-236623937D01*
X278509744Y-236737205D01*
X278698102Y-236815226D01*
X278898061Y-236855000D01*
X279101939Y-236855000D01*
X279301898Y-236815226D01*
X279490256Y-236737205D01*
X279659774Y-236623937D01*
X279803937Y-236479774D01*
X279917205Y-236310256D01*
X279995226Y-236121898D01*
X280035000Y-235921939D01*
X280035000Y-235718061D01*
X279995226Y-235518102D01*
X279917205Y-235329744D01*
X279803937Y-235160226D01*
X279659774Y-235016063D01*
X279490256Y-234902795D01*
X279301898Y-234824774D01*
X279101939Y-234785000D01*
X279042631Y-234785000D01*
X277712000Y-233454370D01*
X277712000Y-231931711D01*
X277753937Y-231889774D01*
X277867205Y-231720256D01*
X277945226Y-231531898D01*
X277985000Y-231331939D01*
X277985000Y-231128061D01*
X277945226Y-230928102D01*
X277867205Y-230739744D01*
X277753937Y-230570226D01*
X277609774Y-230426063D01*
X277440256Y-230312795D01*
X277251898Y-230234774D01*
X277051939Y-230195000D01*
X276848061Y-230195000D01*
X276648102Y-230234774D01*
X276459744Y-230312795D01*
X276290226Y-230426063D01*
X276146063Y-230570226D01*
X276032795Y-230739744D01*
X275954774Y-230928102D01*
X275915000Y-231128061D01*
X267360000Y-231128061D01*
X267360000Y-174650061D01*
X280905000Y-174650061D01*
X280905000Y-174853939D01*
X280944774Y-175053898D01*
X281022795Y-175242256D01*
X281136063Y-175411774D01*
X281280226Y-175555937D01*
X281449744Y-175669205D01*
X281638102Y-175747226D01*
X281838061Y-175787000D01*
X282041939Y-175787000D01*
X282241898Y-175747226D01*
X282430256Y-175669205D01*
X282599774Y-175555937D01*
X282743937Y-175411774D01*
X282857205Y-175242256D01*
X282935226Y-175053898D01*
X282975000Y-174853939D01*
X282975000Y-174794630D01*
X284286960Y-173482671D01*
X284328226Y-173523937D01*
X284497744Y-173637205D01*
X284686102Y-173715226D01*
X284886061Y-173755000D01*
X285089939Y-173755000D01*
X285289898Y-173715226D01*
X285478256Y-173637205D01*
X285647774Y-173523937D01*
X285791937Y-173379774D01*
X285905205Y-173210256D01*
X285983226Y-173021898D01*
X286023000Y-172821939D01*
X286023000Y-172618061D01*
X285983226Y-172418102D01*
X285905205Y-172229744D01*
X285791937Y-172060226D01*
X285647774Y-171916063D01*
X285478256Y-171802795D01*
X285289898Y-171724774D01*
X285089939Y-171685000D01*
X284886061Y-171685000D01*
X284686102Y-171724774D01*
X284497744Y-171802795D01*
X284328226Y-171916063D01*
X284286289Y-171958000D01*
X284009423Y-171958000D01*
X283972000Y-171954314D01*
X283934577Y-171958000D01*
X283934574Y-171958000D01*
X283822622Y-171969026D01*
X283678985Y-172012598D01*
X283617364Y-172045535D01*
X283546607Y-172083355D01*
X283463904Y-172151228D01*
X283430578Y-172178578D01*
X283406721Y-172207648D01*
X281897370Y-173717000D01*
X281838061Y-173717000D01*
X281638102Y-173756774D01*
X281449744Y-173834795D01*
X281280226Y-173948063D01*
X281136063Y-174092226D01*
X281022795Y-174261744D01*
X280944774Y-174450102D01*
X280905000Y-174650061D01*
X267360000Y-174650061D01*
X267360000Y-154954061D01*
X276217000Y-154954061D01*
X276217000Y-155157939D01*
X276256774Y-155357898D01*
X276334795Y-155546256D01*
X276448063Y-155715774D01*
X276592226Y-155859937D01*
X276761744Y-155973205D01*
X276950102Y-156051226D01*
X277150061Y-156091000D01*
X277209370Y-156091000D01*
X279519000Y-158400631D01*
X279519000Y-158459939D01*
X279558774Y-158659898D01*
X279636795Y-158848256D01*
X279750063Y-159017774D01*
X279894226Y-159161937D01*
X280063744Y-159275205D01*
X280252102Y-159353226D01*
X280452061Y-159393000D01*
X280655939Y-159393000D01*
X280855898Y-159353226D01*
X281044256Y-159275205D01*
X281213774Y-159161937D01*
X281357937Y-159017774D01*
X281471205Y-158848256D01*
X281549226Y-158659898D01*
X281589000Y-158459939D01*
X281589000Y-158256061D01*
X281549226Y-158056102D01*
X281471205Y-157867744D01*
X281357937Y-157698226D01*
X281213774Y-157554063D01*
X281044256Y-157440795D01*
X280892804Y-157378061D01*
X281413000Y-157378061D01*
X281413000Y-157581939D01*
X281452774Y-157781898D01*
X281530795Y-157970256D01*
X281644063Y-158139774D01*
X281686000Y-158181711D01*
X281686001Y-162366288D01*
X281644063Y-162408226D01*
X281530795Y-162577744D01*
X281452774Y-162766102D01*
X281413000Y-162966061D01*
X281413000Y-163169939D01*
X281452774Y-163369898D01*
X281530795Y-163558256D01*
X281644063Y-163727774D01*
X281788226Y-163871937D01*
X281957744Y-163985205D01*
X282146102Y-164063226D01*
X282346061Y-164103000D01*
X282549939Y-164103000D01*
X282749898Y-164063226D01*
X282938256Y-163985205D01*
X283107774Y-163871937D01*
X283251937Y-163727774D01*
X283365205Y-163558256D01*
X283443226Y-163369898D01*
X283483000Y-163169939D01*
X283483000Y-162966061D01*
X283443226Y-162766102D01*
X283365205Y-162577744D01*
X283251937Y-162408226D01*
X283210000Y-162366289D01*
X283210000Y-158181711D01*
X283251937Y-158139774D01*
X283365205Y-157970256D01*
X283443226Y-157781898D01*
X283483000Y-157581939D01*
X283483000Y-157378061D01*
X283443226Y-157178102D01*
X283365205Y-156989744D01*
X283251937Y-156820226D01*
X283107774Y-156676063D01*
X282938256Y-156562795D01*
X282749898Y-156484774D01*
X282549939Y-156445000D01*
X282346061Y-156445000D01*
X282146102Y-156484774D01*
X281957744Y-156562795D01*
X281788226Y-156676063D01*
X281644063Y-156820226D01*
X281530795Y-156989744D01*
X281452774Y-157178102D01*
X281413000Y-157378061D01*
X280892804Y-157378061D01*
X280855898Y-157362774D01*
X280655939Y-157323000D01*
X280596631Y-157323000D01*
X278287000Y-155013370D01*
X278287000Y-154954061D01*
X278247226Y-154754102D01*
X278169205Y-154565744D01*
X278055937Y-154396226D01*
X277911774Y-154252063D01*
X277742256Y-154138795D01*
X277553898Y-154060774D01*
X277353939Y-154021000D01*
X277150061Y-154021000D01*
X276950102Y-154060774D01*
X276761744Y-154138795D01*
X276592226Y-154252063D01*
X276448063Y-154396226D01*
X276334795Y-154565744D01*
X276256774Y-154754102D01*
X276217000Y-154954061D01*
X267360000Y-154954061D01*
X267360000Y-133412061D01*
X275915000Y-133412061D01*
X275915000Y-133615939D01*
X275954774Y-133815898D01*
X276032795Y-134004256D01*
X276146063Y-134173774D01*
X276188000Y-134215711D01*
X276188001Y-143660288D01*
X276146063Y-143702226D01*
X276032795Y-143871744D01*
X275954774Y-144060102D01*
X275915000Y-144260061D01*
X275915000Y-144463939D01*
X275954774Y-144663898D01*
X276032795Y-144852256D01*
X276146063Y-145021774D01*
X276290226Y-145165937D01*
X276459744Y-145279205D01*
X276648102Y-145357226D01*
X276848061Y-145397000D01*
X277051939Y-145397000D01*
X277251898Y-145357226D01*
X277440256Y-145279205D01*
X277609774Y-145165937D01*
X277753937Y-145021774D01*
X277867205Y-144852256D01*
X277945226Y-144663898D01*
X277985000Y-144463939D01*
X277985000Y-144260061D01*
X277945226Y-144060102D01*
X277867205Y-143871744D01*
X277753937Y-143702226D01*
X277712000Y-143660289D01*
X277712000Y-134215711D01*
X277753937Y-134173774D01*
X277867205Y-134004256D01*
X277945226Y-133815898D01*
X277985000Y-133615939D01*
X277985000Y-133412061D01*
X277945226Y-133212102D01*
X277867205Y-133023744D01*
X277753937Y-132854226D01*
X277609774Y-132710063D01*
X277440256Y-132596795D01*
X277251898Y-132518774D01*
X277051939Y-132479000D01*
X276848061Y-132479000D01*
X276648102Y-132518774D01*
X276459744Y-132596795D01*
X276290226Y-132710063D01*
X276146063Y-132854226D01*
X276032795Y-133023744D01*
X275954774Y-133212102D01*
X275915000Y-133412061D01*
X267360000Y-133412061D01*
X267360000Y-107504061D01*
X275915000Y-107504061D01*
X275915000Y-107707939D01*
X275954774Y-107907898D01*
X276032795Y-108096256D01*
X276146063Y-108265774D01*
X276188001Y-108307712D01*
X276188000Y-117064289D01*
X276146063Y-117106226D01*
X276032795Y-117275744D01*
X275954774Y-117464102D01*
X275915000Y-117664061D01*
X275915000Y-117867939D01*
X275954774Y-118067898D01*
X276032795Y-118256256D01*
X276146063Y-118425774D01*
X276290226Y-118569937D01*
X276459744Y-118683205D01*
X276648102Y-118761226D01*
X276848061Y-118801000D01*
X277051939Y-118801000D01*
X277251898Y-118761226D01*
X277440256Y-118683205D01*
X277609774Y-118569937D01*
X277753937Y-118425774D01*
X277867205Y-118256256D01*
X277945226Y-118067898D01*
X277985000Y-117867939D01*
X277985000Y-117664061D01*
X277945226Y-117464102D01*
X277867205Y-117275744D01*
X277753937Y-117106226D01*
X277712000Y-117064289D01*
X277712000Y-108307711D01*
X277753937Y-108265774D01*
X277867205Y-108096256D01*
X277945226Y-107907898D01*
X277985000Y-107707939D01*
X277985000Y-107504061D01*
X277945226Y-107304102D01*
X277867205Y-107115744D01*
X277753937Y-106946226D01*
X277609774Y-106802063D01*
X277440256Y-106688795D01*
X277251898Y-106610774D01*
X277051939Y-106571000D01*
X276848061Y-106571000D01*
X276648102Y-106610774D01*
X276459744Y-106688795D01*
X276290226Y-106802063D01*
X276146063Y-106946226D01*
X276032795Y-107115744D01*
X275954774Y-107304102D01*
X275915000Y-107504061D01*
X267360000Y-107504061D01*
X267360000Y-99974061D01*
X278873000Y-99974061D01*
X278873000Y-100177939D01*
X278912774Y-100377898D01*
X278990795Y-100566256D01*
X279104063Y-100735774D01*
X279248226Y-100879937D01*
X279417744Y-100993205D01*
X279606102Y-101071226D01*
X279806061Y-101111000D01*
X280009939Y-101111000D01*
X280209898Y-101071226D01*
X280398256Y-100993205D01*
X280567774Y-100879937D01*
X280711937Y-100735774D01*
X280825205Y-100566256D01*
X280903226Y-100377898D01*
X280912753Y-100330000D01*
X285810289Y-100330000D01*
X285852226Y-100371937D01*
X286021744Y-100485205D01*
X286210102Y-100563226D01*
X286410061Y-100603000D01*
X286613939Y-100603000D01*
X286813898Y-100563226D01*
X287002256Y-100485205D01*
X287171774Y-100371937D01*
X287315937Y-100227774D01*
X287429205Y-100058256D01*
X287507226Y-99869898D01*
X287547000Y-99669939D01*
X287547000Y-99466061D01*
X287507226Y-99266102D01*
X287429205Y-99077744D01*
X287315937Y-98908226D01*
X287171774Y-98764063D01*
X287002256Y-98650795D01*
X286813898Y-98572774D01*
X286613939Y-98533000D01*
X286410061Y-98533000D01*
X286210102Y-98572774D01*
X286021744Y-98650795D01*
X285852226Y-98764063D01*
X285810289Y-98806000D01*
X280453415Y-98806000D01*
X280415999Y-98802315D01*
X280378583Y-98806000D01*
X280378574Y-98806000D01*
X280266622Y-98817026D01*
X280122985Y-98860598D01*
X279990608Y-98931355D01*
X279874578Y-99026578D01*
X279862742Y-99041000D01*
X279806061Y-99041000D01*
X279606102Y-99080774D01*
X279417744Y-99158795D01*
X279248226Y-99272063D01*
X279104063Y-99416226D01*
X278990795Y-99585744D01*
X278912774Y-99774102D01*
X278873000Y-99974061D01*
X267360000Y-99974061D01*
X267360000Y-80278061D01*
X277741000Y-80278061D01*
X277741000Y-80481939D01*
X277780774Y-80681898D01*
X277858795Y-80870256D01*
X277972063Y-81039774D01*
X278116226Y-81183937D01*
X278285744Y-81297205D01*
X278474102Y-81375226D01*
X278674061Y-81415000D01*
X278733370Y-81415000D01*
X283260991Y-85942622D01*
X283260990Y-87131299D01*
X283219053Y-87173236D01*
X283105785Y-87342754D01*
X283027764Y-87531112D01*
X282987990Y-87731071D01*
X282987990Y-87934949D01*
X283027764Y-88134908D01*
X283105785Y-88323266D01*
X283219053Y-88492784D01*
X283363216Y-88636947D01*
X283532734Y-88750215D01*
X283721092Y-88828236D01*
X283921051Y-88868010D01*
X284124929Y-88868010D01*
X284324888Y-88828236D01*
X284513246Y-88750215D01*
X284682764Y-88636947D01*
X284826927Y-88492784D01*
X284940195Y-88323266D01*
X285018216Y-88134908D01*
X285057990Y-87934949D01*
X285057990Y-87731071D01*
X285018216Y-87531112D01*
X284940195Y-87342754D01*
X284826927Y-87173236D01*
X284784990Y-87131299D01*
X284784990Y-85664412D01*
X284788676Y-85626989D01*
X284784990Y-85589564D01*
X284773964Y-85477612D01*
X284730392Y-85333975D01*
X284659635Y-85201598D01*
X284564412Y-85085568D01*
X284535342Y-85061711D01*
X279811000Y-80337370D01*
X279811000Y-80278061D01*
X279771226Y-80078102D01*
X279693205Y-79889744D01*
X279579937Y-79720226D01*
X279435774Y-79576063D01*
X279266256Y-79462795D01*
X279077898Y-79384774D01*
X278877939Y-79345000D01*
X278674061Y-79345000D01*
X278474102Y-79384774D01*
X278285744Y-79462795D01*
X278116226Y-79576063D01*
X277972063Y-79720226D01*
X277858795Y-79889744D01*
X277780774Y-80078102D01*
X277741000Y-80278061D01*
X267360000Y-80278061D01*
X267360000Y-33336061D01*
X275915000Y-33336061D01*
X275915000Y-33539939D01*
X275954774Y-33739898D01*
X276032795Y-33928256D01*
X276146063Y-34097774D01*
X276188000Y-34139711D01*
X276188001Y-41880288D01*
X276146063Y-41922226D01*
X276032795Y-42091744D01*
X275954774Y-42280102D01*
X275915000Y-42480061D01*
X275915000Y-42683939D01*
X275954774Y-42883898D01*
X276032795Y-43072256D01*
X276146063Y-43241774D01*
X276290226Y-43385937D01*
X276459744Y-43499205D01*
X276648102Y-43577226D01*
X276848061Y-43617000D01*
X277051939Y-43617000D01*
X277251898Y-43577226D01*
X277440256Y-43499205D01*
X277609774Y-43385937D01*
X277753937Y-43241774D01*
X277867205Y-43072256D01*
X277945226Y-42883898D01*
X277976790Y-42725213D01*
X278004774Y-42865898D01*
X278082795Y-43054256D01*
X278196063Y-43223774D01*
X278340226Y-43367937D01*
X278509744Y-43481205D01*
X278698102Y-43559226D01*
X278898061Y-43599000D01*
X279101939Y-43599000D01*
X279301898Y-43559226D01*
X279490256Y-43481205D01*
X279659774Y-43367937D01*
X279803937Y-43223774D01*
X279917205Y-43054256D01*
X279995226Y-42865898D01*
X280035000Y-42665939D01*
X280035000Y-42462061D01*
X279995226Y-42262102D01*
X279917205Y-42073744D01*
X279803937Y-41904226D01*
X279762000Y-41862289D01*
X279762000Y-34121711D01*
X279803937Y-34079774D01*
X279917205Y-33910256D01*
X279995226Y-33721898D01*
X280035000Y-33521939D01*
X280035000Y-33318061D01*
X279995226Y-33118102D01*
X279917205Y-32929744D01*
X279803937Y-32760226D01*
X279659774Y-32616063D01*
X279490256Y-32502795D01*
X279301898Y-32424774D01*
X279101939Y-32385000D01*
X278898061Y-32385000D01*
X278698102Y-32424774D01*
X278509744Y-32502795D01*
X278340226Y-32616063D01*
X278196063Y-32760226D01*
X278082795Y-32929744D01*
X278004774Y-33118102D01*
X277973210Y-33276787D01*
X277945226Y-33136102D01*
X277867205Y-32947744D01*
X277753937Y-32778226D01*
X277609774Y-32634063D01*
X277440256Y-32520795D01*
X277251898Y-32442774D01*
X277051939Y-32403000D01*
X276848061Y-32403000D01*
X276648102Y-32442774D01*
X276459744Y-32520795D01*
X276290226Y-32634063D01*
X276146063Y-32778226D01*
X276032795Y-32947744D01*
X275954774Y-33136102D01*
X275915000Y-33336061D01*
X267360000Y-33336061D01*
X267360000Y-29870061D01*
X281413000Y-29870061D01*
X281413000Y-30073939D01*
X281452774Y-30273898D01*
X281530795Y-30462256D01*
X281644063Y-30631774D01*
X281788226Y-30775937D01*
X281957744Y-30889205D01*
X282146102Y-30967226D01*
X282346061Y-31007000D01*
X282405370Y-31007000D01*
X284461000Y-33062631D01*
X284461000Y-33121939D01*
X284500774Y-33321898D01*
X284578795Y-33510256D01*
X284692063Y-33679774D01*
X284836226Y-33823937D01*
X285005744Y-33937205D01*
X285194102Y-34015226D01*
X285394061Y-34055000D01*
X285597939Y-34055000D01*
X285797898Y-34015226D01*
X285986256Y-33937205D01*
X286155774Y-33823937D01*
X286299937Y-33679774D01*
X286413205Y-33510256D01*
X286491226Y-33321898D01*
X286531000Y-33121939D01*
X286531000Y-32918061D01*
X286491226Y-32718102D01*
X286413205Y-32529744D01*
X286299937Y-32360226D01*
X286155774Y-32216063D01*
X285986256Y-32102795D01*
X285797898Y-32024774D01*
X285597939Y-31985000D01*
X285538631Y-31985000D01*
X283483000Y-29929370D01*
X283483000Y-29870061D01*
X283443226Y-29670102D01*
X283365205Y-29481744D01*
X283251937Y-29312226D01*
X283107774Y-29168063D01*
X282938256Y-29054795D01*
X282749898Y-28976774D01*
X282549939Y-28937000D01*
X282346061Y-28937000D01*
X282146102Y-28976774D01*
X281957744Y-29054795D01*
X281788226Y-29168063D01*
X281644063Y-29312226D01*
X281530795Y-29481744D01*
X281452774Y-29670102D01*
X281413000Y-29870061D01*
X267360000Y-29870061D01*
X267360000Y-13360000D01*
X291440000Y-13360000D01*
X291440000Y-120334118D01*
X291440000Y-120334118D01*
G37*
X291440000Y-120334118D02*
X291379937Y-120244226D01*
X291235774Y-120100063D01*
X291066256Y-119986795D01*
X290877898Y-119908774D01*
X290677939Y-119869000D01*
X290474061Y-119869000D01*
X290274102Y-119908774D01*
X290085744Y-119986795D01*
X289916226Y-120100063D01*
X289772063Y-120244226D01*
X289658795Y-120413744D01*
X289607237Y-120538214D01*
X289542256Y-120494795D01*
X289353898Y-120416774D01*
X289153939Y-120377000D01*
X288950061Y-120377000D01*
X288750102Y-120416774D01*
X288561744Y-120494795D01*
X288392226Y-120608063D01*
X288248063Y-120752226D01*
X288134795Y-120921744D01*
X288056774Y-121110102D01*
X288017000Y-121310061D01*
X288017000Y-121513939D01*
X288056774Y-121713898D01*
X288134795Y-121902256D01*
X288248063Y-122071774D01*
X288392226Y-122215937D01*
X288561744Y-122329205D01*
X288750102Y-122407226D01*
X288950061Y-122447000D01*
X289009370Y-122447000D01*
X289814000Y-123251631D01*
X289814001Y-126298288D01*
X289772063Y-126340226D01*
X289701347Y-126446060D01*
X288641551Y-125386264D01*
X288613711Y-125352341D01*
X288478343Y-125241247D01*
X288323903Y-125158697D01*
X288156326Y-125107864D01*
X288025719Y-125095000D01*
X288025712Y-125095000D01*
X287982052Y-125090700D01*
X287938392Y-125095000D01*
X286028468Y-125095000D01*
X285986256Y-125066795D01*
X285797898Y-124988774D01*
X285597939Y-124949000D01*
X285394061Y-124949000D01*
X285194102Y-124988774D01*
X285005744Y-125066795D01*
X284836226Y-125180063D01*
X284692063Y-125324226D01*
X284578795Y-125493744D01*
X284500774Y-125682102D01*
X284461000Y-125882061D01*
X284461000Y-126085939D01*
X284500774Y-126285898D01*
X284578795Y-126474256D01*
X284692063Y-126643774D01*
X284836226Y-126787937D01*
X285005744Y-126901205D01*
X285194102Y-126979226D01*
X285394061Y-127019000D01*
X285597939Y-127019000D01*
X285797898Y-126979226D01*
X285986256Y-126901205D01*
X286028468Y-126873000D01*
X287613817Y-126873000D01*
X288987827Y-128247011D01*
X288997731Y-128296803D01*
X289075752Y-128485161D01*
X289189020Y-128654679D01*
X289333183Y-128798842D01*
X289502701Y-128912110D01*
X289691059Y-128990131D01*
X289891018Y-129029905D01*
X290094896Y-129029905D01*
X290294855Y-128990131D01*
X290483213Y-128912110D01*
X290652731Y-128798842D01*
X290796894Y-128654679D01*
X290910162Y-128485161D01*
X290988183Y-128296803D01*
X291027957Y-128096844D01*
X291027957Y-127933069D01*
X291066256Y-127917205D01*
X291235774Y-127803937D01*
X291379937Y-127659774D01*
X291440001Y-127569882D01*
X291440001Y-240640000D01*
X267360000Y-240640000D01*
X267360000Y-231128061D01*
X275915000Y-231128061D01*
X275915000Y-231331939D01*
X275954774Y-231531898D01*
X276032795Y-231720256D01*
X276146063Y-231889774D01*
X276188000Y-231931711D01*
X276188001Y-233732567D01*
X276184314Y-233770000D01*
X276199027Y-233919378D01*
X276242599Y-234063015D01*
X276313355Y-234195392D01*
X276384721Y-234282351D01*
X276408579Y-234311422D01*
X276437649Y-234335279D01*
X277965000Y-235862631D01*
X277965000Y-235921939D01*
X278004774Y-236121898D01*
X278082795Y-236310256D01*
X278196063Y-236479774D01*
X278340226Y-236623937D01*
X278509744Y-236737205D01*
X278698102Y-236815226D01*
X278898061Y-236855000D01*
X279101939Y-236855000D01*
X279301898Y-236815226D01*
X279490256Y-236737205D01*
X279659774Y-236623937D01*
X279803937Y-236479774D01*
X279917205Y-236310256D01*
X279995226Y-236121898D01*
X280035000Y-235921939D01*
X280035000Y-235718061D01*
X279995226Y-235518102D01*
X279917205Y-235329744D01*
X279803937Y-235160226D01*
X279659774Y-235016063D01*
X279490256Y-234902795D01*
X279301898Y-234824774D01*
X279101939Y-234785000D01*
X279042631Y-234785000D01*
X277712000Y-233454370D01*
X277712000Y-231931711D01*
X277753937Y-231889774D01*
X277867205Y-231720256D01*
X277945226Y-231531898D01*
X277985000Y-231331939D01*
X277985000Y-231128061D01*
X277945226Y-230928102D01*
X277867205Y-230739744D01*
X277753937Y-230570226D01*
X277609774Y-230426063D01*
X277440256Y-230312795D01*
X277251898Y-230234774D01*
X277051939Y-230195000D01*
X276848061Y-230195000D01*
X276648102Y-230234774D01*
X276459744Y-230312795D01*
X276290226Y-230426063D01*
X276146063Y-230570226D01*
X276032795Y-230739744D01*
X275954774Y-230928102D01*
X275915000Y-231128061D01*
X267360000Y-231128061D01*
X267360000Y-174650061D01*
X280905000Y-174650061D01*
X280905000Y-174853939D01*
X280944774Y-175053898D01*
X281022795Y-175242256D01*
X281136063Y-175411774D01*
X281280226Y-175555937D01*
X281449744Y-175669205D01*
X281638102Y-175747226D01*
X281838061Y-175787000D01*
X282041939Y-175787000D01*
X282241898Y-175747226D01*
X282430256Y-175669205D01*
X282599774Y-175555937D01*
X282743937Y-175411774D01*
X282857205Y-175242256D01*
X282935226Y-175053898D01*
X282975000Y-174853939D01*
X282975000Y-174794630D01*
X284286960Y-173482671D01*
X284328226Y-173523937D01*
X284497744Y-173637205D01*
X284686102Y-173715226D01*
X284886061Y-173755000D01*
X285089939Y-173755000D01*
X285289898Y-173715226D01*
X285478256Y-173637205D01*
X285647774Y-173523937D01*
X285791937Y-173379774D01*
X285905205Y-173210256D01*
X285983226Y-173021898D01*
X286023000Y-172821939D01*
X286023000Y-172618061D01*
X285983226Y-172418102D01*
X285905205Y-172229744D01*
X285791937Y-172060226D01*
X285647774Y-171916063D01*
X285478256Y-171802795D01*
X285289898Y-171724774D01*
X285089939Y-171685000D01*
X284886061Y-171685000D01*
X284686102Y-171724774D01*
X284497744Y-171802795D01*
X284328226Y-171916063D01*
X284286289Y-171958000D01*
X284009423Y-171958000D01*
X283972000Y-171954314D01*
X283934577Y-171958000D01*
X283934574Y-171958000D01*
X283822622Y-171969026D01*
X283678985Y-172012598D01*
X283617364Y-172045535D01*
X283546607Y-172083355D01*
X283463904Y-172151228D01*
X283430578Y-172178578D01*
X283406721Y-172207648D01*
X281897370Y-173717000D01*
X281838061Y-173717000D01*
X281638102Y-173756774D01*
X281449744Y-173834795D01*
X281280226Y-173948063D01*
X281136063Y-174092226D01*
X281022795Y-174261744D01*
X280944774Y-174450102D01*
X280905000Y-174650061D01*
X267360000Y-174650061D01*
X267360000Y-154954061D01*
X276217000Y-154954061D01*
X276217000Y-155157939D01*
X276256774Y-155357898D01*
X276334795Y-155546256D01*
X276448063Y-155715774D01*
X276592226Y-155859937D01*
X276761744Y-155973205D01*
X276950102Y-156051226D01*
X277150061Y-156091000D01*
X277209370Y-156091000D01*
X279519000Y-158400631D01*
X279519000Y-158459939D01*
X279558774Y-158659898D01*
X279636795Y-158848256D01*
X279750063Y-159017774D01*
X279894226Y-159161937D01*
X280063744Y-159275205D01*
X280252102Y-159353226D01*
X280452061Y-159393000D01*
X280655939Y-159393000D01*
X280855898Y-159353226D01*
X281044256Y-159275205D01*
X281213774Y-159161937D01*
X281357937Y-159017774D01*
X281471205Y-158848256D01*
X281549226Y-158659898D01*
X281589000Y-158459939D01*
X281589000Y-158256061D01*
X281549226Y-158056102D01*
X281471205Y-157867744D01*
X281357937Y-157698226D01*
X281213774Y-157554063D01*
X281044256Y-157440795D01*
X280892804Y-157378061D01*
X281413000Y-157378061D01*
X281413000Y-157581939D01*
X281452774Y-157781898D01*
X281530795Y-157970256D01*
X281644063Y-158139774D01*
X281686000Y-158181711D01*
X281686001Y-162366288D01*
X281644063Y-162408226D01*
X281530795Y-162577744D01*
X281452774Y-162766102D01*
X281413000Y-162966061D01*
X281413000Y-163169939D01*
X281452774Y-163369898D01*
X281530795Y-163558256D01*
X281644063Y-163727774D01*
X281788226Y-163871937D01*
X281957744Y-163985205D01*
X282146102Y-164063226D01*
X282346061Y-164103000D01*
X282549939Y-164103000D01*
X282749898Y-164063226D01*
X282938256Y-163985205D01*
X283107774Y-163871937D01*
X283251937Y-163727774D01*
X283365205Y-163558256D01*
X283443226Y-163369898D01*
X283483000Y-163169939D01*
X283483000Y-162966061D01*
X283443226Y-162766102D01*
X283365205Y-162577744D01*
X283251937Y-162408226D01*
X283210000Y-162366289D01*
X283210000Y-158181711D01*
X283251937Y-158139774D01*
X283365205Y-157970256D01*
X283443226Y-157781898D01*
X283483000Y-157581939D01*
X283483000Y-157378061D01*
X283443226Y-157178102D01*
X283365205Y-156989744D01*
X283251937Y-156820226D01*
X283107774Y-156676063D01*
X282938256Y-156562795D01*
X282749898Y-156484774D01*
X282549939Y-156445000D01*
X282346061Y-156445000D01*
X282146102Y-156484774D01*
X281957744Y-156562795D01*
X281788226Y-156676063D01*
X281644063Y-156820226D01*
X281530795Y-156989744D01*
X281452774Y-157178102D01*
X281413000Y-157378061D01*
X280892804Y-157378061D01*
X280855898Y-157362774D01*
X280655939Y-157323000D01*
X280596631Y-157323000D01*
X278287000Y-155013370D01*
X278287000Y-154954061D01*
X278247226Y-154754102D01*
X278169205Y-154565744D01*
X278055937Y-154396226D01*
X277911774Y-154252063D01*
X277742256Y-154138795D01*
X277553898Y-154060774D01*
X277353939Y-154021000D01*
X277150061Y-154021000D01*
X276950102Y-154060774D01*
X276761744Y-154138795D01*
X276592226Y-154252063D01*
X276448063Y-154396226D01*
X276334795Y-154565744D01*
X276256774Y-154754102D01*
X276217000Y-154954061D01*
X267360000Y-154954061D01*
X267360000Y-133412061D01*
X275915000Y-133412061D01*
X275915000Y-133615939D01*
X275954774Y-133815898D01*
X276032795Y-134004256D01*
X276146063Y-134173774D01*
X276188000Y-134215711D01*
X276188001Y-143660288D01*
X276146063Y-143702226D01*
X276032795Y-143871744D01*
X275954774Y-144060102D01*
X275915000Y-144260061D01*
X275915000Y-144463939D01*
X275954774Y-144663898D01*
X276032795Y-144852256D01*
X276146063Y-145021774D01*
X276290226Y-145165937D01*
X276459744Y-145279205D01*
X276648102Y-145357226D01*
X276848061Y-145397000D01*
X277051939Y-145397000D01*
X277251898Y-145357226D01*
X277440256Y-145279205D01*
X277609774Y-145165937D01*
X277753937Y-145021774D01*
X277867205Y-144852256D01*
X277945226Y-144663898D01*
X277985000Y-144463939D01*
X277985000Y-144260061D01*
X277945226Y-144060102D01*
X277867205Y-143871744D01*
X277753937Y-143702226D01*
X277712000Y-143660289D01*
X277712000Y-134215711D01*
X277753937Y-134173774D01*
X277867205Y-134004256D01*
X277945226Y-133815898D01*
X277985000Y-133615939D01*
X277985000Y-133412061D01*
X277945226Y-133212102D01*
X277867205Y-133023744D01*
X277753937Y-132854226D01*
X277609774Y-132710063D01*
X277440256Y-132596795D01*
X277251898Y-132518774D01*
X277051939Y-132479000D01*
X276848061Y-132479000D01*
X276648102Y-132518774D01*
X276459744Y-132596795D01*
X276290226Y-132710063D01*
X276146063Y-132854226D01*
X276032795Y-133023744D01*
X275954774Y-133212102D01*
X275915000Y-133412061D01*
X267360000Y-133412061D01*
X267360000Y-107504061D01*
X275915000Y-107504061D01*
X275915000Y-107707939D01*
X275954774Y-107907898D01*
X276032795Y-108096256D01*
X276146063Y-108265774D01*
X276188001Y-108307712D01*
X276188000Y-117064289D01*
X276146063Y-117106226D01*
X276032795Y-117275744D01*
X275954774Y-117464102D01*
X275915000Y-117664061D01*
X275915000Y-117867939D01*
X275954774Y-118067898D01*
X276032795Y-118256256D01*
X276146063Y-118425774D01*
X276290226Y-118569937D01*
X276459744Y-118683205D01*
X276648102Y-118761226D01*
X276848061Y-118801000D01*
X277051939Y-118801000D01*
X277251898Y-118761226D01*
X277440256Y-118683205D01*
X277609774Y-118569937D01*
X277753937Y-118425774D01*
X277867205Y-118256256D01*
X277945226Y-118067898D01*
X277985000Y-117867939D01*
X277985000Y-117664061D01*
X277945226Y-117464102D01*
X277867205Y-117275744D01*
X277753937Y-117106226D01*
X277712000Y-117064289D01*
X277712000Y-108307711D01*
X277753937Y-108265774D01*
X277867205Y-108096256D01*
X277945226Y-107907898D01*
X277985000Y-107707939D01*
X277985000Y-107504061D01*
X277945226Y-107304102D01*
X277867205Y-107115744D01*
X277753937Y-106946226D01*
X277609774Y-106802063D01*
X277440256Y-106688795D01*
X277251898Y-106610774D01*
X277051939Y-106571000D01*
X276848061Y-106571000D01*
X276648102Y-106610774D01*
X276459744Y-106688795D01*
X276290226Y-106802063D01*
X276146063Y-106946226D01*
X276032795Y-107115744D01*
X275954774Y-107304102D01*
X275915000Y-107504061D01*
X267360000Y-107504061D01*
X267360000Y-99974061D01*
X278873000Y-99974061D01*
X278873000Y-100177939D01*
X278912774Y-100377898D01*
X278990795Y-100566256D01*
X279104063Y-100735774D01*
X279248226Y-100879937D01*
X279417744Y-100993205D01*
X279606102Y-101071226D01*
X279806061Y-101111000D01*
X280009939Y-101111000D01*
X280209898Y-101071226D01*
X280398256Y-100993205D01*
X280567774Y-100879937D01*
X280711937Y-100735774D01*
X280825205Y-100566256D01*
X280903226Y-100377898D01*
X280912753Y-100330000D01*
X285810289Y-100330000D01*
X285852226Y-100371937D01*
X286021744Y-100485205D01*
X286210102Y-100563226D01*
X286410061Y-100603000D01*
X286613939Y-100603000D01*
X286813898Y-100563226D01*
X287002256Y-100485205D01*
X287171774Y-100371937D01*
X287315937Y-100227774D01*
X287429205Y-100058256D01*
X287507226Y-99869898D01*
X287547000Y-99669939D01*
X287547000Y-99466061D01*
X287507226Y-99266102D01*
X287429205Y-99077744D01*
X287315937Y-98908226D01*
X287171774Y-98764063D01*
X287002256Y-98650795D01*
X286813898Y-98572774D01*
X286613939Y-98533000D01*
X286410061Y-98533000D01*
X286210102Y-98572774D01*
X286021744Y-98650795D01*
X285852226Y-98764063D01*
X285810289Y-98806000D01*
X280453415Y-98806000D01*
X280415999Y-98802315D01*
X280378583Y-98806000D01*
X280378574Y-98806000D01*
X280266622Y-98817026D01*
X280122985Y-98860598D01*
X279990608Y-98931355D01*
X279874578Y-99026578D01*
X279862742Y-99041000D01*
X279806061Y-99041000D01*
X279606102Y-99080774D01*
X279417744Y-99158795D01*
X279248226Y-99272063D01*
X279104063Y-99416226D01*
X278990795Y-99585744D01*
X278912774Y-99774102D01*
X278873000Y-99974061D01*
X267360000Y-99974061D01*
X267360000Y-80278061D01*
X277741000Y-80278061D01*
X277741000Y-80481939D01*
X277780774Y-80681898D01*
X277858795Y-80870256D01*
X277972063Y-81039774D01*
X278116226Y-81183937D01*
X278285744Y-81297205D01*
X278474102Y-81375226D01*
X278674061Y-81415000D01*
X278733370Y-81415000D01*
X283260991Y-85942622D01*
X283260990Y-87131299D01*
X283219053Y-87173236D01*
X283105785Y-87342754D01*
X283027764Y-87531112D01*
X282987990Y-87731071D01*
X282987990Y-87934949D01*
X283027764Y-88134908D01*
X283105785Y-88323266D01*
X283219053Y-88492784D01*
X283363216Y-88636947D01*
X283532734Y-88750215D01*
X283721092Y-88828236D01*
X283921051Y-88868010D01*
X284124929Y-88868010D01*
X284324888Y-88828236D01*
X284513246Y-88750215D01*
X284682764Y-88636947D01*
X284826927Y-88492784D01*
X284940195Y-88323266D01*
X285018216Y-88134908D01*
X285057990Y-87934949D01*
X285057990Y-87731071D01*
X285018216Y-87531112D01*
X284940195Y-87342754D01*
X284826927Y-87173236D01*
X284784990Y-87131299D01*
X284784990Y-85664412D01*
X284788676Y-85626989D01*
X284784990Y-85589564D01*
X284773964Y-85477612D01*
X284730392Y-85333975D01*
X284659635Y-85201598D01*
X284564412Y-85085568D01*
X284535342Y-85061711D01*
X279811000Y-80337370D01*
X279811000Y-80278061D01*
X279771226Y-80078102D01*
X279693205Y-79889744D01*
X279579937Y-79720226D01*
X279435774Y-79576063D01*
X279266256Y-79462795D01*
X279077898Y-79384774D01*
X278877939Y-79345000D01*
X278674061Y-79345000D01*
X278474102Y-79384774D01*
X278285744Y-79462795D01*
X278116226Y-79576063D01*
X277972063Y-79720226D01*
X277858795Y-79889744D01*
X277780774Y-80078102D01*
X277741000Y-80278061D01*
X267360000Y-80278061D01*
X267360000Y-33336061D01*
X275915000Y-33336061D01*
X275915000Y-33539939D01*
X275954774Y-33739898D01*
X276032795Y-33928256D01*
X276146063Y-34097774D01*
X276188000Y-34139711D01*
X276188001Y-41880288D01*
X276146063Y-41922226D01*
X276032795Y-42091744D01*
X275954774Y-42280102D01*
X275915000Y-42480061D01*
X275915000Y-42683939D01*
X275954774Y-42883898D01*
X276032795Y-43072256D01*
X276146063Y-43241774D01*
X276290226Y-43385937D01*
X276459744Y-43499205D01*
X276648102Y-43577226D01*
X276848061Y-43617000D01*
X277051939Y-43617000D01*
X277251898Y-43577226D01*
X277440256Y-43499205D01*
X277609774Y-43385937D01*
X277753937Y-43241774D01*
X277867205Y-43072256D01*
X277945226Y-42883898D01*
X277976790Y-42725213D01*
X278004774Y-42865898D01*
X278082795Y-43054256D01*
X278196063Y-43223774D01*
X278340226Y-43367937D01*
X278509744Y-43481205D01*
X278698102Y-43559226D01*
X278898061Y-43599000D01*
X279101939Y-43599000D01*
X279301898Y-43559226D01*
X279490256Y-43481205D01*
X279659774Y-43367937D01*
X279803937Y-43223774D01*
X279917205Y-43054256D01*
X279995226Y-42865898D01*
X280035000Y-42665939D01*
X280035000Y-42462061D01*
X279995226Y-42262102D01*
X279917205Y-42073744D01*
X279803937Y-41904226D01*
X279762000Y-41862289D01*
X279762000Y-34121711D01*
X279803937Y-34079774D01*
X279917205Y-33910256D01*
X279995226Y-33721898D01*
X280035000Y-33521939D01*
X280035000Y-33318061D01*
X279995226Y-33118102D01*
X279917205Y-32929744D01*
X279803937Y-32760226D01*
X279659774Y-32616063D01*
X279490256Y-32502795D01*
X279301898Y-32424774D01*
X279101939Y-32385000D01*
X278898061Y-32385000D01*
X278698102Y-32424774D01*
X278509744Y-32502795D01*
X278340226Y-32616063D01*
X278196063Y-32760226D01*
X278082795Y-32929744D01*
X278004774Y-33118102D01*
X277973210Y-33276787D01*
X277945226Y-33136102D01*
X277867205Y-32947744D01*
X277753937Y-32778226D01*
X277609774Y-32634063D01*
X277440256Y-32520795D01*
X277251898Y-32442774D01*
X277051939Y-32403000D01*
X276848061Y-32403000D01*
X276648102Y-32442774D01*
X276459744Y-32520795D01*
X276290226Y-32634063D01*
X276146063Y-32778226D01*
X276032795Y-32947744D01*
X275954774Y-33136102D01*
X275915000Y-33336061D01*
X267360000Y-33336061D01*
X267360000Y-29870061D01*
X281413000Y-29870061D01*
X281413000Y-30073939D01*
X281452774Y-30273898D01*
X281530795Y-30462256D01*
X281644063Y-30631774D01*
X281788226Y-30775937D01*
X281957744Y-30889205D01*
X282146102Y-30967226D01*
X282346061Y-31007000D01*
X282405370Y-31007000D01*
X284461000Y-33062631D01*
X284461000Y-33121939D01*
X284500774Y-33321898D01*
X284578795Y-33510256D01*
X284692063Y-33679774D01*
X284836226Y-33823937D01*
X285005744Y-33937205D01*
X285194102Y-34015226D01*
X285394061Y-34055000D01*
X285597939Y-34055000D01*
X285797898Y-34015226D01*
X285986256Y-33937205D01*
X286155774Y-33823937D01*
X286299937Y-33679774D01*
X286413205Y-33510256D01*
X286491226Y-33321898D01*
X286531000Y-33121939D01*
X286531000Y-32918061D01*
X286491226Y-32718102D01*
X286413205Y-32529744D01*
X286299937Y-32360226D01*
X286155774Y-32216063D01*
X285986256Y-32102795D01*
X285797898Y-32024774D01*
X285597939Y-31985000D01*
X285538631Y-31985000D01*
X283483000Y-29929370D01*
X283483000Y-29870061D01*
X283443226Y-29670102D01*
X283365205Y-29481744D01*
X283251937Y-29312226D01*
X283107774Y-29168063D01*
X282938256Y-29054795D01*
X282749898Y-28976774D01*
X282549939Y-28937000D01*
X282346061Y-28937000D01*
X282146102Y-28976774D01*
X281957744Y-29054795D01*
X281788226Y-29168063D01*
X281644063Y-29312226D01*
X281530795Y-29481744D01*
X281452774Y-29670102D01*
X281413000Y-29870061D01*
X267360000Y-29870061D01*
X267360000Y-13360000D01*
X291440000Y-13360000D01*
X291440000Y-120334118D01*
M02*
