%FSLAX45Y45*%
G04 Gerber Fmt 4.5, Leading zero omitted, Abs format (unit mm)*
G04 Created by KiCad (PCBNEW (5.1.4)-1) date 2020-04-23 20:30:22*
%MOMM*%
%LPD*%
G04 APERTURE LIST*
%ADD10C,0.050000*%
%ADD11C,0.200000*%
%ADD12C,0.300000*%
G04 APERTURE END LIST*
D10*
X26670000Y-24130000D02*
X26670000Y-1270000D01*
X29210000Y-24130000D02*
X26670000Y-24130000D01*
X29210000Y-1270000D02*
X29210000Y-24130000D01*
X26670000Y-1270000D02*
X29210000Y-1270000D01*
X1270000Y-24130000D02*
X1270000Y-1270000D01*
X24130000Y-24130000D02*
X1270000Y-24130000D01*
X24130000Y-1270000D02*
X24130000Y-24130000D01*
X1270000Y-1270000D02*
X24130000Y-1270000D01*
D11*
D12*
X1553928Y-24598214D02*
X1553928Y-24298214D01*
X1625357Y-24298214D01*
X1668214Y-24312500D01*
X1696786Y-24341071D01*
X1711071Y-24369643D01*
X1725357Y-24426786D01*
X1725357Y-24469643D01*
X1711071Y-24526786D01*
X1696786Y-24555357D01*
X1668214Y-24583929D01*
X1625357Y-24598214D01*
X1553928Y-24598214D01*
X1853928Y-24598214D02*
X1853928Y-24398214D01*
X1853928Y-24455357D02*
X1868214Y-24426786D01*
X1882500Y-24412500D01*
X1911071Y-24398214D01*
X1939643Y-24398214D01*
X2039643Y-24598214D02*
X2039643Y-24398214D01*
X2039643Y-24298214D02*
X2025357Y-24312500D01*
X2039643Y-24326786D01*
X2053928Y-24312500D01*
X2039643Y-24298214D01*
X2039643Y-24326786D01*
X2225357Y-24598214D02*
X2196786Y-24583929D01*
X2182500Y-24555357D01*
X2182500Y-24298214D01*
X2382500Y-24598214D02*
X2353928Y-24583929D01*
X2339643Y-24555357D01*
X2339643Y-24298214D01*
X2725357Y-24598214D02*
X2725357Y-24298214D01*
X2825357Y-24512500D01*
X2925357Y-24298214D01*
X2925357Y-24598214D01*
X3196786Y-24598214D02*
X3196786Y-24441071D01*
X3182500Y-24412500D01*
X3153928Y-24398214D01*
X3096786Y-24398214D01*
X3068214Y-24412500D01*
X3196786Y-24583929D02*
X3168214Y-24598214D01*
X3096786Y-24598214D01*
X3068214Y-24583929D01*
X3053928Y-24555357D01*
X3053928Y-24526786D01*
X3068214Y-24498214D01*
X3096786Y-24483929D01*
X3168214Y-24483929D01*
X3196786Y-24469643D01*
X3339643Y-24398214D02*
X3339643Y-24698214D01*
X3339643Y-24412500D02*
X3368214Y-24398214D01*
X3425357Y-24398214D01*
X3453928Y-24412500D01*
X3468214Y-24426786D01*
X3482500Y-24455357D01*
X3482500Y-24541071D01*
X3468214Y-24569643D01*
X3453928Y-24583929D01*
X3425357Y-24598214D01*
X3368214Y-24598214D01*
X3339643Y-24583929D01*
X3611071Y-24569643D02*
X3625357Y-24583929D01*
X3611071Y-24598214D01*
X3596786Y-24583929D01*
X3611071Y-24569643D01*
X3611071Y-24598214D01*
X3611071Y-24412500D02*
X3625357Y-24426786D01*
X3611071Y-24441071D01*
X3596786Y-24426786D01*
X3611071Y-24412500D01*
X3611071Y-24441071D01*
M02*
